GeoramaExtraCondensed-SemiBoldItalic.ufo
<glyph name="exclam" format="2">
  <advance width="155.35"/>
  <unicode hex="0021"/>
  <outline>
    <contour>
      <point x="30.599999999999998" y="261.25" type="line"/>
      <point x="116.80000000000001" y="261.25" type="line"/>
      <point x="202.8" y="740.0" type="line"/>
      <point x="101.75" y="740.0" type="line"/>
    </contour>
    <contour>
      <point x="-12.750000000000002" y="41.35" type="curve" smooth="yes"/>
      <point x="-13.200000000000001" y="9.700000000000001"/>
      <point x="-0.10000000000000009" y="-5.5"/>
      <point x="32.35" y="-5.5" type="curve" smooth="yes"/>
      <point x="86.30000000000001" y="-5.5"/>
      <point x="100.05000000000001" y="47.2"/>
      <point x="101.4" y="92.2" type="curve" smooth="yes"/>
      <point x="101.85000000000001" y="124.30000000000001"/>
      <point x="87.85" y="139.05"/>
      <point x="55.85" y="139.05" type="curve" smooth="yes"/>
      <point x="3.9" y="139.05"/>
      <point x="-11.400000000000002" y="87.45"/>
    </contour>
  </outline>
</glyph>
<glyph name="numbersign" format="2">
  <advance width="343.5"/>
  <unicode hex="0023"/>
  <outline>
    <contour>
      <point x="69.3" y="432.2" type="line"/>
      <point x="112.3" y="432.2" type="line"/>
      <point x="69.9" y="262.1" type="line"/>
      <point x="27.400000000000002" y="262.1" type="line"/>
      <point x="11.850000000000001" y="166.55" type="line"/>
      <point x="50.05" y="166.55" type="line"/>
      <point x="10.350000000000001" y="0.0" type="line"/>
      <point x="81.95" y="0.0" type="line"/>
      <point x="121.2" y="166.55" type="line"/>
      <point x="165.65" y="166.55" type="line"/>
      <point x="126.4" y="0.0" type="line"/>
      <point x="197.0" y="0.0" type="line"/>
      <point x="236.25" y="166.55" type="line"/>
      <point x="283.0" y="166.55" type="line"/>
      <point x="298.1" y="262.1" type="line"/>
      <point x="256.1" y="262.1" type="line"/>
      <point x="298.5" y="432.2" type="line"/>
      <point x="340.0" y="432.2" type="line"/>
      <point x="355.65" y="528.85" type="line"/>
      <point x="318.35" y="528.85" type="line"/>
      <point x="359.25" y="700.0" type="line"/>
      <point x="288.1" y="700.0" type="line"/>
      <point x="247.2" y="528.85" type="line"/>
      <point x="202.75" y="528.85" type="line"/>
      <point x="243.65" y="700.0" type="line"/>
      <point x="173.05" y="700.0" type="line"/>
      <point x="132.15" y="528.85" type="line"/>
      <point x="84.95" y="528.85" type="line"/>
    </contour>
    <contour>
      <point x="182.9" y="432.2" type="line"/>
      <point x="227.35" y="432.2" type="line"/>
      <point x="185.5" y="262.1" type="line"/>
      <point x="141.05" y="262.1" type="line"/>
    </contour>
  </outline>
</glyph>
<glyph name="dollar" format="2">
  <advance width="343.5"/>
  <unicode hex="0024"/>
  <outline>
    <contour>
      <point x="351.40000000000003" y="683.9" type="line"/>
      <point x="336.09999999999997" y="694.0999999999999"/>
      <point x="310.2" y="703.5"/>
      <point x="280.5" y="707.7" type="curve"/>
      <point x="295.5" y="803.9" type="line"/>
      <point x="207.20000000000002" y="803.9" type="line"/>
      <point x="190.1" y="700.1999999999999" type="line"/>
      <point x="102.39999999999999" y="678.9"/>
      <point x="67.1" y="588.3000000000001"/>
      <point x="67.1" y="510.19999999999993" type="curve" smooth="yes"/>
      <point x="67.1" y="349.59999999999997"/>
      <point x="195.20000000000002" y="281.90000000000003"/>
      <point x="195.20000000000002" y="187.8" type="curve" smooth="yes"/>
      <point x="195.20000000000002" y="135.79999999999998"/>
      <point x="168.9" y="90.2"/>
      <point x="114.00000000000001" y="90.2" type="curve" smooth="yes"/>
      <point x="83.50000000000001" y="90.2"/>
      <point x="54.9" y="96.60000000000001"/>
      <point x="21.500000000000004" y="113.0" type="curve"/>
      <point x="-13.5" y="20.3" type="line"/>
      <point x="8.200000000000001" y="6.700000000000001"/>
      <point x="37.6" y="-3.399999999999999"/>
      <point x="65.7" y="-6.7" type="curve"/>
      <point x="50.7" y="-105.0" type="line"/>
      <point x="139.0" y="-105.0" type="line"/>
      <point x="154.0" y="-4.6" type="line"/>
      <point x="253.3" y="14.5"/>
      <point x="293.2" y="110.10000000000001"/>
      <point x="293.2" y="190.70000000000002" type="curve" smooth="yes"/>
      <point x="293.2" y="351.3"/>
      <point x="169.60000000000002" y="412.7"/>
      <point x="169.60000000000002" y="508.90000000000003" type="curve" smooth="yes"/>
      <point x="169.60000000000002" y="555.1999999999999"/>
      <point x="193.5" y="606.1999999999999"/>
      <point x="248.70000000000002" y="606.1999999999999" type="curve" smooth="yes"/>
      <point x="268.09999999999997" y="606.1999999999999"/>
      <point x="290.09999999999997" y="602.1999999999999"/>
      <point x="317.1" y="589.7" type="curve"/>
    </contour>
  </outline>
</glyph>
<glyph name="ampersand" format="2">
  <advance width="419.3"/>
  <unicode hex="0026"/>
  <outline>
    <contour>
      <point x="166.25" y="-10.0" type="curve" smooth="yes"/>
      <point x="301.7" y="-10.0"/>
      <point x="397.35" y="155.8"/>
      <point x="350.05" y="294.55" type="curve"/>
      <point x="270.45" y="287.0" type="line"/>
      <point x="318.75" y="196.8"/>
      <point x="249.45" y="85.55000000000001"/>
      <point x="182.0" y="85.55000000000001" type="curve" smooth="yes"/>
      <point x="126.85000000000001" y="85.55000000000001"/>
      <point x="100.2" y="125.0"/>
      <point x="100.2" y="189.0" type="curve" smooth="yes"/>
      <point x="100.2" y="291.65"/>
      <point x="159.85" y="380.2"/>
      <point x="244.3" y="380.2" type="curve" smooth="yes"/>
      <point x="256.5" y="380.2" type="line"/>
      <point x="273.8" y="453.75" type="line"/>
      <point x="259.75" y="455.95" type="line" smooth="yes"/>
      <point x="217.05" y="459.25"/>
      <point x="198.6" y="487.75"/>
      <point x="198.6" y="533.9" type="curve" smooth="yes"/>
      <point x="198.6" y="583.45"/>
      <point x="229.85" y="618.3"/>
      <point x="265.4" y="618.3" type="curve" smooth="yes"/>
      <point x="287.55" y="618.3"/>
      <point x="304.45" y="614.05"/>
      <point x="326.8" y="597.35" type="curve"/>
      <point x="370.45" y="679.35" type="line"/>
      <point x="334.6" y="699.45"/>
      <point x="301.35" y="710.0"/>
      <point x="257.4" y="710.0" type="curve" smooth="yes"/>
      <point x="166.05" y="710.0"/>
      <point x="107.0" y="632.95"/>
      <point x="107.0" y="545.1" type="curve" smooth="yes"/>
      <point x="107.0" y="489.65"/>
      <point x="126.25" y="450.9"/>
      <point x="167.65" y="421.9" type="curve"/>
      <point x="75.05" y="393.7"/>
      <point x="6.3999999999999995" y="300.55"/>
      <point x="6.3999999999999995" y="166.55" type="curve" smooth="yes"/>
      <point x="6.3999999999999995" y="64.5"/>
      <point x="59.85" y="-10.0"/>
    </contour>
    <contour>
      <point x="237.10000000000002" y="232.3" type="line"/>
      <point x="239.35000000000002" y="257.55"/>
      <point x="248.15" y="273.8"/>
      <point x="270.55" y="273.8" type="curve" smooth="yes"/>
      <point x="298.55" y="273.8"/>
      <point x="322.8" y="268.4"/>
      <point x="351.55" y="268.4" type="curve" smooth="yes"/>
      <point x="404.15" y="268.4"/>
      <point x="438.3" y="320.75"/>
      <point x="429.7" y="374.3" type="curve"/>
      <point x="368.05" y="378.35" type="line"/>
      <point x="363.8" y="338.6"/>
      <point x="346.3" y="332.15"/>
      <point x="312.8" y="332.15" type="curve" smooth="yes"/>
      <point x="295.4" y="332.15"/>
      <point x="275.3" y="337.55"/>
      <point x="257.0" y="337.55" type="curve" smooth="yes"/>
      <point x="196.8" y="337.55"/>
      <point x="176.85" y="290.25"/>
      <point x="172.8" y="244.15" type="curve"/>
    </contour>
  </outline>
</glyph>
<glyph name="quotesingle" format="2">
  <advance width="152.8"/>
  <unicode hex="0027"/>
  <outline>
    <contour>
      <point x="57.599999999999994" y="427.0" type="line"/>
      <point x="140.45" y="427.0" type="line"/>
      <point x="190.75" y="700.0" type="line"/>
      <point x="96.05" y="700.0" type="line"/>
    </contour>
  </outline>
</glyph>
<glyph name="parenleft" format="2">
  <advance width="204.35"/>
  <unicode hex="0028"/>
  <outline>
    <contour>
      <point x="10.899999999999999" y="13.0" type="curve" smooth="yes"/>
      <point x="10.899999999999999" y="-117.5"/>
      <point x="42.75" y="-200.4"/>
      <point x="111.45" y="-220.0" type="curve"/>
      <point x="132.15" y="-125.89999999999999" type="line"/>
      <point x="107.85" y="-108.69999999999999"/>
      <point x="91.05000000000001" y="-62.99999999999999"/>
      <point x="91.05000000000001" y="21.85" type="curve" smooth="yes"/>
      <point x="91.05000000000001" y="158.35"/>
      <point x="157.75" y="622.5"/>
      <point x="255.7" y="654.1" type="curve"/>
      <point x="266.3" y="749.55" type="line"/>
      <point x="81.75" y="713.1"/>
      <point x="10.899999999999999" y="241.8"/>
    </contour>
  </outline>
</glyph>
<glyph name="parenright" format="2">
  <advance width="204.35"/>
  <unicode hex="0029"/>
  <outline>
    <contour>
      <point x="190.9" y="517.0" type="curve" smooth="yes"/>
      <point x="190.9" y="647.5"/>
      <point x="159.5" y="730.4"/>
      <point x="90.8" y="750.0" type="curve"/>
      <point x="71.0" y="654.55" type="line"/>
      <point x="96.2" y="634.65"/>
      <point x="110.75" y="592.1"/>
      <point x="110.75" y="514.0" type="curve" smooth="yes"/>
      <point x="110.75" y="372.1"/>
      <point x="43.6" y="-93.85"/>
      <point x="-54.35" y="-125.0" type="curve"/>
      <point x="-64.5" y="-220.0" type="line"/>
      <point x="119.15" y="-180.85"/>
      <point x="190.9" y="289.1"/>
    </contour>
  </outline>
</glyph>
<glyph name="asterisk" format="2">
  <advance width="255.2"/>
  <unicode hex="002A"/>
  <outline>
    <contour>
      <point x="98.0" y="414.05" type="line"/>
      <point x="161.15" y="488.05" type="line"/>
      <point x="199.6" y="414.5" type="line"/>
      <point x="243.75" y="444.3" type="line"/>
      <point x="215.3" y="528.15" type="line"/>
      <point x="295.15" y="568.5" type="line"/>
      <point x="287.3" y="618.05" type="line"/>
      <point x="207.7" y="592.15" type="line"/>
      <point x="217.55" y="690.05" type="line"/>
      <point x="168.55" y="690.05" type="line"/>
      <point x="146.6" y="592.6" type="line"/>
      <point x="76.8" y="618.5" type="line"/>
      <point x="52.85" y="569.4" type="line"/>
      <point x="117.05" y="529.05" type="line"/>
      <point x="62.45" y="444.3" type="line"/>
    </contour>
  </outline>
</glyph>
<glyph name="plus" format="2">
  <advance width="365.85"/>
  <unicode hex="002B"/>
  <outline>
    <contour>
      <point x="115.25" y="122.05000000000001" type="line"/>
      <point x="203.0" y="122.05000000000001" type="line"/>
      <point x="225.55" y="263.6" type="line"/>
      <point x="323.45" y="263.6" type="line"/>
      <point x="338.55" y="360.15" type="line"/>
      <point x="240.65" y="360.15" type="line"/>
      <point x="263.2" y="502.15" type="line"/>
      <point x="175.45" y="502.15" type="line"/>
      <point x="152.9" y="360.15" type="line"/>
      <point x="54.55" y="360.15" type="line"/>
      <point x="39.45" y="263.6" type="line"/>
      <point x="137.8" y="263.6" type="line"/>
    </contour>
  </outline>
</glyph>
<glyph name="comma" format="2">
  <advance width="145.0"/>
  <unicode hex="002C"/>
  <outline>
    <contour>
      <point x="-6.4" y="76.35" type="line"/>
      <point x="-6.5" y="51.5"/>
      <point x="-8.700000000000001" y="28.950000000000003"/>
      <point x="-10.350000000000001" y="16.200000000000003" type="curve" smooth="yes"/>
      <point x="-15.3" y="-41.0"/>
      <point x="-49.85" y="-122.85"/>
      <point x="-83.2" y="-162.15" type="curve"/>
      <point x="-16.699999999999996" y="-188.7" type="line"/>
      <point x="49.800000000000004" y="-119.85"/>
      <point x="85.10000000000001" y="-26.549999999999997"/>
      <point x="85.10000000000001" y="46.150000000000006" type="curve" smooth="yes"/>
      <point x="85.10000000000001" y="57.7"/>
      <point x="84.55000000000001" y="68.25"/>
      <point x="83.65" y="80.05000000000001" type="curve"/>
    </contour>
  </outline>
</glyph>
<glyph name="hyphen" format="2">
  <advance width="240.9"/>
  <unicode hex="002D"/>
  <outline>
    <contour>
      <point x="19.8" y="242.55" type="line"/>
      <point x="210.25" y="242.55" type="line"/>
      <point x="228.0" y="346.8" type="line"/>
      <point x="37.55" y="346.8" type="line"/>
    </contour>
  </outline>
</glyph>
<glyph name="period" format="2">
  <advance width="145.0"/>
  <unicode hex="002E"/>
  <outline>
    <contour>
      <point x="-17.05" y="43.0" type="curve" smooth="yes"/>
      <point x="-17.5" y="10.8"/>
      <point x="-4.949999999999999" y="-3.8500000000000005"/>
      <point x="28.05" y="-3.8500000000000005" type="curve" smooth="yes"/>
      <point x="82.0" y="-3.8500000000000005"/>
      <point x="95.2" y="48.85"/>
      <point x="96.55000000000001" y="94.95" type="curve" smooth="yes"/>
      <point x="97.0" y="126.50000000000001"/>
      <point x="83.55000000000001" y="140.7"/>
      <point x="51.550000000000004" y="140.7" type="curve" smooth="yes"/>
      <point x="-0.9499999999999993" y="140.7"/>
      <point x="-15.700000000000001" y="89.1"/>
    </contour>
  </outline>
</glyph>
<glyph name="slash" format="2">
  <advance width="287.9"/>
  <unicode hex="002F"/>
  <outline>
    <contour>
      <point x="-77.55" y="-210.0" type="line"/>
      <point x="6.450000000000003" y="-210.0" type="line"/>
      <point x="362.45" y="740.0" type="line"/>
      <point x="277.35" y="740.0" type="line"/>
    </contour>
  </outline>
</glyph>
<glyph name="zero" format="2">
  <advance width="343.5"/>
  <unicode hex="0030"/>
  <outline>
    <contour>
      <point x="130.8" y="-10.0" type="curve" smooth="yes"/>
      <point x="296.9" y="-10.0"/>
      <point x="354.0" y="323.09999999999997"/>
      <point x="354.0" y="539.4" type="curve" smooth="yes"/>
      <point x="354.0" y="662.9"/>
      <point x="315.90000000000003" y="710.0"/>
      <point x="236.60000000000002" y="710.0" type="curve" smooth="yes"/>
      <point x="71.50000000000001" y="710.0"/>
      <point x="13.4" y="378.70000000000005"/>
      <point x="13.4" y="162.4" type="curve" smooth="yes"/>
      <point x="13.4" y="38.900000000000006"/>
      <point x="51.50000000000001" y="-10.0"/>
    </contour>
    <contour>
      <point x="143.6" y="92.60000000000001" type="curve" smooth="yes"/>
      <point x="120.0" y="92.60000000000001"/>
      <point x="109.60000000000001" y="110.20000000000002"/>
      <point x="110.5" y="161.8" type="curve" smooth="yes"/>
      <point x="111.4" y="287.59999999999997"/>
      <point x="159.60000000000002" y="607.4"/>
      <point x="224.3" y="607.4" type="curve" smooth="yes"/>
      <point x="247.7" y="607.4"/>
      <point x="258.0" y="589.8"/>
      <point x="257.1" y="538.5" type="curve" smooth="yes"/>
      <point x="256.2" y="413.5"/>
      <point x="207.70000000000002" y="92.60000000000001"/>
    </contour>
  </outline>
</glyph>
<glyph name="one" format="2">
  <advance width="343.5"/>
  <unicode hex="0031"/>
  <outline>
    <contour>
      <point x="7.0" y="0.0" type="line"/>
      <point x="269.1" y="0.0" type="line"/>
      <point x="284.75" y="97.0" type="line"/>
      <point x="205.0" y="97.0" type="line"/>
      <point x="301.45" y="700.0" type="line"/>
      <point x="252.5" y="700.0" type="line"/>
      <point x="88.6" y="618.5" type="line"/>
      <point x="93.1" y="510.45" type="line"/>
      <point x="182.4" y="563.8" type="line"/>
      <point x="107.35" y="97.0" type="line"/>
      <point x="22.1" y="97.0" type="line"/>
    </contour>
  </outline>
</glyph>
<glyph name="two" format="2">
  <advance width="343.5"/>
  <unicode hex="0032"/>
  <outline>
    <contour>
      <point x="13.800000000000004" y="79.7" type="curve"/>
      <point x="3.600000000000001" y="0.0" type="line"/>
      <point x="259.5" y="0.0" type="line"/>
      <point x="273.6" y="87.2" type="line"/>
      <point x="117.20000000000002" y="87.2" type="line"/>
      <point x="276.4" y="342.6"/>
      <point x="333.7" y="464.1"/>
      <point x="333.7" y="572.7" type="curve" smooth="yes"/>
      <point x="333.7" y="656.8000000000001"/>
      <point x="296.40000000000003" y="710.0"/>
      <point x="228.3" y="710.0" type="curve" smooth="yes"/>
      <point x="174.60000000000002" y="710.0"/>
      <point x="127.3" y="690.4"/>
      <point x="86.39999999999999" y="654.5" type="curve"/>
      <point x="108.10000000000001" y="561.4" type="line"/>
      <point x="135.5" y="585.3"/>
      <point x="159.3" y="599.1999999999999"/>
      <point x="188.0" y="599.1999999999999" type="curve" smooth="yes"/>
      <point x="216.6" y="599.1999999999999"/>
      <point x="230.89999999999998" y="575.6"/>
      <point x="230.89999999999998" y="539.9" type="curve" smooth="yes"/>
      <point x="230.9" y="461.9"/>
      <point x="185.0" y="355.6"/>
    </contour>
  </outline>
</glyph>
<glyph name="three" format="2">
  <advance width="343.5"/>
  <unicode hex="0033"/>
  <outline>
    <contour>
      <point x="-17.2" y="35.75" type="line"/>
      <point x="10.900000000000002" y="7.2"/>
      <point x="46.2" y="-10.0"/>
      <point x="100.25" y="-10.0" type="curve" smooth="yes"/>
      <point x="202.9" y="-10.0"/>
      <point x="291.25" y="85.3"/>
      <point x="291.25" y="239.65" type="curve" smooth="yes"/>
      <point x="291.25" y="317.05"/>
      <point x="262.25" y="353.75"/>
      <point x="234.60000000000002" y="369.9" type="curve"/>
      <point x="289.45" y="405.85"/>
      <point x="331.55" y="472.8"/>
      <point x="331.55" y="568.25" type="curve" smooth="yes"/>
      <point x="331.55" y="658.1"/>
      <point x="288.25" y="710.0"/>
      <point x="214.15" y="710.0" type="curve" smooth="yes"/>
      <point x="166.7" y="710.0"/>
      <point x="119.5" y="691.05"/>
      <point x="85.1" y="663.15" type="curve"/>
      <point x="104.35" y="578.85" type="line"/>
      <point x="121.95" y="592.35"/>
      <point x="144.5" y="601.35"/>
      <point x="172.35" y="601.35" type="curve" smooth="yes"/>
      <point x="205.95" y="601.35"/>
      <point x="228.4" y="570.5"/>
      <point x="228.4" y="523.45" type="curve" smooth="yes"/>
      <point x="228.4" y="462.2"/>
      <point x="193.9" y="401.1"/>
      <point x="152.45" y="401.1" type="curve" smooth="yes"/>
      <point x="116.8" y="401.1" type="line"/>
      <point x="103.35" y="319.3" type="line"/>
      <point x="146.9" y="319.3" type="line" smooth="yes"/>
      <point x="179.55" y="319.3"/>
      <point x="196.45" y="289.9"/>
      <point x="196.45" y="243.55" type="curve" smooth="yes"/>
      <point x="196.45" y="158.8"/>
      <point x="160.2" y="94.25"/>
      <point x="100.7" y="94.25" type="curve" smooth="yes"/>
      <point x="73.0" y="94.25"/>
      <point x="53.85" y="102.95"/>
      <point x="32.45" y="122.55000000000001" type="curve"/>
    </contour>
  </outline>
</glyph>
<glyph name="four" format="2">
  <advance width="343.5"/>
  <unicode hex="0034"/>
  <outline>
    <contour>
      <point x="4.299999999999999" y="130.95" type="line"/>
      <point x="146.85" y="130.95" type="line"/>
      <point x="126.2" y="0.0" type="line"/>
      <point x="228.25" y="0.0" type="line"/>
      <point x="248.9" y="130.95" type="line"/>
      <point x="298.4" y="130.95" type="line"/>
      <point x="312.4" y="220.8" type="line"/>
      <point x="263.45" y="220.8" type="line"/>
      <point x="339.9" y="699.55" type="line"/>
      <point x="226.25" y="701.8" type="line"/>
      <point x="15.600000000000001" y="219.45" type="line"/>
    </contour>
    <contour>
      <point x="76.85" y="220.8" type="line"/>
      <point x="218.05" y="543.7" type="line"/>
      <point x="165.8" y="220.8" type="line"/>
    </contour>
  </outline>
</glyph>
<glyph name="five" format="2">
  <advance width="343.5"/>
  <unicode hex="0035"/>
  <outline>
    <contour>
      <point x="-12.7" y="33.05" type="line"/>
      <point x="14.3" y="4.8"/>
      <point x="48.55" y="-10.0"/>
      <point x="100.35" y="-10.0" type="curve" smooth="yes"/>
      <point x="245.55" y="-10.0"/>
      <point x="301.75" y="147.95"/>
      <point x="301.75" y="269.55" type="curve" smooth="yes"/>
      <point x="301.75" y="361.7"/>
      <point x="264.75" y="405.4"/>
      <point x="203.35000000000002" y="408.7" type="curve" smooth="yes"/>
      <point x="168.85000000000002" y="409.8" type="line"/>
      <point x="209.60000000000002" y="595.85" type="line"/>
      <point x="337.2" y="595.85" type="line"/>
      <point x="352.85" y="700.0" type="line"/>
      <point x="146.2" y="700.0" type="line"/>
      <point x="61.5" y="327.65" type="line"/>
      <point x="68.3" y="315.55" type="line"/>
      <point x="137.0" y="315.55" type="line" smooth="yes"/>
      <point x="180.4" y="315.55"/>
      <point x="197.5" y="289.95"/>
      <point x="197.5" y="239.05" type="curve" smooth="yes"/>
      <point x="197.5" y="187.0"/>
      <point x="174.0" y="94.80000000000001"/>
      <point x="97.75" y="94.80000000000001" type="curve" smooth="yes"/>
      <point x="64.55000000000001" y="94.80000000000001"/>
      <point x="42.800000000000004" y="108.2"/>
      <point x="26.3" y="123.7" type="curve"/>
    </contour>
  </outline>
</glyph>
<glyph name="six" format="2">
  <advance width="343.5"/>
  <unicode hex="0036"/>
  <note>
14
</note>
  <outline>
    <contour>
      <point x="140.10000000000002" y="-10.0" type="curve" smooth="yes"/>
      <point x="249.9" y="-10.0"/>
      <point x="316.8" y="122.10000000000001"/>
      <point x="316.8" y="302.8" type="curve" smooth="yes"/>
      <point x="316.8" y="395.90000000000003"/>
      <point x="274.4" y="434.4"/>
      <point x="223.5" y="434.4" type="curve" smooth="yes"/>
      <point x="183.5" y="434.4"/>
      <point x="153.9" y="416.9"/>
      <point x="123.70000000000002" y="374.40000000000003" type="curve"/>
      <point x="113.20000000000002" y="258.5" type="line"/>
      <point x="130.7" y="310.6"/>
      <point x="154.8" y="346.1"/>
      <point x="182.60000000000002" y="346.1" type="curve" smooth="yes"/>
      <point x="207.4" y="346.1"/>
      <point x="218.60000000000002" y="322.59999999999997"/>
      <point x="218.60000000000002" y="273.40000000000003" type="curve" smooth="yes"/>
      <point x="218.60000000000002" y="181.9"/>
      <point x="185.4" y="83.9"/>
      <point x="146.60000000000002" y="83.9" type="curve" smooth="yes"/>
      <point x="125.00000000000001" y="83.9"/>
      <point x="113.8" y="105.9"/>
      <point x="113.8" y="147.79999999999998" type="curve" smooth="yes"/>
      <point x="113.8" y="243.5"/>
      <point x="132.0" y="347.7"/>
      <point x="159.0" y="464.5" type="curve" smooth="yes"/>
      <point x="181.10000000000002" y="557.0999999999999"/>
      <point x="215.60000000000002" y="610.5999999999999"/>
      <point x="276.8" y="610.5999999999999" type="curve" smooth="yes"/>
      <point x="299.90000000000003" y="610.5999999999999"/>
      <point x="317.0" y="600.5"/>
      <point x="334.70000000000005" y="587.7" type="curve"/>
      <point x="378.5" y="675.4" type="line"/>
      <point x="359.0" y="693.1999999999999"/>
      <point x="322.3" y="710.0"/>
      <point x="276.90000000000003" y="710.0" type="curve" smooth="yes"/>
      <point x="106.00000000000001" y="710.0"/>
      <point x="18.800000000000004" y="444.3"/>
      <point x="18.800000000000004" y="161.3" type="curve" smooth="yes"/>
      <point x="18.800000000000004" y="38.2"/>
      <point x="60.4" y="-10.0"/>
    </contour>
  </outline>
</glyph>
<glyph name="seven" format="2">
  <advance width="343.5"/>
  <unicode hex="0037"/>
  <note>
9
</note>
  <outline>
    <contour>
      <point x="44.95" y="0.0" type="curve"/>
      <point x="148.65" y="0.0" type="line"/>
      <point x="168.85000000000002" y="118.45"/>
      <point x="193.4" y="212.55"/>
      <point x="267.55" y="390.55" type="curve" smooth="yes"/>
      <point x="364.15" y="621.95" type="line"/>
      <point x="376.5" y="700.0" type="line"/>
      <point x="96.35" y="700.0" type="line"/>
      <point x="80.15" y="598.05" type="line"/>
      <point x="256.25" y="598.05" type="line"/>
      <point x="170.1" y="404.65" type="line" smooth="yes"/>
      <point x="101.4" y="250.55"/>
      <point x="66.95" y="137.25"/>
    </contour>
  </outline>
</glyph>
<glyph name="eight" format="2">
  <advance width="343.5"/>
  <unicode hex="0038"/>
  <outline>
    <contour>
      <point x="144.4" y="-10.0" type="curve" smooth="yes"/>
      <point x="252.4" y="-10.0"/>
      <point x="311.20000000000005" y="69.49999999999999"/>
      <point x="311.20000000000005" y="199.1" type="curve" smooth="yes"/>
      <point x="311.20000000000005" y="369.3"/>
      <point x="162.1" y="407.1"/>
      <point x="162.1" y="537.1" type="curve" smooth="yes"/>
      <point x="162.1" y="580.4000000000001"/>
      <point x="179.5" y="615.0"/>
      <point x="219.7" y="615.0" type="curve" smooth="yes"/>
      <point x="250.7" y="615.0"/>
      <point x="262.5" y="589.5"/>
      <point x="262.5" y="548.9" type="curve" smooth="yes"/>
      <point x="262.5" y="485.0"/>
      <point x="229.2" y="440.9"/>
      <point x="187.7" y="409.5" type="curve"/>
      <point x="235.6" y="354.7" type="line"/>
      <point x="304.9" y="402.0"/>
      <point x="354.1" y="476.2"/>
      <point x="354.1" y="573.3000000000001" type="curve" smooth="yes"/>
      <point x="354.1" y="649.0"/>
      <point x="315.8" y="710.0"/>
      <point x="222.4" y="710.0" type="curve" smooth="yes"/>
      <point x="111.89999999999999" y="710.0"/>
      <point x="65.2" y="626.8000000000001"/>
      <point x="65.2" y="525.4" type="curve" smooth="yes"/>
      <point x="65.2" y="341.09999999999997"/>
      <point x="214.0" y="319.2"/>
      <point x="214.0" y="181.4" type="curve" smooth="yes"/>
      <point x="214.0" y="121.0"/>
      <point x="191.0" y="81.60000000000001"/>
      <point x="149.60000000000002" y="81.60000000000001" type="curve" smooth="yes"/>
      <point x="114.80000000000001" y="81.60000000000001"/>
      <point x="97.8" y="106.4"/>
      <point x="97.8" y="151.8" type="curve" smooth="yes"/>
      <point x="97.8" y="228.4"/>
      <point x="129.0" y="285.0"/>
      <point x="178.4" y="314.09999999999997" type="curve"/>
      <point x="127.39999999999999" y="375.0" type="line"/>
      <point x="44.4" y="333.3"/>
      <point x="-1.3999999999999995" y="237.79999999999998"/>
      <point x="-1.3999999999999995" y="138.0" type="curve" smooth="yes"/>
      <point x="-1.3999999999999995" y="49.400000000000006"/>
      <point x="39.0" y="-10.0"/>
    </contour>
  </outline>
</glyph>
<glyph name="nine" format="2">
  <advance width="343.5"/>
  <unicode hex="0039"/>
  <outline>
    <contour>
      <point x="228.60000000000002" y="710.0" type="curve" smooth="yes"/>
      <point x="118.8" y="710.0"/>
      <point x="51.0" y="577.9"/>
      <point x="51.0" y="397.2" type="curve" smooth="yes"/>
      <point x="51.0" y="304.09999999999997"/>
      <point x="90.7" y="266.5"/>
      <point x="140.70000000000002" y="266.5" type="curve" smooth="yes"/>
      <point x="181.6" y="266.5"/>
      <point x="214.79999999999998" y="280.4"/>
      <point x="244.1" y="334.59999999999997" type="curve"/>
      <point x="254.6" y="442.4" type="line"/>
      <point x="238.0" y="390.3"/>
      <point x="213.0" y="354.8"/>
      <point x="185.20000000000002" y="354.8" type="curve" smooth="yes"/>
      <point x="161.3" y="354.8"/>
      <point x="150.10000000000002" y="377.40000000000003"/>
      <point x="150.10000000000002" y="426.59999999999997" type="curve" smooth="yes"/>
      <point x="150.10000000000002" y="519.0"/>
      <point x="183.3" y="616.0999999999999"/>
      <point x="221.10000000000002" y="616.0999999999999" type="curve" smooth="yes"/>
      <point x="241.60000000000002" y="616.0999999999999"/>
      <point x="253.9" y="594.0"/>
      <point x="253.9" y="553.3000000000001" type="curve" smooth="yes"/>
      <point x="253.9" y="467.40000000000003"/>
      <point x="236.7" y="353.2"/>
      <point x="208.79999999999998" y="235.5" type="curve" smooth="yes"/>
      <point x="187.60000000000002" y="142.9"/>
      <point x="154.3" y="89.3"/>
      <point x="94.9" y="89.3" type="curve" smooth="yes"/>
      <point x="72.69999999999999" y="89.3"/>
      <point x="51.7" y="99.5"/>
      <point x="33.1" y="117.7" type="curve"/>
      <point x="-10.7" y="29.099999999999998" type="line"/>
      <point x="10.7" y="6.800000000000001"/>
      <point x="51.400000000000006" y="-10.0"/>
      <point x="99.10000000000001" y="-10.0" type="curve" smooth="yes"/>
      <point x="262.09999999999997" y="-10.0"/>
      <point x="348.90000000000003" y="255.70000000000002"/>
      <point x="348.90000000000003" y="539.5999999999999" type="curve" smooth="yes"/>
      <point x="348.90000000000003" y="662.7"/>
      <point x="307.40000000000003" y="710.0"/>
    </contour>
  </outline>
</glyph>
<glyph name="less" format="2">
  <advance width="363.55"/>
  <unicode hex="003C"/>
  <outline>
    <contour>
      <point x="306.65" y="99.45" type="line"/>
      <point x="320.1" y="187.45" type="line"/>
      <point x="121.9" y="301.65" type="line"/>
      <point x="356.75" y="416.85" type="line"/>
      <point x="370.2" y="505.2" type="line"/>
      <point x="41.7" y="351.4" type="line"/>
      <point x="26.15" y="253.7" type="line"/>
    </contour>
  </outline>
</glyph>
<glyph name="equal" format="2">
  <advance width="343.2"/>
  <unicode hex="003D"/>
  <outline>
    <contour>
      <point x="296.15" y="243.2" type="line"/>
      <point x="37.45" y="243.2" type="line"/>
      <point x="23.45" y="146.2" type="line"/>
      <point x="282.15" y="146.2" type="line"/>
    </contour>
    <contour>
      <point x="327.6" y="459.0" type="line"/>
      <point x="69.45" y="459.0" type="line"/>
      <point x="54.9" y="362.0" type="line"/>
      <point x="313.6" y="362.0" type="line"/>
    </contour>
  </outline>
</glyph>
<glyph name="greater" format="2">
  <advance width="363.55"/>
  <unicode hex="003E"/>
  <outline>
    <contour>
      <point x="330.6" y="252.35" type="line"/>
      <point x="346.15" y="350.05" type="line"/>
      <point x="65.75" y="504.3" type="line"/>
      <point x="52.3" y="416.85" type="line"/>
      <point x="251.5" y="302.1" type="line"/>
      <point x="16.1" y="187.9" type="line"/>
      <point x="2.1999999999999993" y="98.55" type="line"/>
    </contour>
  </outline>
</glyph>
<glyph name="question" format="2">
  <advance width="292.90000000000003"/>
  <unicode hex="003F"/>
  <outline>
    <contour>
      <point x="83.69999999999999" y="261.7" type="line"/>
      <point x="170.0" y="261.7" type="line"/>
      <point x="182.0" y="336.5" type="line"/>
      <point x="264.2" y="405.09999999999997"/>
      <point x="328.0" y="480.6"/>
      <point x="328.0" y="602.3000000000001" type="curve" smooth="yes"/>
      <point x="328.0" y="694.6999999999999"/>
      <point x="283.0" y="750.0"/>
      <point x="203.79999999999998" y="750.0" type="curve" smooth="yes"/>
      <point x="159.7" y="750.0"/>
      <point x="111.4" y="730.1"/>
      <point x="74.8" y="695.9" type="curve"/>
      <point x="98.1" y="600.3" type="line"/>
      <point x="124.6" y="624.5999999999999"/>
      <point x="146.1" y="637.4"/>
      <point x="170.10000000000002" y="637.4" type="curve" smooth="yes"/>
      <point x="198.79999999999998" y="637.4"/>
      <point x="219.7" y="620.4"/>
      <point x="219.7" y="572.5" type="curve" smooth="yes"/>
      <point x="219.7" y="490.6"/>
      <point x="174.4" y="440.7"/>
      <point x="101.2" y="383.9" type="curve"/>
    </contour>
    <contour>
      <point x="39.800000000000004" y="40.7" type="curve" smooth="yes"/>
      <point x="39.8" y="8.700000000000001"/>
      <point x="51.9" y="-5.500000000000001"/>
      <point x="83.8" y="-5.500000000000001" type="curve" smooth="yes"/>
      <point x="138.20000000000002" y="-5.500000000000001"/>
      <point x="153.3" y="45.00000000000001"/>
      <point x="153.3" y="91.2" type="curve" smooth="yes"/>
      <point x="153.3" y="124.30000000000001"/>
      <point x="140.4" y="138.6"/>
      <point x="109.4" y="138.6" type="curve" smooth="yes"/>
      <point x="55.800000000000004" y="138.6"/>
      <point x="39.8" y="87.9"/>
    </contour>
  </outline>
</glyph>
<glyph name="at" format="2">
  <advance width="592.1"/>
  <unicode hex="0040"/>
  <outline>
    <contour>
      <point x="242.40000000000003" y="-124.0" type="curve" smooth="yes"/>
      <point x="287.90000000000003" y="-124.0"/>
      <point x="349.0" y="-104.4"/>
      <point x="383.7" y="-70.9" type="curve"/>
      <point x="367.6" y="-30.9" type="line"/>
      <point x="331.2" y="-58.49999999999999"/>
      <point x="288.40000000000003" y="-73.79999999999998"/>
      <point x="243.4" y="-73.79999999999998" type="curve" smooth="yes"/>
      <point x="139.5" y="-73.79999999999998"/>
      <point x="65.10000000000001" y="-9.7"/>
      <point x="65.10000000000001" y="150.8" type="curve" smooth="yes"/>
      <point x="65.10000000000001" y="395.3"/>
      <point x="181.7" y="660.0"/>
      <point x="367.7" y="660.0" type="curve" smooth="yes"/>
      <point x="480.7" y="660.0"/>
      <point x="540.6" y="602.2"/>
      <point x="540.6" y="457.6" type="curve" smooth="yes"/>
      <point x="540.6" y="327.8"/>
      <point x="501.1" y="123.2"/>
      <point x="429.20000000000005" y="123.2" type="curve" smooth="yes"/>
      <point x="390.29999999999995" y="123.2"/>
      <point x="392.5" y="173.2"/>
      <point x="402.8" y="216.00000000000003" type="curve" smooth="yes"/>
      <point x="477.8" y="525.4" type="line"/>
      <point x="439.6" y="545.1"/>
      <point x="402.7" y="555.8000000000001"/>
      <point x="354.3" y="555.8000000000001" type="curve" smooth="yes"/>
      <point x="216.6" y="555.8000000000001"/>
      <point x="139.0" y="313.9"/>
      <point x="139.0" y="155.5" type="curve" smooth="yes"/>
      <point x="139.0" y="87.4"/>
      <point x="168.1" y="54.3"/>
      <point x="213.90000000000003" y="54.3" type="curve" smooth="yes"/>
      <point x="254.90000000000003" y="54.3"/>
      <point x="289.2" y="84.9"/>
      <point x="318.0" y="132.79999999999998" type="curve"/>
      <point x="330.2" y="97.0"/>
      <point x="347.1" y="52.1"/>
      <point x="408.20000000000005" y="52.1" type="curve" smooth="yes"/>
      <point x="529.0" y="52.1"/>
      <point x="593.9000000000001" y="287.29999999999995"/>
      <point x="593.9000000000001" y="468.09999999999997" type="curve" smooth="yes"/>
      <point x="593.9000000000001" y="629.6"/>
      <point x="503.40000000000003" y="710.0"/>
      <point x="377.6" y="710.0" type="curve" smooth="yes"/>
      <point x="147.60000000000002" y="710.0"/>
      <point x="10.7" y="431.1"/>
      <point x="10.7" y="137.2" type="curve" smooth="yes"/>
      <point x="10.7" y="-30.399999999999995"/>
      <point x="94.4" y="-124.0"/>
    </contour>
    <contour>
      <point x="263.0" y="152.7" type="curve" smooth="yes"/>
      <point x="249.5" y="152.7"/>
      <point x="241.70000000000002" y="165.1"/>
      <point x="241.70000000000002" y="187.8" type="curve" smooth="yes"/>
      <point x="241.70000000000002" y="280.9"/>
      <point x="303.70000000000005" y="477.1"/>
      <point x="347.70000000000005" y="477.1" type="curve" smooth="yes"/>
      <point x="357.3" y="477.1"/>
      <point x="366.7" y="475.09999999999997"/>
      <point x="375.2" y="470.3" type="curve"/>
      <point x="315.6" y="225.6" type="line" smooth="yes"/>
      <point x="302.3" y="179.2"/>
      <point x="280.8" y="152.7"/>
    </contour>
  </outline>
</glyph>
<glyph name="A" format="2">
  <advance width="352.45"/>
  <unicode hex="0041"/>
  <anchor x="131.15" y="0.0" name="bottom"/>
  <anchor x="298.35" y="0.0" name="ogonek"/>
  <anchor x="237.3" y="700.0" name="top"/>
  <outline>
    <contour>
      <point x="-33.9" y="0.0" type="line"/>
      <point x="67.05000000000001" y="0.0" type="line"/>
      <point x="110.2" y="152.25" type="line"/>
      <point x="201.25" y="152.25" type="line"/>
      <point x="196.3" y="0.0" type="line"/>
      <point x="298.35" y="0.0" type="line"/>
      <point x="314.3" y="704.5" type="line"/>
      <point x="164.2" y="704.5" type="line"/>
    </contour>
    <contour>
      <point x="132.7" y="248.8" type="line"/>
      <point x="224.9" y="607.6" type="line"/>
      <point x="210.05" y="248.8" type="line"/>
    </contour>
  </outline>
</glyph>
<glyph name="B" format="2">
  <advance width="335.35"/>
  <unicode hex="0042"/>
  <outline>
    <contour>
      <point x="-11.350000000000001" y="0.05000000000000071" type="line"/>
      <point x="36.5" y="-7.35"/>
      <point x="63.650000000000006" y="-10.0"/>
      <point x="110.6" y="-10.0" type="curve" smooth="yes"/>
      <point x="262.15" y="-10.0"/>
      <point x="313.25" y="128.95"/>
      <point x="313.25" y="249.2" type="curve" smooth="yes"/>
      <point x="313.25" y="312.6"/>
      <point x="292.3" y="355.65"/>
      <point x="257.8" y="373.6" type="curve"/>
      <point x="323.15" y="410.1"/>
      <point x="350.4" y="502.25"/>
      <point x="350.4" y="575.9" type="curve" smooth="yes"/>
      <point x="350.4" y="659.15"/>
      <point x="309.4" y="710.0"/>
      <point x="217.75" y="710.0" type="curve" smooth="yes"/>
      <point x="194.25" y="710.0"/>
      <point x="152.25" y="707.45"/>
      <point x="98.45" y="699.05" type="curve"/>
    </contour>
    <contour>
      <point x="148.60000000000002" y="397.0" type="line"/>
      <point x="182.55" y="613.75" type="line"/>
      <point x="193.05" y="616.2"/>
      <point x="202.55" y="617.75"/>
      <point x="212.25" y="617.75" type="curve" smooth="yes"/>
      <point x="242.15" y="617.75"/>
      <point x="257.7" y="599.2"/>
      <point x="257.7" y="549.2" type="curve" smooth="yes"/>
      <point x="257.7" y="474.85"/>
      <point x="225.8" y="397.0"/>
      <point x="175.05" y="397.0" type="curve" smooth="yes"/>
    </contour>
    <contour>
      <point x="134.60000000000002" y="307.6" type="line"/>
      <point x="169.65" y="307.6" type="line" smooth="yes"/>
      <point x="197.8" y="307.6"/>
      <point x="216.7" y="282.45"/>
      <point x="216.7" y="235.2" type="curve" smooth="yes"/>
      <point x="216.7" y="154.55"/>
      <point x="189.5" y="82.7"/>
      <point x="126.45" y="82.7" type="curve" smooth="yes"/>
      <point x="118.95" y="82.7"/>
      <point x="110.80000000000001" y="83.15"/>
      <point x="99.2" y="85.7" type="curve"/>
    </contour>
  </outline>
</glyph>
<glyph name="C" format="2">
  <advance width="291.8"/>
  <unicode hex="0043"/>
  <anchor x="150.75" y="0.0" name="bottom"/>
  <anchor x="259.15" y="700.0" name="top"/>
  <outline>
    <contour>
      <point x="173.3" y="-10.0" type="curve" smooth="yes"/>
      <point x="202.35" y="-10.0"/>
      <point x="225.85" y="-7.0"/>
      <point x="246.55" y="1.3000000000000003" type="curve"/>
      <point x="242.1" y="92.0" type="line"/>
      <point x="228.55" y="88.0"/>
      <point x="211.45" y="85.45"/>
      <point x="196.85" y="85.45" type="curve" smooth="yes"/>
      <point x="144.4" y="85.45"/>
      <point x="118.60000000000001" y="116.5"/>
      <point x="118.60000000000001" y="211.0" type="curve" smooth="yes"/>
      <point x="118.60000000000001" y="428.75"/>
      <point x="177.7" y="614.55"/>
      <point x="269.6" y="614.55" type="curve" smooth="yes"/>
      <point x="286.15" y="614.55"/>
      <point x="298.85" y="611.55"/>
      <point x="317.75" y="604.45" type="curve"/>
      <point x="349.5" y="690.65" type="line"/>
      <point x="328.35" y="703.7"/>
      <point x="296.8" y="710.0"/>
      <point x="264.9" y="710.0" type="curve" smooth="yes"/>
      <point x="116.3" y="710.0"/>
      <point x="19.299999999999997" y="498.5"/>
      <point x="19.299999999999997" y="192.95" type="curve" smooth="yes"/>
      <point x="19.299999999999997" y="53.55"/>
      <point x="72.3" y="-10.0"/>
    </contour>
  </outline>
</glyph>
<glyph name="D" format="2">
  <advance width="353.85"/>
  <unicode hex="0044"/>
  <anchor x="125.25" y="0.0" name="bottom"/>
  <anchor x="188.23345" y="350.0" name="center"/>
  <anchor x="222.15" y="700.0" name="top"/>
  <outline>
    <contour>
      <point x="105.15" y="-10.0" type="curve" smooth="yes"/>
      <point x="268.3" y="-10.0"/>
      <point x="354.65" y="199.6"/>
      <point x="354.65" y="477.55" type="curve" smooth="yes"/>
      <point x="354.65" y="643.95"/>
      <point x="304.3" y="710.0"/>
      <point x="196.4" y="710.0" type="curve" smooth="yes"/>
      <point x="163.9" y="710.0"/>
      <point x="136.05" y="707.9"/>
      <point x="98.45" y="702.05" type="curve"/>
      <point x="-12.450000000000001" y="0.05000000000000071" type="line"/>
      <point x="23.6" y="-6.8"/>
      <point x="62.35" y="-10.0"/>
    </contour>
    <contour>
      <point x="120.35000000000001" y="79.60000000000001" type="curve" smooth="yes"/>
      <point x="111.75" y="79.60000000000001"/>
      <point x="105.05000000000001" y="80.60000000000001"/>
      <point x="97.65" y="82.05000000000001" type="curve"/>
      <point x="182.0" y="612.45" type="line"/>
      <point x="190.05" y="613.45"/>
      <point x="195.75" y="614.0"/>
      <point x="202.45" y="614.0" type="curve" smooth="yes"/>
      <point x="242.85" y="614.0"/>
      <point x="257.0" y="578.1"/>
      <point x="257.0" y="477.75" type="curve" smooth="yes"/>
      <point x="257.0" y="291.45"/>
      <point x="193.55" y="79.60000000000001"/>
    </contour>
  </outline>
</glyph>
<glyph name="E" format="2">
  <advance width="286.75"/>
  <unicode hex="0045"/>
  <anchor x="112.0" y="0.0" name="bottom"/>
  <anchor x="232.3" y="0.0" name="ogonek"/>
  <anchor x="219.2" y="700.0" name="top"/>
  <anchor x="86.27215" y="700.0" name="topleft"/>
  <outline>
    <contour>
      <point x="-12.0" y="0.0" type="line"/>
      <point x="232.3" y="0.0" type="line"/>
      <point x="247.4" y="95.45" type="line"/>
      <point x="100.2" y="95.45" type="line"/>
      <point x="133.95" y="310.0" type="line"/>
      <point x="253.75" y="310.0" type="line"/>
      <point x="268.85" y="399.95" type="line"/>
      <point x="148.5" y="399.95" type="line"/>
      <point x="180.0" y="601.8" type="line"/>
      <point x="318.2" y="601.8" type="line"/>
      <point x="334.85" y="700.0" type="line"/>
      <point x="98.0" y="700.0" type="line"/>
    </contour>
  </outline>
</glyph>
<glyph name="F" format="2">
  <advance width="275.15"/>
  <unicode hex="0046"/>
  <outline>
    <contour>
      <point x="-12.55" y="0.0" type="line"/>
      <point x="84.65" y="0.0" type="line"/>
      <point x="129.1" y="277.4" type="line"/>
      <point x="239.7" y="277.4" type="line"/>
      <point x="255.35000000000002" y="375.6" type="line"/>
      <point x="144.2" y="375.6" type="line"/>
      <point x="180.0" y="601.8" type="line"/>
      <point x="317.55" y="601.8" type="line"/>
      <point x="333.75" y="700.0" type="line"/>
      <point x="98.0" y="700.0" type="line"/>
    </contour>
  </outline>
</glyph>
<glyph name="G" format="2">
  <advance width="328.95"/>
  <unicode hex="0047"/>
  <anchor x="166.15" y="0.0" name="bottom"/>
  <anchor x="262.1" y="700.0" name="top"/>
  <outline>
    <contour>
      <point x="171.3" y="-10.0" type="curve" smooth="yes"/>
      <point x="201.6" y="-10.0"/>
      <point x="240.5" y="-3.1499999999999995"/>
      <point x="265.7" y="15.150000000000002" type="curve"/>
      <point x="323.55" y="380.8" type="line"/>
      <point x="185.35" y="380.8" type="line"/>
      <point x="171.9" y="294.7" type="line"/>
      <point x="222.9" y="294.7" type="line"/>
      <point x="189.3" y="84.05000000000001" type="line"/>
      <point x="185.05" y="82.05000000000001"/>
      <point x="175.6" y="81.05000000000001"/>
      <point x="168.8" y="81.05000000000001" type="curve" smooth="yes"/>
      <point x="131.2" y="81.05000000000001"/>
      <point x="113.65" y="109.9"/>
      <point x="113.65" y="198.9" type="curve" smooth="yes"/>
      <point x="113.65" y="413.35"/>
      <point x="171.65" y="614.0"/>
      <point x="265.75" y="614.0" type="curve" smooth="yes"/>
      <point x="291.1" y="614.0"/>
      <point x="312.6" y="606.05"/>
      <point x="330.95" y="599.5" type="curve"/>
      <point x="361.6" y="689.55" type="line"/>
      <point x="334.3" y="703.35"/>
      <point x="299.0" y="710.0"/>
      <point x="264.35" y="710.0" type="curve" smooth="yes"/>
      <point x="91.65" y="710.0"/>
      <point x="18.75" y="442.95"/>
      <point x="18.75" y="193.5" type="curve" smooth="yes"/>
      <point x="18.75" y="55.75"/>
      <point x="72.85" y="-10.0"/>
    </contour>
  </outline>
</glyph>
<glyph name="H" format="2">
  <advance width="356.05"/>
  <unicode hex="0048"/>
  <anchor x="134.4942" y="0.0" name="bottom"/>
  <anchor x="190.18345" y="350.0" name="center"/>
  <anchor x="245.42215" y="700.0" name="top"/>
  <anchor x="86.27215" y="700.0" name="topleft"/>
  <outline>
    <contour>
      <point x="-12.55" y="0.0" type="line"/>
      <point x="85.55000000000001" y="0.0" type="line"/>
      <point x="127.15" y="264.6" type="line"/>
      <point x="225.0" y="264.6" type="line"/>
      <point x="183.95" y="0.0" type="line"/>
      <point x="281.05" y="0.0" type="line"/>
      <point x="392.05" y="700.0" type="line"/>
      <point x="294.4" y="700.0" type="line"/>
      <point x="240.1" y="358.4" type="line"/>
      <point x="141.8" y="358.4" type="line"/>
      <point x="196.10000000000002" y="700.0" type="line"/>
      <point x="98.0" y="700.0" type="line"/>
    </contour>
  </outline>
</glyph>
<glyph name="I" format="2">
  <advance width="160.1"/>
  <unicode hex="0049"/>
  <anchor x="36.294200000000004" y="0.0" name="bottom"/>
  <anchor x="86.7654" y="5.5" name="ogonek"/>
  <anchor x="147.22215" y="700.0" name="top"/>
  <anchor x="86.27215" y="700.0" name="topleft"/>
  <outline>
    <contour>
      <point x="-12.55" y="0.0" type="line"/>
      <point x="85.10000000000001" y="0.0" type="line"/>
      <point x="196.10000000000002" y="700.0" type="line"/>
      <point x="98.0" y="700.0" type="line"/>
    </contour>
  </outline>
</glyph>
<glyph name="J" format="2">
  <advance width="245.6"/>
  <unicode hex="004A"/>
  <anchor x="57.494200000000006" y="0.0" name="bottom"/>
  <anchor x="191.1" y="700.0" name="top"/>
  <outline>
    <contour>
      <point x="-39.0" y="11.850000000000001" type="line"/>
      <point x="-16.6" y="-0.29999999999999893"/>
      <point x="10.5" y="-10.0"/>
      <point x="48.150000000000006" y="-10.0" type="curve" smooth="yes"/>
      <point x="134.6" y="-10.0"/>
      <point x="181.15" y="52.35"/>
      <point x="197.75" y="155.85" type="curve" smooth="yes"/>
      <point x="284.05" y="700.0" type="line"/>
      <point x="93.65" y="700.0" type="line"/>
      <point x="79.1" y="608.95" type="line"/>
      <point x="171.85" y="608.95" type="line"/>
      <point x="105.7" y="194.65" type="line" smooth="yes"/>
      <point x="93.05" y="116.2"/>
      <point x="70.5" y="95.35000000000001"/>
      <point x="29.25" y="95.35000000000001" type="curve" smooth="yes"/>
      <point x="18.0" y="95.35000000000001"/>
      <point x="1.3500000000000014" y="99.45"/>
      <point x="-11.45" y="104.45" type="curve"/>
    </contour>
  </outline>
</glyph>
<glyph name="K" format="2">
  <advance width="347.20000000000005"/>
  <unicode hex="004B"/>
  <anchor x="147.8" y="0.0" name="bottom"/>
  <anchor x="238.8" y="700.0" name="top"/>
  <outline>
    <contour>
      <point x="-13.0" y="0.0" type="line"/>
      <point x="85.1" y="0.0" type="line"/>
      <point x="196.1" y="700.0" type="line"/>
      <point x="98.0" y="700.0" type="line"/>
    </contour>
    <contour>
      <point x="263.1" y="-10.0" type="curve" smooth="yes"/>
      <point x="276.90000000000003" y="-10.0"/>
      <point x="296.2" y="-4.6"/>
      <point x="303.40000000000003" y="-0.5999999999999996" type="curve"/>
      <point x="313.40000000000003" y="119.60000000000001" type="line"/>
      <point x="310.3" y="119.60000000000002"/>
      <point x="306.3" y="118.70000000000002"/>
      <point x="302.3" y="118.70000000000002" type="curve" smooth="yes"/>
      <point x="285.70000000000005" y="118.70000000000002"/>
      <point x="264.90000000000003" y="129.10000000000002"/>
      <point x="244.3" y="186.9" type="curve" smooth="yes"/>
      <point x="145.5" y="465.6" type="line"/>
      <point x="115.19999999999999" y="298.6" type="line"/>
      <point x="190.0" y="76.3" type="line" smooth="yes"/>
      <point x="212.0" y="10.000000000000002"/>
      <point x="228.7" y="-10.0"/>
    </contour>
    <contour>
      <point x="192.9" y="279.5" type="line"/>
      <point x="275.1" y="376.2"/>
      <point x="357.20000000000005" y="514.8000000000001"/>
      <point x="398.5" y="680.3000000000001" type="curve"/>
      <point x="315.2" y="704.5" type="line"/>
      <point x="273.8" y="556.5"/>
      <point x="210.20000000000002" y="434.20000000000005"/>
      <point x="158.5" y="369.3" type="curve"/>
    </contour>
  </outline>
</glyph>
<glyph name="L" format="2">
  <advance width="265.35"/>
  <unicode hex="004C"/>
  <anchor x="107.45" y="0.0" name="bottom"/>
  <anchor x="139.43345" y="350.0" name="center"/>
  <anchor x="146.6" y="700.0" name="top"/>
  <anchor x="243.7" y="700.0" name="topright"/>
  <outline>
    <contour>
      <point x="-13.0" y="0.0" type="line"/>
      <point x="213.15" y="0.0" type="line"/>
      <point x="228.25" y="95.45" type="line"/>
      <point x="99.75" y="95.45" type="line"/>
      <point x="195.65" y="700.0" type="line"/>
      <point x="98.0" y="700.0" type="line"/>
    </contour>
  </outline>
</glyph>
<glyph name="M" format="2">
  <advance width="416.15"/>
  <unicode hex="004D"/>
  <outline>
    <contour>
      <point x="-12.55" y="0.0" type="line"/>
      <point x="76.30000000000001" y="0.0" type="line"/>
      <point x="154.65" y="501.4" type="line"/>
      <point x="168.75" y="196.14999999999998" type="line"/>
      <point x="218.8" y="196.14999999999998" type="line"/>
      <point x="331.0" y="499.0" type="line"/>
      <point x="251.75" y="0.0" type="line"/>
      <point x="341.15" y="0.0" type="line"/>
      <point x="452.15" y="700.0" type="line"/>
      <point x="341.45" y="700.0" type="line"/>
      <point x="218.95" y="367.45" type="line"/>
      <point x="201.55" y="700.0" type="line"/>
      <point x="98.0" y="700.0" type="line"/>
    </contour>
  </outline>
</glyph>
<glyph name="N" format="2">
  <advance width="364.05"/>
  <unicode hex="004E"/>
  <anchor x="145.65" y="0.0" name="bottom"/>
  <anchor x="249.3" y="700.0" name="top"/>
  <outline>
    <contour>
      <point x="-12.55" y="0.0" type="line"/>
      <point x="75.75" y="0.0" type="line"/>
      <point x="147.5" y="452.7" type="line"/>
      <point x="189.5" y="0.0" type="line"/>
      <point x="289.05" y="0.0" type="line"/>
      <point x="400.05" y="700.0" type="line"/>
      <point x="311.75" y="700.0" type="line"/>
      <point x="236.6" y="229.4" type="line"/>
      <point x="198.45" y="700.0" type="line"/>
      <point x="98.0" y="700.0" type="line"/>
    </contour>
  </outline>
</glyph>
<glyph name="O" format="2">
  <advance width="363.90000000000003"/>
  <unicode hex="004F"/>
  <note>
8
</note>
  <anchor x="138.9" y="0.0" name="bottom"/>
  <anchor x="193.9" y="350.0" name="center"/>
  <anchor x="194.00000000000003" y="2.1" name="ogonek"/>
  <anchor x="251.5" y="700.0" name="top"/>
  <anchor x="88.9" y="700.0" name="topleft"/>
  <anchor x="325.5" y="700.0" name="topright"/>
  <outline>
    <contour>
      <point x="143.5" y="-10.0" type="curve" smooth="yes"/>
      <point x="319.3" y="-10.0"/>
      <point x="372.2" y="344.7"/>
      <point x="372.2" y="534.9" type="curve" smooth="yes"/>
      <point x="372.2" y="662.9"/>
      <point x="330.20000000000005" y="710.0"/>
      <point x="244.4" y="710.0" type="curve" smooth="yes"/>
      <point x="68.6" y="710.0"/>
      <point x="15.699999999999998" y="355.3"/>
      <point x="15.699999999999998" y="165.1" type="curve" smooth="yes"/>
      <point x="15.699999999999998" y="37.1"/>
      <point x="57.7" y="-10.0"/>
    </contour>
    <contour>
      <point x="152.2" y="91.7" type="curve" smooth="yes"/>
      <point x="126.9" y="91.7"/>
      <point x="114.7" y="105.7"/>
      <point x="114.7" y="162.5" type="curve" smooth="yes"/>
      <point x="114.7" y="274.4"/>
      <point x="162.20000000000002" y="608.3"/>
      <point x="235.7" y="608.3" type="curve" smooth="yes"/>
      <point x="261.0" y="608.3"/>
      <point x="273.2" y="594.3"/>
      <point x="273.2" y="537.5" type="curve" smooth="yes"/>
      <point x="273.2" y="425.6"/>
      <point x="225.70000000000002" y="91.7"/>
    </contour>
  </outline>
</glyph>
<glyph name="P" format="2">
  <advance width="333.1"/>
  <unicode hex="0050"/>
  <outline>
    <contour>
      <point x="-12.0" y="0.0" type="line"/>
      <point x="85.65" y="0.0" type="line"/>
      <point x="120.55000000000001" y="219.1" type="line"/>
      <point x="136.0" y="216.45"/>
      <point x="141.8" y="216.45"/>
      <point x="168.65" y="216.45" type="curve" smooth="yes"/>
      <point x="277.95" y="216.45"/>
      <point x="356.55" y="359.25"/>
      <point x="356.55" y="550.6" type="curve" smooth="yes"/>
      <point x="356.55" y="661.05"/>
      <point x="316.1" y="710.0"/>
      <point x="225.25" y="710.0" type="curve" smooth="yes"/>
      <point x="191.95" y="710.0"/>
      <point x="141.8" y="707.45"/>
      <point x="99.0" y="702.9" type="curve"/>
    </contour>
    <contour>
      <point x="183.1" y="612.75" type="line"/>
      <point x="192.25" y="615.2"/>
      <point x="201.4" y="616.2"/>
      <point x="211.8" y="616.2" type="curve" smooth="yes"/>
      <point x="246.45" y="616.2"/>
      <point x="261.1" y="594.6"/>
      <point x="261.1" y="534.05" type="curve" smooth="yes"/>
      <point x="261.1" y="421.55"/>
      <point x="216.55" y="310.25"/>
      <point x="163.15" y="310.25" type="curve" smooth="yes"/>
      <point x="154.1" y="310.25"/>
      <point x="145.15" y="310.7"/>
      <point x="135.10000000000002" y="312.25" type="curve"/>
    </contour>
  </outline>
</glyph>
<glyph name="Q" format="2">
  <advance width="362.55"/>
  <unicode hex="0051"/>
  <note>
14
</note>
  <outline>
    <contour>
      <point x="248.95" y="-169.55" type="curve" smooth="yes"/>
      <point x="264.15" y="-169.55"/>
      <point x="281.15" y="-168.0"/>
      <point x="296.05" y="-163.1" type="curve"/>
      <point x="305.25" y="-74.05" type="line"/>
      <point x="294.9" y="-77.5"/>
      <point x="281.55" y="-79.5"/>
      <point x="268.55" y="-79.5" type="curve" smooth="yes"/>
      <point x="227.10000000000002" y="-79.5"/>
      <point x="195.9" y="-59.349999999999994"/>
      <point x="195.8" y="10.450000000000001" type="curve"/>
      <point x="117.3" y="9.55" type="line"/>
      <point x="114.1" y="-130.2"/>
      <point x="183.6" y="-169.55"/>
    </contour>
    <component base="O"/>
  </outline>
</glyph>
<glyph name="R" format="2">
  <advance width="341.40000000000003"/>
  <unicode hex="0052"/>
  <anchor x="143.10000000000002" y="0.0" name="bottom"/>
  <anchor x="216.0" y="700.0" name="top"/>
  <outline>
    <contour>
      <point x="-13.0" y="0.0" type="line"/>
      <point x="85.1" y="0.0" type="line"/>
      <point x="124.3" y="249.89999999999998" type="line"/>
      <point x="130.1" y="249.89999999999998"/>
      <point x="136.70000000000002" y="249.0"/>
      <point x="164.1" y="249.0" type="curve"/>
      <point x="163.79999999999998" y="250.39999999999998" type="line"/>
      <point x="272.3" y="250.39999999999998"/>
      <point x="359.1" y="369.7"/>
      <point x="359.1" y="541.2" type="curve" smooth="yes"/>
      <point x="359.1" y="653.0999999999999"/>
      <point x="307.3" y="710.0"/>
      <point x="215.8" y="710.0" type="curve" smooth="yes"/>
      <point x="171.5" y="710.0"/>
      <point x="136.29999999999998" y="706.8000000000001"/>
      <point x="98.89999999999999" y="701.7" type="curve"/>
    </contour>
    <contour>
      <point x="254.8" y="-10.0" type="curve" smooth="yes"/>
      <point x="265.09999999999997" y="-10.0"/>
      <point x="286.3" y="-5.8999999999999995"/>
      <point x="293.8" y="-1.5999999999999996" type="curve"/>
      <point x="302.90000000000003" y="105.5" type="line"/>
      <point x="299.0" y="104.60000000000001"/>
      <point x="296.0" y="104.60000000000001"/>
      <point x="293.90000000000003" y="104.60000000000001" type="curve" smooth="yes"/>
      <point x="266.8" y="104.60000000000001"/>
      <point x="253.4" y="128.3"/>
      <point x="229.1" y="299.8" type="curve"/>
      <point x="148.4" y="276.1" type="line"/>
      <point x="189.9" y="3.7999999999999994"/>
      <point x="208.5" y="-10.0"/>
    </contour>
    <contour>
      <point x="162.9" y="339.3" type="curve" smooth="yes"/>
      <point x="154.4" y="339.3"/>
      <point x="145.8" y="340.29999999999995"/>
      <point x="138.20000000000002" y="341.29999999999995" type="curve"/>
      <point x="183.0" y="614.3000000000001" type="line"/>
      <point x="194.5" y="617.2"/>
      <point x="204.20000000000002" y="618.2"/>
      <point x="212.79999999999998" y="618.2" type="curve" smooth="yes"/>
      <point x="247.60000000000002" y="618.2"/>
      <point x="261.9" y="591.0"/>
      <point x="261.9" y="542.1" type="curve" smooth="yes"/>
      <point x="261.9" y="422.5"/>
      <point x="215.4" y="339.3"/>
    </contour>
  </outline>
</glyph>
<glyph name="S" format="2">
  <advance width="308.85"/>
  <unicode hex="0053"/>
  <anchor x="109.45" y="0.0" name="bottom"/>
  <anchor x="231.15" y="700.0" name="top"/>
  <outline>
    <contour>
      <point x="337.7" y="683.9" type="line"/>
      <point x="314.45" y="699.5"/>
      <point x="276.95" y="710.0"/>
      <point x="232.5" y="710.0" type="curve" smooth="yes"/>
      <point x="127.15" y="710.0"/>
      <point x="54.05" y="631.9"/>
      <point x="54.05" y="504.7" type="curve" smooth="yes"/>
      <point x="54.05" y="360.15"/>
      <point x="180.95" y="283.0"/>
      <point x="180.95" y="186.25" type="curve" smooth="yes"/>
      <point x="180.95" y="128.8"/>
      <point x="147.7" y="85.9"/>
      <point x="93.25" y="85.9" type="curve" smooth="yes"/>
      <point x="63.150000000000006" y="85.9"/>
      <point x="40.300000000000004" y="92.65"/>
      <point x="6.25" y="108.15" type="curve"/>
      <point x="-26.75" y="20.3" type="line"/>
      <point x="2.5500000000000007" y="0.40000000000000036"/>
      <point x="46.5" y="-10.0"/>
      <point x="96.95" y="-10.0" type="curve" smooth="yes"/>
      <point x="203.25" y="-10.0"/>
      <point x="279.05" y="73.35"/>
      <point x="279.05" y="190.7" type="curve" smooth="yes"/>
      <point x="279.05" y="337.0"/>
      <point x="155.45" y="414.9"/>
      <point x="155.45" y="511.1" type="curve" smooth="yes"/>
      <point x="155.45" y="578.75"/>
      <point x="190.2" y="615.0"/>
      <point x="239.95" y="615.0" type="curve" smooth="yes"/>
      <point x="262.95" y="615.0"/>
      <point x="284.85" y="610.9"/>
      <point x="306.8" y="599.7" type="curve"/>
    </contour>
  </outline>
</glyph>
<glyph name="T" format="2">
  <advance width="297.9"/>
  <unicode hex="0054"/>
  <anchor x="105.1942" y="0.0" name="bottom"/>
  <anchor x="160.88344999999998" y="350.0" name="center"/>
  <anchor x="216.12215" y="700.0" name="top"/>
  <outline>
    <contour>
      <point x="343.7" y="607.85" type="line"/>
      <point x="358.8" y="700.0" type="line"/>
      <point x="73.65" y="700.0" type="line"/>
      <point x="58.55" y="607.85" type="line"/>
      <point x="152.35" y="607.85" type="line"/>
      <point x="55.9" y="0.0" type="line"/>
      <point x="153.55" y="0.0" type="line"/>
      <point x="250.0" y="607.85" type="line"/>
    </contour>
  </outline>
</glyph>
<glyph name="U" format="2">
  <advance width="348.5"/>
  <unicode hex="0055"/>
  <anchor x="130.4942" y="0.0" name="bottom"/>
  <anchor x="180.7" y="0.0" name="ogonek"/>
  <anchor x="240.52215" y="700.0" name="top"/>
  <anchor x="370.45" y="700.0" name="topright"/>
  <outline>
    <contour>
      <point x="127.15" y="-10.0" type="curve" smooth="yes"/>
      <point x="228.4" y="-10.0"/>
      <point x="282.6" y="46.45"/>
      <point x="303.0" y="173.4" type="curve" smooth="yes"/>
      <point x="386.95" y="700.0" type="line"/>
      <point x="288.85" y="700.0" type="line"/>
      <point x="202.15" y="152.5" type="line" smooth="yes"/>
      <point x="195.2" y="105.35"/>
      <point x="177.05" y="82.7"/>
      <point x="144.25" y="82.7" type="curve" smooth="yes"/>
      <point x="113.35000000000001" y="82.7"/>
      <point x="99.45" y="105.1"/>
      <point x="106.05000000000001" y="143.5" type="curve" smooth="yes"/>
      <point x="193.75" y="700.0" type="line"/>
      <point x="96.1" y="700.0" type="line"/>
      <point x="11.25" y="162.15" type="line" smooth="yes"/>
      <point x="7.6" y="140.15"/>
      <point x="6.5" y="128.8"/>
      <point x="6.5" y="112.7" type="curve" smooth="yes"/>
      <point x="6.5" y="31.15"/>
      <point x="47.3" y="-10.0"/>
    </contour>
  </outline>
</glyph>
<glyph name="V" format="2">
  <advance width="350.0"/>
  <unicode hex="0056"/>
  <outline>
    <contour>
      <point x="193.10000000000002" y="0.0" type="line"/>
      <point x="337.45" y="379.2"/>
      <point x="384.05" y="512.3"/>
      <point x="399.45" y="669.35" type="curve" smooth="yes"/>
      <point x="400.0" y="680.05"/>
      <point x="400.1" y="688.85"/>
      <point x="398.75" y="700.0" type="curve"/>
      <point x="290.55" y="700.0" type="line"/>
      <point x="291.45" y="690.95"/>
      <point x="291.9" y="683.7"/>
      <point x="291.9" y="676.0" type="curve" smooth="yes"/>
      <point x="284.75" y="540.05"/>
      <point x="250.15" y="427.65"/>
      <point x="150.05" y="112.80000000000001" type="curve"/>
      <point x="184.10000000000002" y="700.0" type="line"/>
      <point x="70.05" y="700.0" type="line"/>
      <point x="60.0" y="0.0" type="line"/>
    </contour>
  </outline>
</glyph>
<glyph name="W" format="2">
  <advance width="536.7"/>
  <unicode hex="0057"/>
  <anchor x="221.8" y="0.0" name="bottom"/>
  <anchor x="338.40000000000003" y="700.0" name="top"/>
  <outline>
    <contour>
      <point x="392.6" y="-0.8999999999999999" type="line"/>
      <point x="547.9" y="462.90000000000003"/>
      <point x="581.2" y="580.0999999999999"/>
      <point x="585.6" y="673.0" type="curve" smooth="yes"/>
      <point x="585.6" y="682.6"/>
      <point x="585.6" y="690.4"/>
      <point x="583.8000000000001" y="700.0" type="curve"/>
      <point x="479.0" y="700.0" type="line"/>
      <point x="479.9" y="691.3000000000001"/>
      <point x="480.8" y="683.6"/>
      <point x="480.8" y="675.9" type="curve" smooth="yes"/>
      <point x="477.4" y="557.0"/>
      <point x="453.20000000000005" y="481.40000000000003"/>
      <point x="348.4" y="133.5" type="curve"/>
      <point x="383.40000000000003" y="642.1999999999999" type="line"/>
      <point x="279.20000000000005" y="642.1999999999999" type="line"/>
      <point x="240.1" y="477.4"/>
      <point x="187.2" y="282.1"/>
      <point x="142.2" y="136.1" type="curve"/>
      <point x="178.4" y="700.0" type="line"/>
      <point x="71.4" y="700.0" type="line"/>
      <point x="49.400000000000006" y="-0.8999999999999999" type="line"/>
      <point x="161.8" y="-0.8999999999999999" type="line"/>
      <point x="219.3" y="170.29999999999998"/>
      <point x="265.3" y="320.0"/>
      <point x="301.4" y="456.09999999999997" type="curve"/>
      <point x="272.79999999999995" y="-0.8999999999999999" type="line"/>
    </contour>
  </outline>
</glyph>
<glyph name="X" format="2">
  <advance width="360.8"/>
  <unicode hex="0058"/>
  <outline>
    <contour>
      <point x="217.8" y="-2.6999999999999997" type="line"/>
      <point x="321.9" y="-0.8999999999999999" type="line"/>
      <point x="260.1" y="324.5" type="line"/>
      <point x="331.2" y="482.20000000000005"/>
      <point x="401.70000000000005" y="610.3000000000001"/>
      <point x="401.70000000000005" y="700.0" type="curve"/>
      <point x="298.5" y="700.0" type="line"/>
      <point x="298.5" y="613.1"/>
      <point x="254.2" y="526.5"/>
      <point x="210.5" y="424.70000000000005" type="curve"/>
      <point x="166.2" y="703.6" type="line"/>
      <point x="67.2" y="701.8" type="line"/>
      <point x="125.3" y="371.59999999999997" type="line"/>
      <point x="49.99999999999999" y="223.6"/>
      <point x="-20.7" y="106.89999999999999"/>
      <point x="-20.7" y="0.0" type="curve"/>
      <point x="84.9" y="0.0" type="line"/>
      <point x="84.9" y="88.19999999999999"/>
      <point x="119.9" y="163.3"/>
      <point x="171.9" y="275.0" type="curve"/>
    </contour>
  </outline>
</glyph>
<glyph name="Y" format="2">
  <advance width="337.6"/>
  <unicode hex="0059"/>
  <anchor x="125.5" y="0.0" name="bottom"/>
  <anchor x="236.05" y="700.0" name="top"/>
  <anchor x="92.45" y="700.0" name="topleft"/>
  <outline>
    <contour>
      <point x="72.6" y="0.0" type="line"/>
      <point x="168.60000000000002" y="0.0" type="line"/>
      <point x="210.25" y="256.15" type="line"/>
      <point x="285.45" y="382.8"/>
      <point x="346.25" y="509.35"/>
      <point x="392.05" y="663.15" type="curve" smooth="yes"/>
      <point x="395.05" y="675.4"/>
      <point x="398.15" y="688.2"/>
      <point x="400.7" y="700.45" type="curve"/>
      <point x="289.2" y="702.25" type="line"/>
      <point x="287.75" y="691.0"/>
      <point x="285.75" y="679.2"/>
      <point x="283.3" y="667.95" type="curve" smooth="yes"/>
      <point x="259.4" y="554.7"/>
      <point x="226.55" y="452.8"/>
      <point x="180.5" y="358.3" type="curve"/>
      <point x="182.65" y="701.8" type="line"/>
      <point x="69.5" y="700.45" type="line"/>
      <point x="113.35" y="256.15" type="line"/>
    </contour>
  </outline>
</glyph>
<glyph name="Z" format="2">
  <advance width="307.8"/>
  <unicode hex="005A"/>
  <anchor x="112.19999999999999" y="0.0" name="bottom"/>
  <anchor x="164.60000000000002" y="350.0" name="center"/>
  <anchor x="222.29999999999998" y="700.0" name="top"/>
  <outline>
    <contour>
      <point x="-32.1" y="0.0" type="line"/>
      <point x="253.4" y="0.0" type="line"/>
      <point x="269.5" y="93.8" type="line"/>
      <point x="81.5" y="93.8" type="line"/>
      <point x="344.90000000000003" y="603.5" type="line"/>
      <point x="360.1" y="700.0" type="line"/>
      <point x="92.5" y="700.0" type="line"/>
      <point x="77.3" y="606.1999999999999" type="line"/>
      <point x="247.4" y="606.1999999999999" type="line"/>
      <point x="-17.0" y="94.20000000000002" type="line"/>
    </contour>
  </outline>
</glyph>
<glyph name="bracketleft" format="2">
  <advance width="204.35"/>
  <unicode hex="005B"/>
  <outline>
    <contour>
      <point x="49.900000000000006" y="-120.5" type="line"/>
      <point x="174.0" y="650.5" type="line"/>
      <point x="255.7" y="650.5" type="line"/>
      <point x="270.8" y="740.0" type="line"/>
      <point x="106.95" y="740.0" type="line"/>
      <point x="-46.900000000000006" y="-210.0" type="line"/>
      <point x="115.95" y="-210.0" type="line"/>
      <point x="131.6" y="-120.5" type="line"/>
    </contour>
  </outline>
</glyph>
<glyph name="backslash" format="2">
  <advance width="303.4"/>
  <unicode hex="005C"/>
  <outline>
    <contour>
      <point x="155.25" y="740.0" type="line"/>
      <point x="72.35" y="740.0" type="line"/>
      <point x="186.25" y="-210.0" type="line"/>
      <point x="268.6" y="-210.0" type="line"/>
    </contour>
  </outline>
</glyph>
<glyph name="bracketright" format="2">
  <advance width="204.35"/>
  <unicode hex="005D"/>
  <outline>
    <contour>
      <point x="-53.9" y="-120.5" type="line"/>
      <point x="-69.0" y="-210.0" type="line"/>
      <point x="93.4" y="-210.0" type="line"/>
      <point x="248.25" y="740.0" type="line"/>
      <point x="84.85" y="740.0" type="line"/>
      <point x="69.2" y="650.5" type="line"/>
      <point x="150.9" y="650.5" type="line"/>
      <point x="26.25" y="-120.5" type="line"/>
    </contour>
  </outline>
</glyph>
<glyph name="asciicircum" format="2">
  <advance width="365.95"/>
  <unicode hex="005E"/>
  <outline>
    <contour>
      <point x="40.6" y="258.65" type="line"/>
      <point x="110.75" y="258.65" type="line"/>
      <point x="232.9" y="593.4" type="line"/>
      <point x="251.15" y="258.65" type="line"/>
      <point x="320.75" y="258.65" type="line"/>
      <point x="293.75" y="704.5" type="line"/>
      <point x="201.7" y="704.5" type="line"/>
    </contour>
  </outline>
</glyph>
<glyph name="underscore" format="2">
  <advance width="550.2"/>
  <unicode hex="005F"/>
  <outline>
    <contour>
      <point x="-71.6" y="-176.15" type="line"/>
      <point x="477.5" y="-176.15" type="line"/>
      <point x="494.8" y="-74.75" type="line"/>
      <point x="-54.3" y="-74.75" type="line"/>
    </contour>
  </outline>
</glyph>
<glyph name="a" format="2">
  <advance width="334.5"/>
  <unicode hex="0061"/>
  <note>
15
</note>
  <anchor x="131.35" y="0.0" name="bottom"/>
  <anchor x="298.7" y="7.700000000000001" name="ogonek"/>
  <anchor x="214.1" y="541.0" name="top"/>
  <outline>
    <contour>
      <point x="236.7" y="-10.0" type="curve" smooth="yes"/>
      <point x="259.5" y="-10.0"/>
      <point x="283.95" y="-2.6999999999999997"/>
      <point x="298.7" y="7.700000000000001" type="curve"/>
      <point x="308.55" y="93.2" type="line"/>
      <point x="301.5" y="90.4"/>
      <point x="295.25" y="89.05000000000001"/>
      <point x="289.65" y="89.05000000000001" type="curve" smooth="yes"/>
      <point x="277.95" y="89.05000000000001"/>
      <point x="274.15" y="94.85000000000001"/>
      <point x="274.15" y="107.55000000000001" type="curve" smooth="yes"/>
      <point x="274.15" y="113.9"/>
      <point x="277.6" y="135.75"/>
      <point x="339.6" y="524.0" type="curve"/>
      <point x="306.45" y="538.95"/>
      <point x="266.55" y="551.0"/>
      <point x="222.8" y="551.0" type="curve" smooth="yes"/>
      <point x="94.35" y="551.0"/>
      <point x="10.399999999999999" y="399.25"/>
      <point x="10.399999999999999" y="144.35" type="curve" smooth="yes"/>
      <point x="10.399999999999999" y="45.7"/>
      <point x="43.65" y="-10.0"/>
      <point x="101.8" y="-10.0" type="curve" smooth="yes"/>
      <point x="132.85" y="-10.0"/>
      <point x="155.8" y="2.2"/>
      <point x="176.3" y="24.65" type="curve"/>
      <point x="188.55" y="1.1"/>
      <point x="206.5" y="-10.0"/>
    </contour>
    <contour>
      <point x="174.95" y="100.05000000000001" type="line"/>
      <point x="166.55" y="93.55000000000001"/>
      <point x="155.45" y="89.4"/>
      <point x="144.8" y="89.4" type="curve" smooth="yes"/>
      <point x="125.30000000000001" y="89.4"/>
      <point x="113.55000000000001" y="112.5"/>
      <point x="113.55000000000001" y="158.45" type="curve" smooth="yes"/>
      <point x="113.55000000000001" y="331.1"/>
      <point x="158.9" y="458.1"/>
      <point x="211.35" y="458.1" type="curve" smooth="yes"/>
      <point x="218.75" y="458.1"/>
      <point x="224.9" y="456.75"/>
      <point x="230.6" y="453.5" type="curve"/>
    </contour>
  </outline>
</glyph>
<glyph name="b" format="2">
  <advance width="331.15"/>
  <unicode hex="0062"/>
  <note>
12
</note>
  <outline>
    <contour>
      <point x="203.25" y="740.0" type="line"/>
      <point x="105.6" y="740.0" type="line"/>
      <point x="-9.3" y="12.25" type="line"/>
      <point x="15.45" y="0.6000000000000005"/>
      <point x="49.5" y="-10.0"/>
      <point x="98.65" y="-10.0" type="curve" smooth="yes"/>
      <point x="257.1" y="-10.0"/>
      <point x="321.95" y="193.95"/>
      <point x="320.85" y="387.3" type="curve" smooth="yes"/>
      <point x="320.3" y="501.4"/>
      <point x="289.7" y="551.0"/>
      <point x="231.65" y="551.0" type="curve" smooth="yes"/>
      <point x="210.65" y="551.0"/>
      <point x="190.45" y="544.0"/>
      <point x="169.9" y="529.6" type="curve"/>
    </contour>
    <contour>
      <point x="187.85" y="451.05" type="curve" smooth="yes"/>
      <point x="212.95" y="451.05"/>
      <point x="221.0" y="420.25"/>
      <point x="221.0" y="381.0" type="curve" smooth="yes"/>
      <point x="221.0" y="230.5"/>
      <point x="179.5" y="81.7"/>
      <point x="120.85" y="81.7" type="curve" smooth="yes"/>
      <point x="113.9" y="81.7"/>
      <point x="106.4" y="83.05000000000001"/>
      <point x="100.25" y="86.30000000000001" type="curve"/>
      <point x="155.9" y="440.4" type="line"/>
      <point x="164.3" y="446.45"/>
      <point x="179.1" y="451.05"/>
    </contour>
  </outline>
</glyph>
<glyph name="c" format="2">
  <advance width="266.3"/>
  <unicode hex="0063"/>
  <note>
10
</note>
  <anchor x="121.4" y="0.0" name="bottom"/>
  <anchor x="210.20000000000002" y="541.0" name="top"/>
  <outline>
    <contour>
      <point x="137.1" y="-10.0" type="curve" smooth="yes"/>
      <point x="166.60000000000002" y="-10.0"/>
      <point x="200.89999999999998" y="-3.6"/>
      <point x="223.4" y="5.6" type="curve"/>
      <point x="211.7" y="94.70000000000002" type="line"/>
      <point x="198.6" y="91.80000000000001"/>
      <point x="181.20000000000002" y="89.9"/>
      <point x="165.20000000000002" y="89.9" type="curve" smooth="yes"/>
      <point x="127.8" y="89.9"/>
      <point x="111.60000000000001" y="126.8"/>
      <point x="111.60000000000001" y="182.8" type="curve" smooth="yes"/>
      <point x="111.60000000000001" y="316.3"/>
      <point x="157.3" y="451.09999999999997"/>
      <point x="221.0" y="451.09999999999997" type="curve" smooth="yes"/>
      <point x="237.9" y="451.09999999999997"/>
      <point x="250.0" y="449.1"/>
      <point x="267.0" y="442.99999999999994" type="curve"/>
      <point x="301.5" y="538.5" type="line"/>
      <point x="279.2" y="546.8000000000001"/>
      <point x="253.10000000000002" y="551.0"/>
      <point x="222.9" y="551.0" type="curve" smooth="yes"/>
      <point x="83.7" y="551.0"/>
      <point x="10.6" y="378.2"/>
      <point x="10.6" y="154.5" type="curve" smooth="yes"/>
      <point x="10.6" y="50.5"/>
      <point x="56.300000000000004" y="-10.0"/>
    </contour>
  </outline>
</glyph>
<glyph name="d" format="2">
  <advance width="332.4"/>
  <unicode hex="0064"/>
  <note>
17
</note>
  <anchor x="137.75" y="0.0" name="bottom"/>
  <anchor x="169.75" y="317.75" name="center"/>
  <anchor x="226.4" y="740.0" name="top"/>
  <anchor x="410.65" y="740.0" name="topright"/>
  <outline>
    <contour>
      <point x="234.15" y="-10.0" type="curve" smooth="yes"/>
      <point x="254.95" y="-10.0"/>
      <point x="279.95" y="-3.6999999999999997"/>
      <point x="296.15" y="7.700000000000001" type="curve"/>
      <point x="306.0" y="93.2" type="line"/>
      <point x="299.3" y="90.85000000000001"/>
      <point x="292.7" y="89.05000000000001"/>
      <point x="286.65" y="89.05000000000001" type="curve" smooth="yes"/>
      <point x="275.85" y="89.05000000000001"/>
      <point x="272.15" y="94.4"/>
      <point x="272.15" y="105.35000000000001" type="curve" smooth="yes"/>
      <point x="272.15" y="118.85000000000001"/>
      <point x="325.15" y="447.05"/>
      <point x="371.5" y="740.0" type="curve"/>
      <point x="274.4" y="740.0" type="line"/>
      <point x="241.95" y="538.6" type="line"/>
      <point x="225.4" y="546.9"/>
      <point x="209.65" y="551.0"/>
      <point x="191.9" y="551.0" type="curve" smooth="yes"/>
      <point x="88.0" y="551.0"/>
      <point x="10.6" y="382.3"/>
      <point x="10.6" y="149.55" type="curve" smooth="yes"/>
      <point x="10.6" y="41.9"/>
      <point x="42.2" y="-10.0"/>
      <point x="101.55" y="-10.0" type="curve" smooth="yes"/>
      <point x="131.7" y="-10.0"/>
      <point x="157.0" y="6.95"/>
      <point x="173.75" y="26.450000000000003" type="curve"/>
      <point x="186.45" y="1.2000000000000002"/>
      <point x="203.5" y="-10.0"/>
    </contour>
    <contour>
      <point x="142.25" y="89.85000000000001" type="curve" smooth="yes"/>
      <point x="121.2" y="89.85000000000001"/>
      <point x="110.55000000000001" y="113.9"/>
      <point x="110.55000000000001" y="148.3" type="curve" smooth="yes"/>
      <point x="110.55000000000001" y="300.6"/>
      <point x="148.75" y="458.1"/>
      <point x="208.1" y="458.1" type="curve" smooth="yes"/>
      <point x="215.05" y="458.1"/>
      <point x="220.1" y="456.75"/>
      <point x="228.5" y="453.95" type="curve"/>
      <point x="172.85" y="101.4" type="line"/>
      <point x="164.45" y="94.0"/>
      <point x="154.15" y="89.85000000000001"/>
    </contour>
  </outline>
</glyph>
<glyph name="e" format="2">
  <advance width="306.3"/>
  <unicode hex="0065"/>
  <note>
14 points
</note>
  <anchor x="147.70000000000002" y="0.0" name="bottom"/>
  <anchor x="213.5" y="-0.20000000000000018" name="ogonek"/>
  <anchor x="211.4" y="541.7" name="top"/>
  <outline>
    <contour>
      <point x="87.4" y="285.70000000000005" type="curve"/>
      <point x="69.7" y="206.9" type="line"/>
      <point x="103.5" y="208.4"/>
      <point x="138.0" y="217.1"/>
      <point x="169.40000000000003" y="230.79999999999998" type="curve" smooth="yes"/>
      <point x="256.8" y="268.29999999999995"/>
      <point x="318.8" y="349.09999999999997"/>
      <point x="318.8" y="445.79999999999995" type="curve" smooth="yes"/>
      <point x="318.8" y="507.5"/>
      <point x="287.40000000000003" y="550.8"/>
      <point x="218.5" y="550.8" type="curve" smooth="yes"/>
      <point x="83.0" y="550.8"/>
      <point x="13.1" y="381.9"/>
      <point x="13.1" y="181.79999999999998" type="curve" smooth="yes"/>
      <point x="13.1" y="58.4"/>
      <point x="59.7" y="-10.0"/>
      <point x="149.20000000000002" y="-10.0" type="curve" smooth="yes"/>
      <point x="185.0" y="-10.0"/>
      <point x="228.00000000000003" y="-0.8999999999999999"/>
      <point x="261.1" y="19.5" type="curve"/>
      <point x="242.5" y="112.80000000000001" type="line"/>
      <point x="212.10000000000002" y="97.7"/>
      <point x="185.70000000000002" y="91.70000000000002"/>
      <point x="161.60000000000002" y="91.70000000000002" type="curve" smooth="yes"/>
      <point x="126.5" y="91.70000000000002"/>
      <point x="105.9" y="120.50000000000001"/>
      <point x="106.10000000000001" y="200.29999999999998" type="curve" smooth="yes"/>
      <point x="106.50000000000001" y="355.70000000000005"/>
      <point x="152.5" y="459.2"/>
      <point x="203.7" y="459.1" type="curve" smooth="yes"/>
      <point x="218.89999999999998" y="459.1"/>
      <point x="229.1" y="450.5"/>
      <point x="229.1" y="423.9" type="curve" smooth="yes"/>
      <point x="229.0" y="374.6"/>
      <point x="198.4" y="331.3"/>
      <point x="151.1" y="304.40000000000003" type="curve" smooth="yes"/>
      <point x="132.8" y="293.9"/>
      <point x="110.00000000000001" y="287.2"/>
    </contour>
  </outline>
</glyph>
<glyph name="f" format="2">
  <advance width="211.7"/>
  <unicode hex="0066"/>
  <outline>
    <contour>
      <point x="-52.599999999999994" y="-220.0" type="curve" smooth="yes"/>
      <point x="38.00000000000001" y="-220.0"/>
      <point x="81.65" y="-158.2"/>
      <point x="101.60000000000001" y="-31.949999999999996" type="curve" smooth="yes"/>
      <point x="172.85" y="417.7" type="line"/>
      <point x="232.85" y="417.7" type="line"/>
      <point x="247.4" y="508.75" type="line"/>
      <point x="187.4" y="508.75" type="line"/>
      <point x="203.85" y="614.7"/>
      <point x="224.65" y="649.6"/>
      <point x="263.55" y="649.6" type="curve" smooth="yes"/>
      <point x="274.9" y="649.6"/>
      <point x="288.25" y="646.6"/>
      <point x="300.8" y="642.5" type="curve"/>
      <point x="330.35" y="730.9" type="line"/>
      <point x="307.2" y="741.95"/>
      <point x="284.4" y="750.0"/>
      <point x="251.5" y="750.0" type="curve" smooth="yes"/>
      <point x="169.55" y="750.0"/>
      <point x="114.8" y="676.45"/>
      <point x="89.75" y="508.75" type="curve"/>
      <point x="42.2" y="502.2" type="line"/>
      <point x="28.1" y="417.7" type="line"/>
      <point x="75.2" y="417.7" type="line"/>
      <point x="4.949999999999999" y="-28.599999999999994" type="line" smooth="yes"/>
      <point x="-4.75" y="-88.6"/>
      <point x="-22.9" y="-119.94999999999999"/>
      <point x="-59.45" y="-119.94999999999999" type="curve" smooth="yes"/>
      <point x="-69.6" y="-119.94999999999999"/>
      <point x="-80.05" y="-119.05"/>
      <point x="-94.95" y="-114.05" type="curve"/>
      <point x="-122.6" y="-206.95" type="line"/>
      <point x="-99.25" y="-215.8"/>
      <point x="-76.55" y="-220.0"/>
    </contour>
  </outline>
</glyph>
<glyph name="g" format="2">
  <advance width="330.6"/>
  <unicode hex="0067"/>
  <note>
16
</note>
  <anchor x="83.9" y="-215.5" name="bottom"/>
  <anchor x="211.4" y="541.0" name="top"/>
  <outline>
    <contour>
      <point x="-21.0" y="-195.29999999999998" type="line"/>
      <point x="16.0" y="-212.4"/>
      <point x="55.1" y="-220.0"/>
      <point x="83.00000000000001" y="-220.0" type="curve" smooth="yes"/>
      <point x="175.10000000000002" y="-220.0"/>
      <point x="228.0" y="-162.79999999999998"/>
      <point x="249.4" y="-29.199999999999996" type="curve" smooth="yes"/>
      <point x="339.9" y="530.5" type="line"/>
      <point x="314.6" y="541.6999999999999"/>
      <point x="271.3" y="551.0"/>
      <point x="231.5" y="551.0" type="curve" smooth="yes"/>
      <point x="78.8" y="551.0"/>
      <point x="9.700000000000001" y="372.6"/>
      <point x="9.700000000000001" y="145.70000000000002" type="curve" smooth="yes"/>
      <point x="9.700000000000001" y="60.2"/>
      <point x="36.1" y="1.1000000000000023"/>
      <point x="95.2" y="1.1000000000000023" type="curve" smooth="yes"/>
      <point x="114.2" y="1.1000000000000023"/>
      <point x="138.6" y="7.100000000000002"/>
      <point x="161.0" y="22.1" type="curve"/>
      <point x="154.3" y="-29.499999999999993" type="line" smooth="yes"/>
      <point x="144.8" y="-99.8"/>
      <point x="120.00000000000001" y="-122.5"/>
      <point x="85.4" y="-122.5" type="curve" smooth="yes"/>
      <point x="65.9" y="-122.5"/>
      <point x="31.9" y="-114.89999999999999"/>
      <point x="9.200000000000001" y="-105.6" type="curve"/>
    </contour>
    <contour>
      <point x="229.9" y="457.79999999999995" type="curve"/>
      <point x="173.8" y="104.8" type="line"/>
      <point x="166.3" y="98.30000000000001"/>
      <point x="153.3" y="93.7"/>
      <point x="144.1" y="93.7" type="curve" smooth="yes"/>
      <point x="123.50000000000001" y="93.7"/>
      <point x="111.4" y="115.00000000000001"/>
      <point x="111.4" y="150.6" type="curve" smooth="yes"/>
      <point x="111.4" y="299.59999999999997"/>
      <point x="149.2" y="462.4"/>
      <point x="209.4" y="462.4" type="curve" smooth="yes"/>
      <point x="215.0" y="462.4"/>
      <point x="222.4" y="460.59999999999997"/>
    </contour>
  </outline>
</glyph>
<glyph name="h" format="2">
  <advance width="333.7"/>
  <unicode hex="0068"/>
  <note>
16
</note>
  <anchor x="124.1" y="0.0" name="bottom"/>
  <anchor x="181.75" y="370.0" name="center"/>
  <anchor x="241.0" y="740.0" name="top"/>
  <outline>
    <contour>
      <point x="272.25" y="106.35000000000001" type="curve" smooth="yes"/>
      <point x="272.25" y="124.7"/>
      <point x="328.35" y="442.8"/>
      <point x="328.35" y="469.9" type="curve" smooth="yes"/>
      <point x="328.35" y="519.9"/>
      <point x="305.2" y="551.0"/>
      <point x="255.7" y="551.0" type="curve" smooth="yes"/>
      <point x="225.75" y="551.0"/>
      <point x="198.05" y="541.0"/>
      <point x="167.7" y="518.65" type="curve"/>
      <point x="203.25" y="740.0" type="line"/>
      <point x="105.6" y="740.0" type="line"/>
      <point x="-11.950000000000001" y="0.0" type="line"/>
      <point x="85.7" y="0.0" type="line"/>
      <point x="155.45" y="436.6" type="line"/>
      <point x="167.75" y="446.1"/>
      <point x="185.8" y="452.15"/>
      <point x="197.1" y="452.15" type="curve" smooth="yes"/>
      <point x="218.5" y="452.15"/>
      <point x="224.2" y="439.15"/>
      <point x="224.2" y="422.35" type="curve" smooth="yes"/>
      <point x="224.2" y="403.3"/>
      <point x="169.55" y="94.7"/>
      <point x="169.55" y="57.150000000000006" type="curve" smooth="yes"/>
      <point x="169.55" y="19.5"/>
      <point x="196.35" y="-10.0"/>
      <point x="238.35" y="-10.0" type="curve" smooth="yes"/>
      <point x="258.25" y="-10.0"/>
      <point x="278.15" y="-4.05"/>
      <point x="296.0" y="7.350000000000001" type="curve"/>
      <point x="306.3" y="93.30000000000001" type="line"/>
      <point x="299.25" y="90.5"/>
      <point x="293.9" y="90.05000000000001"/>
      <point x="290.1" y="90.05000000000001" type="curve" smooth="yes"/>
      <point x="277.7" y="90.05000000000001"/>
      <point x="272.25" y="95.2"/>
    </contour>
  </outline>
</glyph>
<glyph name="i" format="2">
  <advance width="162.3"/>
  <unicode hex="0069"/>
  <note>
Ajuster pts sur points
8
</note>
  <anchor x="37.2" y="0.0" name="bottom"/>
  <anchor x="86.25" y="0.0" name="ogonek"/>
  <anchor x="122.85" y="541.0" name="top"/>
  <outline>
    <contour>
      <point x="-10.950000000000001" y="0.0" type="line"/>
      <point x="86.25" y="0.0" type="line"/>
      <point x="171.9" y="541.0" type="line"/>
      <point x="74.25" y="541.0" type="line"/>
    </contour>
    <contour>
      <point x="158.35" y="754.0" type="curve" smooth="yes"/>
      <point x="108.05" y="754.0"/>
      <point x="91.0" y="712.95"/>
      <point x="89.65" y="664.2" type="curve" smooth="yes"/>
      <point x="89.2" y="631.45"/>
      <point x="105.75" y="617.15"/>
      <point x="135.4" y="617.15" type="curve" smooth="yes"/>
      <point x="186.25" y="617.15"/>
      <point x="202.75" y="659.3"/>
      <point x="204.10000000000002" y="707.5" type="curve" smooth="yes"/>
      <point x="204.55" y="740.25"/>
      <point x="187.45" y="754.0"/>
    </contour>
  </outline>
</glyph>
<glyph name="j" format="2">
  <advance width="166.9"/>
  <unicode hex="006A"/>
  <note>
idem /i
12
</note>
  <outline>
    <contour>
      <point x="162.95" y="754.0" type="curve" smooth="yes"/>
      <point x="112.65" y="754.0"/>
      <point x="95.6" y="712.95"/>
      <point x="94.25" y="664.2" type="curve" smooth="yes"/>
      <point x="93.8" y="631.45"/>
      <point x="110.9" y="617.15"/>
      <point x="140.55" y="617.15" type="curve" smooth="yes"/>
      <point x="190.85" y="617.15"/>
      <point x="207.35000000000002" y="659.3"/>
      <point x="208.7" y="707.5" type="curve" smooth="yes"/>
      <point x="209.15" y="740.25"/>
      <point x="192.05" y="754.0"/>
    </contour>
    <contour>
      <point x="177.05" y="541.0" type="line"/>
      <point x="78.85" y="541.0" type="line"/>
      <point x="-11.3" y="-25.299999999999997" type="line" smooth="yes"/>
      <point x="-21.0" y="-85.3"/>
      <point x="-38.6" y="-119.94999999999999"/>
      <point x="-75.15" y="-119.94999999999999" type="curve" smooth="yes"/>
      <point x="-86.3" y="-119.94999999999999"/>
      <point x="-96.75" y="-119.05"/>
      <point x="-111.1" y="-114.05" type="curve"/>
      <point x="-136.0" y="-208.05" type="line"/>
      <point x="-112.65" y="-216.9"/>
      <point x="-86.1" y="-220.0"/>
      <point x="-64.9" y="-220.0" type="curve" smooth="yes"/>
      <point x="26.150000000000006" y="-220.0"/>
      <point x="65.4" y="-159.2"/>
      <point x="85.9" y="-29.199999999999996" type="curve" smooth="yes"/>
    </contour>
  </outline>
</glyph>
<glyph name="l" format="2">
  <advance width="167.2"/>
  <unicode hex="006C"/>
  <anchor x="65.1" y="0.0" name="bottom"/>
  <anchor x="98.95" y="370.0" name="center"/>
  <anchor x="154.2" y="740.0" name="top"/>
  <anchor x="242.4" y="740.0" name="topright"/>
  <outline>
    <contour>
      <point x="105.6" y="740.0" type="line"/>
      <point x="2.6499999999999986" y="89.4" type="line" smooth="yes"/>
      <point x="1.0999999999999996" y="79.2"/>
      <point x="0.09999999999999964" y="67.9"/>
      <point x="0.09999999999999964" y="59.25" type="curve" smooth="yes"/>
      <point x="0.09999999999999964" y="16.65"/>
      <point x="21.55" y="-10.0"/>
      <point x="68.05" y="-10.0" type="curve" smooth="yes"/>
      <point x="88.85" y="-10.0"/>
      <point x="115.30000000000001" y="-3.1499999999999995"/>
      <point x="131.05" y="7.350000000000001" type="curve"/>
      <point x="141.35" y="93.30000000000001" type="line"/>
      <point x="132.95" y="90.5"/>
      <point x="125.80000000000001" y="89.60000000000001"/>
      <point x="121.10000000000001" y="89.60000000000001" type="curve" smooth="yes"/>
      <point x="108.25" y="89.60000000000001"/>
      <point x="103.9" y="95.5"/>
      <point x="103.9" y="106.95" type="curve" smooth="yes"/>
      <point x="103.9" y="114.65"/>
      <point x="105.80000000000001" y="124.80000000000001"/>
      <point x="108.15" y="140.35000000000002" type="curve" smooth="yes"/>
      <point x="203.25" y="740.0" type="line"/>
    </contour>
  </outline>
</glyph>
<glyph name="m" format="2">
  <advance width="496.7"/>
  <unicode hex="006D"/>
  <note>
24&gt;23 points
un point de trop dans la jointure avec 2e jambage
</note>
  <outline>
    <contour>
      <point x="399.7" y="-10.0" type="curve" smooth="yes"/>
      <point x="419.6" y="-10.0"/>
      <point x="442.8" y="-4.05"/>
      <point x="459.0" y="7.350000000000001" type="curve"/>
      <point x="469.3" y="93.30000000000001" type="line"/>
      <point x="462.25" y="90.5"/>
      <point x="456.9" y="90.05000000000001"/>
      <point x="453.1" y="90.05000000000001" type="curve" smooth="yes"/>
      <point x="440.70000000000005" y="90.05000000000001"/>
      <point x="434.8" y="96.85000000000001"/>
      <point x="434.8" y="109.65" type="curve" smooth="yes"/>
      <point x="434.8" y="137.9"/>
      <point x="490.9" y="446.65"/>
      <point x="490.9" y="473.2" type="curve" smooth="yes"/>
      <point x="490.9" y="518.8"/>
      <point x="468.75" y="551.0"/>
      <point x="418.7" y="551.0" type="curve" smooth="yes"/>
      <point x="391.65" y="551.0"/>
      <point x="355.9" y="542.45"/>
      <point x="317.2" y="510.65" type="curve"/>
      <point x="307.2" y="536.25"/>
      <point x="284.45" y="551.0"/>
      <point x="252.75" y="551.0" type="curve" smooth="yes"/>
      <point x="224.15" y="551.0"/>
      <point x="192.10000000000002" y="541.1"/>
      <point x="158.55" y="514.9" type="curve"/>
      <point x="163.2" y="541.0" type="line"/>
      <point x="73.8" y="541.0" type="line"/>
      <point x="-11.850000000000001" y="0.0" type="line"/>
      <point x="85.80000000000001" y="0.0" type="line"/>
      <point x="155.0" y="437.05" type="line"/>
      <point x="166.75" y="446.0"/>
      <point x="182.75" y="452.15"/>
      <point x="196.4" y="452.15" type="curve" smooth="yes"/>
      <point x="214.2" y="452.15"/>
      <point x="221.6" y="440.5"/>
      <point x="221.6" y="424.15" type="curve" smooth="yes"/>
      <point x="221.6" y="405.0"/>
      <point x="168.95" y="89.10000000000001"/>
      <point x="154.1" y="0.0" type="curve"/>
      <point x="251.65" y="0.0" type="line"/>
      <point x="262.65" y="66.55000000000001"/>
      <point x="305.95" y="335.25"/>
      <point x="316.95" y="416.2" type="curve" smooth="yes"/>
      <point x="317.5" y="422.3"/>
      <point x="318.15" y="430.6"/>
      <point x="318.25" y="435.7" type="curve"/>
      <point x="330.55" y="445.2"/>
      <point x="346.45" y="452.15"/>
      <point x="361.35" y="452.15" type="curve" smooth="yes"/>
      <point x="380.05" y="452.15"/>
      <point x="386.2" y="439.15"/>
      <point x="386.2" y="422.35" type="curve" smooth="yes"/>
      <point x="386.2" y="401.95"/>
      <point x="331.55" y="99.65"/>
      <point x="331.55" y="58.800000000000004" type="curve" smooth="yes"/>
      <point x="331.55" y="16.200000000000003"/>
      <point x="357.7" y="-10.0"/>
    </contour>
  </outline>
</glyph>
<glyph name="n" format="2">
  <advance width="332.8"/>
  <unicode hex="006E"/>
  <note>
16
</note>
  <anchor x="133.75" y="0.0" name="bottom"/>
  <anchor x="205.95" y="541.0" name="top"/>
  <outline>
    <contour>
      <point x="73.8" y="541.0" type="line"/>
      <point x="-11.850000000000001" y="0.0" type="line"/>
      <point x="85.80000000000001" y="0.0" type="line"/>
      <point x="155.55" y="436.6" type="line"/>
      <point x="167.85" y="446.1"/>
      <point x="184.9" y="452.6"/>
      <point x="196.75" y="452.6" type="curve" smooth="yes"/>
      <point x="218.15" y="452.6"/>
      <point x="224.3" y="439.15"/>
      <point x="224.3" y="422.35" type="curve" smooth="yes"/>
      <point x="224.3" y="397.25"/>
      <point x="169.65" y="99.65"/>
      <point x="169.65" y="54.400000000000006" type="curve" smooth="yes"/>
      <point x="169.65" y="20.05"/>
      <point x="194.9" y="-10.0"/>
      <point x="236.9" y="-10.0" type="curve" smooth="yes"/>
      <point x="256.8" y="-10.0"/>
      <point x="278.9" y="-4.05"/>
      <point x="295.1" y="7.350000000000001" type="curve"/>
      <point x="305.4" y="93.30000000000001" type="line"/>
      <point x="298.35" y="90.5"/>
      <point x="293.0" y="90.05000000000001"/>
      <point x="289.2" y="90.05000000000001" type="curve" smooth="yes"/>
      <point x="276.8" y="90.05000000000001"/>
      <point x="271.8" y="95.2"/>
      <point x="271.8" y="106.35000000000001" type="curve" smooth="yes"/>
      <point x="271.8" y="124.7"/>
      <point x="328.45" y="442.8"/>
      <point x="328.45" y="469.9" type="curve" smooth="yes"/>
      <point x="328.45" y="519.9"/>
      <point x="304.85" y="551.0"/>
      <point x="255.35000000000002" y="551.0" type="curve" smooth="yes"/>
      <point x="225.4" y="551.0"/>
      <point x="191.10000000000002" y="540.65"/>
      <point x="158.0" y="514.45" type="curve"/>
      <point x="162.1" y="541.0" type="line"/>
    </contour>
  </outline>
</glyph>
<glyph name="o" format="2">
  <advance width="327.0"/>
  <unicode hex="006F"/>
  <note>
8
</note>
  <anchor x="120.4444" y="0.0" name="bottom"/>
  <anchor x="163.5" y="270.5" name="center"/>
  <anchor x="173.9" y="0.0" name="ogonek"/>
  <anchor x="200.9" y="541.0" name="top"/>
  <anchor x="269.90000000000003" y="531.0" name="topright"/>
  <outline>
    <contour>
      <point x="130.3" y="-9.9" type="curve" smooth="yes"/>
      <point x="268.9" y="-9.9"/>
      <point x="315.8" y="241.7"/>
      <point x="315.8" y="410.8" type="curve" smooth="yes"/>
      <point x="315.8" y="512.0"/>
      <point x="281.90000000000003" y="551.0"/>
      <point x="194.9" y="551.0" type="curve" smooth="yes"/>
      <point x="56.3" y="551.0"/>
      <point x="9.4" y="299.40000000000003"/>
      <point x="9.4" y="131.0" type="curve" smooth="yes"/>
      <point x="9.4" y="30.0"/>
      <point x="44.2" y="-9.9"/>
    </contour>
    <contour>
      <point x="133.3" y="85.0" type="curve" smooth="yes"/>
      <point x="115.7" y="85.0"/>
      <point x="104.4" y="92.4"/>
      <point x="104.4" y="132.3" type="curve" smooth="yes"/>
      <point x="104.4" y="192.29999999999998"/>
      <point x="137.2" y="456.09999999999997"/>
      <point x="192.8" y="456.09999999999997" type="curve" smooth="yes"/>
      <point x="210.4" y="456.09999999999997"/>
      <point x="221.70000000000002" y="449.59999999999997"/>
      <point x="221.70000000000002" y="409.7" type="curve" smooth="yes"/>
      <point x="221.70000000000002" y="348.8"/>
      <point x="188.9" y="85.0"/>
    </contour>
  </outline>
</glyph>
<glyph name="p" format="2">
  <advance width="331.7"/>
  <unicode hex="0070"/>
  <note>
14 point
</note>
  <outline>
    <contour>
      <point x="-44.400000000000006" y="-210.0" type="line"/>
      <point x="52.25000000000001" y="-210.0" type="line"/>
      <point x="85.25" y="-3.0" type="line"/>
      <point x="97.60000000000001" y="-6.35"/>
      <point x="111.7" y="-8.9"/>
      <point x="132.2" y="-8.9" type="curve" smooth="yes"/>
      <point x="255.60000000000002" y="-8.9"/>
      <point x="320.85" y="187.05"/>
      <point x="320.85" y="384.55" type="curve" smooth="yes"/>
      <point x="320.85" y="498.2"/>
      <point x="293.45" y="551.0"/>
      <point x="234.4" y="551.0" type="curve" smooth="yes"/>
      <point x="202.4" y="551.0"/>
      <point x="181.1" y="535.2"/>
      <point x="166.05" y="522.45" type="curve"/>
      <point x="162.4" y="545.5" type="line"/>
      <point x="74.7" y="545.5" type="line"/>
    </contour>
    <contour>
      <point x="120.85" y="81.7" type="curve" smooth="yes"/>
      <point x="113.9" y="81.7"/>
      <point x="106.4" y="82.60000000000001"/>
      <point x="99.80000000000001" y="85.85000000000001" type="curve"/>
      <point x="155.9" y="440.95" type="line"/>
      <point x="163.75" y="446.0"/>
      <point x="178.0" y="451.05"/>
      <point x="187.85" y="451.05" type="curve" smooth="yes"/>
      <point x="209.15" y="451.05"/>
      <point x="221.0" y="430.5"/>
      <point x="221.0" y="375.5" type="curve" smooth="yes"/>
      <point x="221.0" y="235.55"/>
      <point x="179.35" y="81.7"/>
    </contour>
  </outline>
</glyph>
<glyph name="q" format="2">
  <advance width="330.85"/>
  <unicode hex="0071"/>
  <note>
12
</note>
  <outline>
    <contour>
      <point x="339.7" y="528.75" type="line"/>
      <point x="313.1" y="539.5"/>
      <point x="269.45" y="551.0"/>
      <point x="222.5" y="551.0" type="curve" smooth="yes"/>
      <point x="73.6" y="551.0"/>
      <point x="9.5" y="342.05"/>
      <point x="9.5" y="139.65" type="curve" smooth="yes"/>
      <point x="9.5" y="37.65"/>
      <point x="44.25" y="-10.0"/>
      <point x="101.3" y="-10.0" type="curve" smooth="yes"/>
      <point x="124.1" y="-10.0"/>
      <point x="144.95" y="0.0"/>
      <point x="159.5" y="12.2" type="curve"/>
      <point x="123.6" y="-210.0" type="line"/>
      <point x="221.05" y="-210.0" type="line"/>
    </contour>
    <contour>
      <point x="229.6" y="453.95" type="curve"/>
      <point x="173.5" y="100.95" type="line"/>
      <point x="165.1" y="93.55000000000001"/>
      <point x="152.55" y="89.4"/>
      <point x="143.35" y="89.4" type="curve" smooth="yes"/>
      <point x="120.95" y="89.4"/>
      <point x="111.2" y="117.5"/>
      <point x="111.2" y="146.3" type="curve" smooth="yes"/>
      <point x="111.2" y="273.3"/>
      <point x="142.0" y="458.1"/>
      <point x="208.65" y="458.1" type="curve" smooth="yes"/>
      <point x="214.25" y="458.1"/>
      <point x="221.65" y="456.75"/>
    </contour>
  </outline>
</glyph>
<glyph name="r" format="2">
  <advance width="226.9"/>
  <unicode hex="0072"/>
  <anchor x="36.2" y="0.0" name="bottom"/>
  <anchor x="185.75" y="541.0" name="top"/>
  <outline>
    <contour>
      <point x="162.1" y="541.0" type="line"/>
      <point x="73.8" y="541.0" type="line"/>
      <point x="-11.850000000000001" y="0.0" type="line"/>
      <point x="84.15" y="0.0" type="line"/>
      <point x="149.35" y="407.3" type="line"/>
      <point x="172.0" y="428.9"/>
      <point x="190.2" y="436.75"/>
      <point x="210.05" y="436.75" type="curve" smooth="yes"/>
      <point x="218.75" y="436.75"/>
      <point x="232.5" y="435.3"/>
      <point x="243.95" y="431.3" type="curve"/>
      <point x="276.8" y="542.9" type="line"/>
      <point x="263.15" y="549.55"/>
      <point x="251.25" y="551.0"/>
      <point x="237.25" y="551.0" type="curve" smooth="yes"/>
      <point x="211.65" y="551.0"/>
      <point x="184.05" y="535.1"/>
      <point x="155.55" y="501.4" type="curve"/>
    </contour>
  </outline>
</glyph>
<glyph name="s" format="2">
  <advance width="279.1"/>
  <unicode hex="0073"/>
  <anchor x="93.69999999999999" y="0.0" name="bottom"/>
  <anchor x="194.0" y="541.0" name="top"/>
  <outline>
    <contour>
      <point x="-24.8" y="15.900000000000002" type="line"/>
      <point x="5.3" y="-0.5999999999999996"/>
      <point x="40.2" y="-10.0"/>
      <point x="90.60000000000001" y="-10.0" type="curve" smooth="yes"/>
      <point x="191.9" y="-10.0"/>
      <point x="252.3" y="56.5"/>
      <point x="252.3" y="166.79999999999998" type="curve" smooth="yes"/>
      <point x="252.3" y="297.6"/>
      <point x="129.8" y="318.6"/>
      <point x="129.8" y="392.7" type="curve" smooth="yes"/>
      <point x="129.8" y="429.0"/>
      <point x="150.79999999999998" y="453.8"/>
      <point x="190.20000000000002" y="453.8" type="curve" smooth="yes"/>
      <point x="215.5" y="453.8"/>
      <point x="243.60000000000002" y="445.79999999999995"/>
      <point x="267.5" y="435.5" type="curve"/>
      <point x="295.3" y="529.4" type="line"/>
      <point x="274.5" y="541.7"/>
      <point x="237.10000000000002" y="551.0"/>
      <point x="196.4" y="551.0" type="curve" smooth="yes"/>
      <point x="84.3" y="551.0"/>
      <point x="34.9" y="467.3"/>
      <point x="34.9" y="379.8" type="curve" smooth="yes"/>
      <point x="34.9" y="239.7"/>
      <point x="157.5" y="226.0"/>
      <point x="157.5" y="153.29999999999998" type="curve" smooth="yes"/>
      <point x="157.5" y="117.9"/>
      <point x="135.7" y="84.9"/>
      <point x="92.60000000000001" y="84.9" type="curve" smooth="yes"/>
      <point x="64.9" y="84.9"/>
      <point x="30.7" y="93.2"/>
      <point x="6.200000000000001" y="105.50000000000001" type="curve"/>
    </contour>
  </outline>
</glyph>
<glyph name="u" format="2">
  <advance width="331.7"/>
  <unicode hex="0075"/>
  <note>
15
</note>
  <anchor x="125.95" y="0.0" name="bottom"/>
  <anchor x="294.55" y="8.25" name="ogonek"/>
  <anchor x="206.9058" y="541.0" name="top"/>
  <anchor x="322.15" y="541.0" name="topright"/>
  <outline>
    <contour>
      <point x="78.6" y="-10.0" type="curve" smooth="yes"/>
      <point x="112.75" y="-10.0"/>
      <point x="138.75" y="3.8500000000000005"/>
      <point x="171.6" y="34.3" type="curve"/>
      <point x="179.0" y="7.800000000000001"/>
      <point x="202.9" y="-10.0"/>
      <point x="234.55" y="-10.0" type="curve" smooth="yes"/>
      <point x="253.55" y="-10.0"/>
      <point x="279.25" y="-2.6999999999999997"/>
      <point x="294.55" y="8.25" type="curve"/>
      <point x="304.4" y="93.2" type="line"/>
      <point x="297.35" y="90.4"/>
      <point x="289.75" y="89.05000000000001"/>
      <point x="285.5" y="89.05000000000001" type="curve" smooth="yes"/>
      <point x="274.0" y="89.05000000000001"/>
      <point x="270.55" y="96.30000000000001"/>
      <point x="270.55" y="107.30000000000001" type="curve" smooth="yes"/>
      <point x="270.55" y="115.0"/>
      <point x="272.45" y="128.85000000000002"/>
      <point x="338.65" y="541.0" type="curve"/>
      <point x="242.65" y="541.0" type="line"/>
      <point x="172.8" y="105.10000000000001" type="line"/>
      <point x="157.35" y="92.9"/>
      <point x="143.55" y="87.30000000000001"/>
      <point x="129.35" y="87.30000000000001" type="curve" smooth="yes"/>
      <point x="111.9" y="87.30000000000001"/>
      <point x="102.5" y="101.05000000000001"/>
      <point x="103.60000000000001" y="118.7" type="curve" smooth="yes"/>
      <point x="113.5" y="188.8"/>
      <point x="126.60000000000001" y="270.70000000000005"/>
      <point x="169.0" y="541.0" type="curve"/>
      <point x="72.45" y="541.0" type="line"/>
      <point x="26.1" y="245.9"/>
      <point x="1.0" y="122.80000000000001"/>
      <point x="1.0" y="68.7" type="curve" smooth="yes"/>
      <point x="1.0" y="22.9"/>
      <point x="28.299999999999997" y="-10.0"/>
    </contour>
  </outline>
</glyph>
<glyph name="v" format="2">
  <advance width="310.7"/>
  <unicode hex="0076"/>
  <outline>
    <contour>
      <point x="172.75" y="-1.7999999999999998" type="line"/>
      <point x="266.6" y="258.7"/>
      <point x="330.95" y="393.4"/>
      <point x="333.7" y="541.0" type="curve"/>
      <point x="233.3" y="541.0" type="line"/>
      <point x="231.95" y="418.1"/>
      <point x="201.5" y="338.15"/>
      <point x="124.95" y="105.15" type="curve"/>
      <point x="147.60000000000002" y="541.0" type="line"/>
      <point x="44.45" y="541.0" type="line"/>
      <point x="46.25" y="-1.7999999999999998" type="line"/>
    </contour>
  </outline>
</glyph>
<glyph name="w" format="2">
  <advance width="504.05"/>
  <unicode hex="0077"/>
  <note>
15
</note>
  <anchor x="214.05" y="0.0" name="bottom"/>
  <anchor x="281.25" y="541.0" name="top"/>
  <outline>
    <contour>
      <point x="376.75" y="0.0" type="line"/>
      <point x="473.85" y="290.45"/>
      <point x="520.45" y="397.25"/>
      <point x="525.05" y="541.0" type="curve"/>
      <point x="426.3" y="541.0" type="line"/>
      <point x="418.6" y="414.15"/>
      <point x="395.25" y="332.65"/>
      <point x="333.35" y="111.9" type="curve"/>
      <point x="343.15" y="514.45" type="line"/>
      <point x="233.15" y="514.45" type="line"/>
      <point x="199.4" y="379.45"/>
      <point x="166.1" y="245.0"/>
      <point x="132.35" y="110.0" type="curve"/>
      <point x="145.0" y="541.0" type="line"/>
      <point x="41.75" y="541.0" type="line"/>
      <point x="52.55" y="0.0" type="line"/>
      <point x="175.2" y="0.0" type="line"/>
      <point x="204.55" y="120.25"/>
      <point x="233.8" y="240.95"/>
      <point x="263.15" y="361.2" type="curve"/>
      <point x="259.6" y="0.0" type="line"/>
    </contour>
  </outline>
</glyph>
<glyph name="x" format="2">
  <advance width="332.4"/>
  <unicode hex="0078"/>
  <outline>
    <contour>
      <point x="246.05" y="541.0" type="line"/>
      <point x="246.05" y="474.35"/>
      <point x="225.25" y="414.0"/>
      <point x="174.3" y="326.45" type="curve"/>
      <point x="160.15" y="542.8" type="line"/>
      <point x="52.4" y="541.0" type="line"/>
      <point x="86.15" y="273.05" type="line"/>
      <point x="26.65" y="177.05"/>
      <point x="-15.850000000000001" y="87.5"/>
      <point x="-21.9" y="0.0" type="curve"/>
      <point x="84.2" y="0.0" type="line"/>
      <point x="88.5" y="69.7"/>
      <point x="115.7" y="140.55"/>
      <point x="158.9" y="215.4" type="curve"/>
      <point x="176.45" y="-0.8999999999999999" type="line"/>
      <point x="285.85" y="0.44999999999999996" type="line"/>
      <point x="247.05" y="269.25" type="line"/>
      <point x="320.3" y="380.25"/>
      <point x="349.75" y="489.6"/>
      <point x="349.75" y="541.0" type="curve"/>
    </contour>
  </outline>
</glyph>
<glyph name="y" format="2">
  <advance width="310.70000000000005"/>
  <unicode hex="0079"/>
  <anchor x="114.10000000000002" y="-188.99999999999997" name="bottom"/>
  <anchor x="188.3" y="541.0" name="top"/>
  <outline>
    <contour>
      <point x="238.70000000000002" y="545.5" type="line"/>
      <point x="222.4" y="374.4"/>
      <point x="183.10000000000002" y="245.6"/>
      <point x="134.4" y="104.70000000000002" type="curve"/>
      <point x="137.70000000000002" y="545.5" type="line"/>
      <point x="40.4" y="544.6" type="line"/>
      <point x="45.800000000000004" y="0.0" type="line"/>
      <point x="84.2" y="0.0" type="line"/>
      <point x="59.699999999999996" y="-66.89999999999999"/>
      <point x="28.0" y="-131.5"/>
      <point x="-14.0" y="-210.0" type="curve"/>
      <point x="85.30000000000001" y="-214.5" type="line"/>
      <point x="217.9" y="71.80000000000001"/>
      <point x="306.6" y="293.0"/>
      <point x="336.70000000000005" y="543.6999999999999" type="curve"/>
    </contour>
  </outline>
</glyph>
<glyph name="z" format="2">
  <advance width="292.95"/>
  <unicode hex="007A"/>
  <anchor x="114.80000000000001" y="0.0" name="bottom"/>
  <anchor x="143.85" y="275.0" name="center"/>
  <anchor x="191.9" y="541.0" name="top"/>
  <outline>
    <contour>
      <point x="-21.5" y="0.0" type="line"/>
      <point x="243.15" y="0.0" type="line"/>
      <point x="257.7" y="94.35000000000001" type="line"/>
      <point x="96.75000000000001" y="94.35000000000001" type="line"/>
      <point x="298.9" y="449.3" type="line"/>
      <point x="316.85" y="541.0" type="line"/>
      <point x="66.2" y="541.0" type="line"/>
      <point x="51.099999999999994" y="445.55" type="line"/>
      <point x="196.95" y="445.55" type="line"/>
      <point x="-8.5" y="85.10000000000001" type="line"/>
    </contour>
  </outline>
</glyph>
<glyph name="braceleft" format="2">
  <advance width="214.7"/>
  <unicode hex="007B"/>
  <outline>
    <contour>
      <point x="-5.300000000000001" y="-104.1" type="curve" smooth="yes"/>
      <point x="-5.300000000000001" y="-175.1"/>
      <point x="26.0" y="-210.0"/>
      <point x="71.35" y="-210.0" type="curve" smooth="yes"/>
      <point x="117.4" y="-210.0" type="line"/>
      <point x="133.05" y="-119.6" type="line"/>
      <point x="112.85" y="-119.6" type="line" smooth="yes"/>
      <point x="92.35" y="-119.6"/>
      <point x="83.1" y="-101.39999999999999"/>
      <point x="83.1" y="-72.3" type="curve" smooth="yes"/>
      <point x="83.1" y="20.1"/>
      <point x="143.8" y="99.05"/>
      <point x="143.8" y="186.3" type="curve" smooth="yes"/>
      <point x="143.8" y="219.0"/>
      <point x="136.85" y="249.6"/>
      <point x="113.1" y="269.05" type="curve"/>
      <point x="161.8" y="295.6"/>
      <point x="183.4" y="366.25"/>
      <point x="183.4" y="425.05" type="curve" smooth="yes"/>
      <point x="183.4" y="462.2"/>
      <point x="180.85" y="488.45"/>
      <point x="180.85" y="533.25" type="curve" smooth="yes"/>
      <point x="180.85" y="585.3"/>
      <point x="194.05" y="649.6"/>
      <point x="238.95" y="649.6" type="curve" smooth="yes"/>
      <point x="256.25" y="649.6" type="line"/>
      <point x="270.8" y="740.0" type="line"/>
      <point x="227.0" y="740.0" type="line" smooth="yes"/>
      <point x="127.35" y="740.0"/>
      <point x="95.75" y="628.25"/>
      <point x="95.75" y="523.7" type="curve" smooth="yes"/>
      <point x="95.75" y="477.2"/>
      <point x="99.95" y="450.05"/>
      <point x="99.95" y="417.05" type="curve" smooth="yes"/>
      <point x="99.95" y="375.6"/>
      <point x="93.7" y="316.9"/>
      <point x="57.3" y="316.9" type="curve" smooth="yes"/>
      <point x="43.75" y="316.9" type="line"/>
      <point x="28.65" y="222.0" type="line"/>
      <point x="41.3" y="222.0" type="line" smooth="yes"/>
      <point x="59.0" y="222.0"/>
      <point x="63.55" y="207.7"/>
      <point x="63.55" y="187.1" type="curve" smooth="yes"/>
      <point x="63.55" y="100.75"/>
      <point x="-5.300000000000001" y="11.1"/>
    </contour>
  </outline>
</glyph>
<glyph name="bar" format="2">
  <advance width="136.8"/>
  <unicode hex="007C"/>
  <outline>
    <contour>
      <point x="192.95" y="790.55" type="line"/>
      <point x="107.3" y="790.55" type="line"/>
      <point x="-51.7" y="-210.0" type="line"/>
      <point x="34.50000000000001" y="-210.0" type="line"/>
    </contour>
  </outline>
</glyph>
<glyph name="braceright" format="2">
  <advance width="214.7"/>
  <unicode hex="007D"/>
  <outline>
    <contour>
      <point x="217.0" y="634.1" type="curve" smooth="yes"/>
      <point x="217.0" y="705.65"/>
      <point x="185.15" y="740.55"/>
      <point x="139.8" y="740.55" type="curve" smooth="yes"/>
      <point x="93.75" y="740.55" type="line"/>
      <point x="78.1" y="650.15" type="line"/>
      <point x="92.8" y="650.15" type="line" smooth="yes"/>
      <point x="113.85" y="650.15"/>
      <point x="123.65" y="631.4"/>
      <point x="123.65" y="602.3" type="curve" smooth="yes"/>
      <point x="123.65" y="508.8"/>
      <point x="62.95" y="444.9"/>
      <point x="62.95" y="346.1" type="curve" smooth="yes"/>
      <point x="62.95" y="315.05"/>
      <point x="69.35" y="284.45"/>
      <point x="94.2" y="265.55" type="curve"/>
      <point x="45.5" y="238.45"/>
      <point x="23.349999999999998" y="168.9"/>
      <point x="23.349999999999998" y="109.55" type="curve" smooth="yes"/>
      <point x="23.349999999999998" y="72.4"/>
      <point x="25.9" y="42.1"/>
      <point x="25.9" y="-1.5999999999999979" type="curve" smooth="yes"/>
      <point x="25.9" y="-53.65"/>
      <point x="13.249999999999998" y="-119.05"/>
      <point x="-31.65" y="-119.05" type="curve" smooth="yes"/>
      <point x="-44.55" y="-119.05" type="line"/>
      <point x="-59.1" y="-210.0" type="line"/>
      <point x="-15.849999999999998" y="-210.0" type="line" smooth="yes"/>
      <point x="83.80000000000001" y="-210.0"/>
      <point x="115.4" y="-91.1"/>
      <point x="115.4" y="-4.149999999999999" type="curve" smooth="yes"/>
      <point x="115.4" y="57.2"/>
      <point x="111.2" y="90.6"/>
      <point x="111.2" y="119.75" type="curve" smooth="yes"/>
      <point x="111.2" y="160.1"/>
      <point x="118.55000000000001" y="217.7"/>
      <point x="153.85" y="217.7" type="curve" smooth="yes"/>
      <point x="167.4" y="217.7" type="line"/>
      <point x="182.5" y="312.05" type="line"/>
      <point x="169.85" y="312.05" type="line" smooth="yes"/>
      <point x="152.15" y="312.05"/>
      <point x="147.6" y="326.35"/>
      <point x="147.6" y="346.95" type="curve" smooth="yes"/>
      <point x="147.6" y="433.85"/>
      <point x="217.0" y="511.2"/>
    </contour>
  </outline>
</glyph>
<glyph name="asciitilde" format="2">
  <advance width="369.2"/>
  <unicode hex="007E"/>
  <outline>
    <contour>
      <point x="311.2" y="243.75" type="curve"/>
      <point x="326.2" y="340.8" type="line"/>
      <point x="302.8" y="315.9"/>
      <point x="283.3" y="306.55"/>
      <point x="261.0" y="306.55" type="curve" smooth="yes"/>
      <point x="204.7" y="306.55"/>
      <point x="196.0" y="396.2"/>
      <point x="136.8" y="396.2" type="curve" smooth="yes"/>
      <point x="106.55" y="396.2"/>
      <point x="78.7" y="378.4"/>
      <point x="67.85" y="364.2" type="curve"/>
      <point x="52.85" y="267.15" type="line"/>
      <point x="64.6" y="282.7"/>
      <point x="92.45" y="301.4"/>
      <point x="121.35" y="301.4" type="curve" smooth="yes"/>
      <point x="176.5" y="301.4"/>
      <point x="185.65" y="211.75"/>
      <point x="246.0" y="211.75" type="curve" smooth="yes"/>
      <point x="269.65" y="211.75"/>
      <point x="288.7" y="220.2"/>
    </contour>
  </outline>
</glyph>
<glyph name="cent" format="2">
  <advance width="343.5"/>
  <unicode hex="00A2"/>
  <outline>
    <contour>
      <point x="97.5" y="-105.55" type="line"/>
      <point x="185.35000000000002" y="-105.55" type="line"/>
      <point x="200.9" y="-5.6" type="line"/>
      <point x="220.75" y="-2.9499999999999993"/>
      <point x="239.5" y="1.25"/>
      <point x="252.4" y="7.9" type="curve"/>
      <point x="251.05" y="111.9" type="line"/>
      <point x="235.4" y="107.45"/>
      <point x="216.4" y="103.25000000000001"/>
      <point x="203.10000000000002" y="103.25000000000001" type="curve" smooth="yes"/>
      <point x="167.2" y="103.25000000000001"/>
      <point x="157.15" y="136.0"/>
      <point x="157.15" y="183.35000000000002" type="curve" smooth="yes"/>
      <point x="157.15" y="310.45"/>
      <point x="192.5" y="436.3"/>
      <point x="256.15" y="436.3" type="curve" smooth="yes"/>
      <point x="269.35" y="436.3"/>
      <point x="283.0" y="433.85"/>
      <point x="295.45" y="429.3" type="curve"/>
      <point x="329.4" y="538.05" type="line"/>
      <point x="318.4" y="542.15"/>
      <point x="305.55" y="545.7"/>
      <point x="291.15" y="547.8" type="curve"/>
      <point x="307.15" y="645.45" type="line"/>
      <point x="219.3" y="645.45" type="line"/>
      <point x="202.2" y="540.1" type="line"/>
      <point x="102.25" y="498.9"/>
      <point x="52.35" y="311.9"/>
      <point x="52.35" y="139.75" type="curve" smooth="yes"/>
      <point x="52.35" y="54.150000000000006"/>
      <point x="77.95" y="15.150000000000002"/>
      <point x="113.15" y="-0.1999999999999993" type="curve"/>
    </contour>
  </outline>
</glyph>
<glyph name="sterling" format="2">
  <advance width="343.5"/>
  <unicode hex="00A3"/>
  <outline>
    <contour>
      <point x="14.6" y="0.0" type="line"/>
      <point x="253.4" y="0.0" type="line"/>
      <point x="268.5" y="97.00000000000001" type="line"/>
      <point x="144.10000000000002" y="97.00000000000001" type="line"/>
      <point x="186.10000000000002" y="155.0"/>
      <point x="216.3" y="213.4"/>
      <point x="216.3" y="299.4" type="curve" smooth="yes"/>
      <point x="216.3" y="351.3"/>
      <point x="203.6" y="403.59999999999997"/>
      <point x="203.6" y="454.3" type="curve" smooth="yes"/>
      <point x="203.6" y="560.4"/>
      <point x="245.8" y="603.0"/>
      <point x="287.1" y="603.0" type="curve" smooth="yes"/>
      <point x="302.70000000000005" y="603.0"/>
      <point x="316.5" y="600.2"/>
      <point x="332.40000000000003" y="591.4" type="curve"/>
      <point x="363.40000000000003" y="684.1999999999999" type="line"/>
      <point x="341.70000000000005" y="700.8000000000001"/>
      <point x="309.40000000000003" y="710.0"/>
      <point x="280.5" y="710.0" type="curve" smooth="yes"/>
      <point x="165.4" y="710.0"/>
      <point x="108.60000000000001" y="600.4"/>
      <point x="108.60000000000001" y="469.1" type="curve" smooth="yes"/>
      <point x="108.60000000000001" y="394.2"/>
      <point x="125.8" y="349.5"/>
      <point x="125.8" y="285.7" type="curve" smooth="yes"/>
      <point x="125.8" y="194.20000000000002"/>
      <point x="77.3" y="128.7"/>
      <point x="24.5" y="73.9" type="curve"/>
    </contour>
    <contour>
      <point x="58.9" y="326.2" type="line"/>
      <point x="289.2" y="326.2" type="line"/>
      <point x="298.70000000000005" y="393.8" type="line"/>
      <point x="69.3" y="393.8" type="line"/>
    </contour>
  </outline>
</glyph>
<glyph name="currency" format="2">
  <advance width="379.3"/>
  <unicode hex="00A4"/>
  <outline>
    <contour>
      <point x="60.050000000000004" y="104.75" type="line"/>
      <point x="125.75" y="167.1" type="line"/>
      <point x="137.8" y="157.0"/>
      <point x="154.0" y="152.05"/>
      <point x="173.0" y="152.05" type="curve" smooth="yes"/>
      <point x="190.9" y="152.05"/>
      <point x="208.35" y="157.0"/>
      <point x="223.55" y="166.55" type="curve"/>
      <point x="270.2" y="104.75" type="line"/>
      <point x="342.3" y="173.2" type="line"/>
      <point x="300.15" y="228.95" type="line"/>
      <point x="315.6" y="249.25"/>
      <point x="325.9" y="274.95"/>
      <point x="327.0" y="302.0" type="curve" smooth="yes"/>
      <point x="328.1" y="319.4"/>
      <point x="325.4" y="336.0"/>
      <point x="319.9" y="351.25" type="curve"/>
      <point x="379.55" y="407.0" type="line"/>
      <point x="328.95" y="475.45" type="line"/>
      <point x="264.35" y="415.3" type="line"/>
      <point x="251.85" y="424.85"/>
      <point x="235.65" y="430.8"/>
      <point x="217.2" y="430.8" type="curve" smooth="yes"/>
      <point x="197.65" y="430.8"/>
      <point x="179.1" y="424.3"/>
      <point x="162.8" y="414.75" type="curve"/>
      <point x="118.80000000000001" y="475.45" type="line"/>
      <point x="46.5" y="407.0" type="line"/>
      <point x="88.95" y="348.95" type="line"/>
      <point x="74.6" y="329.85"/>
      <point x="65.3" y="306.25"/>
      <point x="64.2" y="280.85" type="curve" smooth="yes"/>
      <point x="63.1" y="263.0"/>
      <point x="65.25" y="245.95"/>
      <point x="70.75" y="231.25" type="curve"/>
      <point x="9.25" y="173.2" type="line"/>
    </contour>
    <contour>
      <point x="185.25" y="224.3" type="curve" smooth="yes"/>
      <point x="153.4" y="224.3"/>
      <point x="132.8" y="247.8"/>
      <point x="134.45" y="281.65" type="curve" smooth="yes"/>
      <point x="136.1" y="323.4"/>
      <point x="169.15" y="358.0"/>
      <point x="205.95" y="358.0" type="curve" smooth="yes"/>
      <point x="238.25" y="358.0"/>
      <point x="257.85" y="332.85"/>
      <point x="256.2" y="299.65" type="curve" smooth="yes"/>
      <point x="254.55" y="257.25"/>
      <point x="222.5" y="224.3"/>
    </contour>
  </outline>
</glyph>
<glyph name="yen" format="2">
  <advance width="343.5"/>
  <unicode hex="00A5"/>
  <outline>
    <contour>
      <point x="58.0" y="312.9" type="line"/>
      <point x="130.0" y="312.9" type="line"/>
      <point x="120.7" y="255.70000000000002" type="line"/>
      <point x="49.6" y="255.70000000000002" type="line"/>
      <point x="38.3" y="189.0" type="line"/>
      <point x="110.3" y="189.0" type="line"/>
      <point x="80.5" y="0.0" type="line"/>
      <point x="177.7" y="0.0" type="line"/>
      <point x="207.60000000000002" y="189.0" type="line"/>
      <point x="281.3" y="189.0" type="line"/>
      <point x="291.70000000000005" y="255.70000000000002" type="line"/>
      <point x="217.90000000000003" y="255.70000000000002" type="line"/>
      <point x="227.20000000000002" y="312.9" type="line"/>
      <point x="301.1" y="312.9" type="line"/>
      <point x="311.5" y="379.59999999999997" type="line"/>
      <point x="238.6" y="379.59999999999997" type="line"/>
      <point x="384.20000000000005" y="701.0" type="line"/>
      <point x="279.3" y="703.6" type="line"/>
      <point x="202.60000000000002" y="458.70000000000005" type="line"/>
      <point x="199.20000000000002" y="700.9" type="line"/>
      <point x="94.3" y="700.0" type="line"/>
      <point x="140.5" y="379.59999999999997" type="line"/>
      <point x="68.39999999999999" y="379.59999999999997" type="line"/>
    </contour>
  </outline>
</glyph>
<glyph name="brokenbar" format="2">
  <advance width="140.0"/>
  <unicode hex="00A6"/>
  <outline>
    <contour>
      <point x="131.15" y="391.0" type="line"/>
      <point x="196.25" y="790.55" type="line"/>
      <point x="110.6" y="790.55" type="line"/>
      <point x="45.5" y="391.0" type="line"/>
    </contour>
    <contour>
      <point x="12.849999999999998" y="190.55" type="line"/>
      <point x="-51.25" y="-210.0" type="line"/>
      <point x="34.400000000000006" y="-210.0" type="line"/>
      <point x="99.05000000000001" y="190.55" type="line"/>
    </contour>
  </outline>
</glyph>
<glyph name="section" format="2">
  <advance width="367.4"/>
  <unicode hex="00A7"/>
  <outline>
    <contour>
      <point x="4.800000000000001" y="-76.6" type="curve"/>
      <point x="-35.5" y="-185.0" type="line"/>
      <point x="-6.300000000000001" y="-208.25"/>
      <point x="42.3" y="-220.0"/>
      <point x="72.55" y="-220.0" type="curve" smooth="yes"/>
      <point x="231.65" y="-220.0"/>
      <point x="322.3" y="-22.049999999999997"/>
      <point x="322.3" y="153.05" type="curve" smooth="yes"/>
      <point x="322.3" y="296.45"/>
      <point x="250.45" y="401.6"/>
      <point x="250.45" y="530.55" type="curve" smooth="yes"/>
      <point x="250.45" y="586.0"/>
      <point x="272.65" y="631.65"/>
      <point x="311.15" y="631.65" type="curve" smooth="yes"/>
      <point x="321.7" y="631.65"/>
      <point x="329.4" y="627.55"/>
      <point x="341.85" y="620.55" type="curve"/>
      <point x="383.65" y="729.1" type="line"/>
      <point x="363.8" y="743.25"/>
      <point x="322.6" y="749.55"/>
      <point x="300.1" y="749.55" type="curve" smooth="yes"/>
      <point x="128.3" y="749.55"/>
      <point x="44.55" y="570.5"/>
      <point x="44.55" y="387.25" type="curve" smooth="yes"/>
      <point x="44.55" y="223.4"/>
      <point x="115.95" y="93.65"/>
      <point x="115.95" y="-21.9" type="curve" smooth="yes"/>
      <point x="115.95" y="-65.3"/>
      <point x="95.5" y="-103.1"/>
      <point x="59.95" y="-103.1" type="curve" smooth="yes"/>
      <point x="41.05" y="-103.1"/>
      <point x="20.8" y="-94.94999999999999"/>
    </contour>
    <contour>
      <point x="246.85" y="678.35" type="curve"/>
      <point x="201.5" y="637.95"/>
      <point x="182.85" y="573.1"/>
      <point x="182.85" y="516.4" type="curve" smooth="yes"/>
      <point x="182.85" y="376.4"/>
      <point x="250.95" y="275.2"/>
      <point x="250.95" y="131.55" type="curve" smooth="yes"/>
      <point x="250.95" y="6.300000000000001"/>
      <point x="186.15" y="-134.25"/>
      <point x="97.45" y="-150.2" type="curve"/>
      <point x="162.75" y="-116.75"/>
      <point x="185.1" y="-51.349999999999994"/>
      <point x="185.1" y="12.050000000000011" type="curve" smooth="yes"/>
      <point x="185.1" y="138.8"/>
      <point x="115.9" y="259.5"/>
      <point x="115.9" y="395.3" type="curve" smooth="yes"/>
      <point x="115.9" y="519.2"/>
      <point x="158.7" y="635.85"/>
    </contour>
  </outline>
</glyph>
<glyph name="copyright" format="2">
  <advance width="486.85"/>
  <unicode hex="00A9"/>
  <outline>
    <contour>
      <point x="212.4" y="-10.0" type="curve" smooth="yes"/>
      <point x="387.8" y="-10.0"/>
      <point x="476.25" y="256.2"/>
      <point x="476.25" y="499.35" type="curve" smooth="yes"/>
      <point x="476.25" y="644.0"/>
      <point x="409.0" y="711.35"/>
      <point x="298.35" y="711.35" type="curve" smooth="yes"/>
      <point x="122.5" y="711.35"/>
      <point x="34.05" y="445.15"/>
      <point x="34.05" y="202.0" type="curve" smooth="yes"/>
      <point x="34.05" y="57.35"/>
      <point x="101.30000000000001" y="-10.0"/>
    </contour>
    <contour>
      <point x="237.75" y="136.3" type="curve" smooth="yes"/>
      <point x="254.10000000000002" y="136.3"/>
      <point x="277.35" y="140.5"/>
      <point x="290.20000000000005" y="147.45" type="curve"/>
      <point x="290.20000000000005" y="208.35" type="line"/>
      <point x="282.55" y="205.25"/>
      <point x="268.3" y="203.15"/>
      <point x="260.0" y="203.15" type="curve" smooth="yes"/>
      <point x="235.45" y="203.15"/>
      <point x="221.5" y="229.8"/>
      <point x="221.5" y="275.2" type="curve" smooth="yes"/>
      <point x="221.5" y="377.45"/>
      <point x="254.10000000000002" y="483.05"/>
      <point x="299.65" y="483.05" type="curve" smooth="yes"/>
      <point x="308.55" y="483.05"/>
      <point x="316.65" y="481.95"/>
      <point x="324.1" y="477.85" type="curve"/>
      <point x="345.5" y="547.55" type="line"/>
      <point x="336.4" y="552.75"/>
      <point x="322.0" y="557.05"/>
      <point x="300.0" y="557.05" type="curve" smooth="yes"/>
      <point x="224.65" y="557.05"/>
      <point x="151.8" y="434.9"/>
      <point x="151.8" y="275.2" type="curve" smooth="yes"/>
      <point x="151.8" y="181.35"/>
      <point x="182.75" y="136.3"/>
    </contour>
    <contour>
      <point x="215.15" y="26.700000000000003" type="curve" smooth="yes"/>
      <point x="127.15" y="26.700000000000003"/>
      <point x="72.85" y="80.80000000000001"/>
      <point x="72.85" y="203.7" type="curve" smooth="yes"/>
      <point x="72.85" y="419.7"/>
      <point x="146.3" y="674.65"/>
      <point x="295.15" y="674.65" type="curve" smooth="yes"/>
      <point x="383.15" y="674.65"/>
      <point x="437.45000000000005" y="620.55"/>
      <point x="437.45000000000005" y="497.65" type="curve" smooth="yes"/>
      <point x="437.45000000000005" y="281.65"/>
      <point x="364.0" y="26.700000000000003"/>
    </contour>
  </outline>
</glyph>
<glyph name="ordfeminine" format="2">
  <advance width="237.0"/>
  <unicode hex="00AA"/>
  <outline>
    <contour>
      <point x="27.9" y="268.45" type="line"/>
      <point x="212.25" y="268.45" type="line"/>
      <point x="220.75" y="322.95" type="line"/>
      <point x="36.4" y="322.95" type="line"/>
    </contour>
    <component base="a.superior" xOffset="8.9"/>
  </outline>
</glyph>
<glyph name="logicalnot" format="2">
  <advance width="365.4"/>
  <unicode hex="00AC"/>
  <outline>
    <contour>
      <point x="51.75" y="337.05" type="line"/>
      <point x="240.0" y="337.05" type="line"/>
      <point x="215.8" y="178.1" type="line"/>
      <point x="307.95" y="178.1" type="line"/>
      <point x="347.25" y="427.65" type="line"/>
      <point x="66.85" y="427.65" type="line"/>
    </contour>
  </outline>
</glyph>
<glyph name="registered" format="2">
  <advance width="461.0"/>
  <unicode hex="00AE"/>
  <outline>
    <contour>
      <point x="231.75" y="208.0" type="curve" smooth="yes"/>
      <point x="374.65" y="208.0"/>
      <point x="480.95000000000005" y="419.65"/>
      <point x="480.95000000000005" y="679.75" type="curve" smooth="yes"/>
      <point x="480.95000000000005" y="818.7"/>
      <point x="424.95000000000005" y="893.9"/>
      <point x="316.7" y="893.9" type="curve" smooth="yes"/>
      <point x="173.8" y="893.9"/>
      <point x="67.5" y="682.25"/>
      <point x="67.5" y="422.15" type="curve" smooth="yes"/>
      <point x="67.5" y="283.2"/>
      <point x="123.5" y="208.0"/>
    </contour>
    <contour>
      <point x="233.95" y="242.15" type="curve" smooth="yes"/>
      <point x="148.25" y="242.15"/>
      <point x="102.65" y="306.2"/>
      <point x="102.65" y="421.4" type="curve" smooth="yes"/>
      <point x="102.65" y="659.55"/>
      <point x="191.95" y="859.75"/>
      <point x="314.5" y="859.75" type="curve" smooth="yes"/>
      <point x="400.20000000000005" y="859.75"/>
      <point x="445.8" y="795.7"/>
      <point x="445.8" y="680.5" type="curve" smooth="yes"/>
      <point x="445.8" y="442.35"/>
      <point x="356.5" y="242.15"/>
    </contour>
    <contour>
      <point x="166.6" y="371.05" type="line"/>
      <point x="229.8" y="371.05" type="line"/>
      <point x="250.7" y="501.2" type="line"/>
      <point x="256.3" y="500.3"/>
      <point x="261.9" y="499.4"/>
      <point x="269.4" y="499.85" type="curve"/>
      <point x="272.35" y="505.6" type="line"/>
      <point x="337.35" y="513.25"/>
      <point x="378.85" y="572.9"/>
      <point x="378.85" y="654.1" type="curve" smooth="yes"/>
      <point x="378.85" y="721.95"/>
      <point x="349.45" y="754.0"/>
      <point x="298.25" y="754.0" type="curve" smooth="yes"/>
      <point x="269.5" y="754.0"/>
      <point x="248.60000000000002" y="751.45"/>
      <point x="226.15" y="747.45" type="curve"/>
    </contour>
    <contour>
      <point x="271.7" y="553.35" type="curve" smooth="yes"/>
      <point x="266.55" y="553.35"/>
      <point x="262.2" y="554.8"/>
      <point x="258.75" y="555.8" type="curve"/>
      <point x="280.75" y="692.1" type="line"/>
      <point x="286.55" y="693.55"/>
      <point x="291.45" y="694.55"/>
      <point x="297.15" y="694.55" type="curve" smooth="yes"/>
      <point x="310.3" y="694.55"/>
      <point x="316.65" y="680.2"/>
      <point x="316.65" y="655.0" type="curve" smooth="yes"/>
      <point x="316.65" y="598.7"/>
      <point x="295.65" y="553.35"/>
    </contour>
    <contour>
      <point x="321.2" y="366.4" type="curve" smooth="yes"/>
      <point x="326.95" y="366.4"/>
      <point x="338.75" y="368.5"/>
      <point x="344.05" y="371.15" type="curve"/>
      <point x="351.1" y="440.85" type="line"/>
      <point x="349.1" y="439.95"/>
      <point x="347.1" y="439.95"/>
      <point x="345.55" y="439.95" type="curve" smooth="yes"/>
      <point x="327.95000000000005" y="439.95"/>
      <point x="320.05" y="463.45"/>
      <point x="314.05" y="531.55" type="curve"/>
      <point x="262.75" y="517.0" type="line"/>
      <point x="276.65" y="376.1"/>
      <point x="292.4" y="366.4"/>
    </contour>
  </outline>
</glyph>
<glyph name="degree" format="2">
  <advance width="251.95"/>
  <unicode hex="00B0"/>
  <outline>
    <contour>
      <point x="152.1" y="438.6" type="curve" smooth="yes"/>
      <point x="238.2" y="438.6"/>
      <point x="278.4" y="537.45"/>
      <point x="278.4" y="616.45" type="curve" smooth="yes"/>
      <point x="278.4" y="674.1"/>
      <point x="255.0" y="718.1"/>
      <point x="196.1" y="718.1" type="curve" smooth="yes"/>
      <point x="109.65" y="718.1"/>
      <point x="69.25" y="619.0"/>
      <point x="69.25" y="540.0" type="curve" smooth="yes"/>
      <point x="69.25" y="481.05"/>
      <point x="94.95" y="438.6"/>
    </contour>
    <contour>
      <point x="163.9" y="516.9" type="curve" smooth="yes"/>
      <point x="144.35" y="516.9"/>
      <point x="135.65" y="533.2"/>
      <point x="135.65" y="557.4" type="curve" smooth="yes"/>
      <point x="135.65" y="595.25"/>
      <point x="151.75" y="637.6"/>
      <point x="183.2" y="637.6" type="curve" smooth="yes"/>
      <point x="203.3" y="637.6"/>
      <point x="212.0" y="620.4"/>
      <point x="212.0" y="596.75" type="curve" smooth="yes"/>
      <point x="212.0" y="559.0"/>
      <point x="195.35" y="516.9"/>
    </contour>
  </outline>
</glyph>
<glyph name="plusminus" format="2">
  <advance width="366.3"/>
  <unicode hex="00B1"/>
  <outline>
    <contour>
      <point x="287.05" y="33.3" type="line"/>
      <point x="302.15" y="129.85" type="line"/>
      <point x="203.8" y="129.85" type="line"/>
      <point x="225.8" y="267.1" type="line"/>
      <point x="323.7" y="267.1" type="line"/>
      <point x="338.8" y="363.65" type="line"/>
      <point x="240.9" y="363.65" type="line"/>
      <point x="263.45" y="494.85" type="line"/>
      <point x="175.7" y="494.85" type="line"/>
      <point x="153.6" y="363.65" type="line"/>
      <point x="54.8" y="363.65" type="line"/>
      <point x="39.7" y="267.1" type="line"/>
      <point x="138.05" y="267.1" type="line"/>
      <point x="116.05" y="129.85" type="line"/>
      <point x="18.15" y="129.85" type="line"/>
      <point x="3.05" y="33.3" type="line"/>
    </contour>
  </outline>
</glyph>
<glyph name="uni00B2" format="2">
  <advance width="223.4"/>
  <unicode hex="00B2"/>
  <outline>
    <contour>
      <point x="45.1" y="368.65" type="line"/>
      <point x="202.65" y="368.65" type="line"/>
      <point x="211.8" y="420.85" type="line"/>
      <point x="120.1" y="420.85" type="line"/>
      <point x="184.4" y="512.6"/>
      <point x="247.65" y="605.8"/>
      <point x="247.65" y="699.25" type="curve" smooth="yes"/>
      <point x="247.65" y="743.95"/>
      <point x="224.75" y="773.55"/>
      <point x="181.9" y="773.55" type="curve" smooth="yes"/>
      <point x="149.25" y="773.55"/>
      <point x="119.8" y="761.35"/>
      <point x="95.2" y="740.0" type="curve"/>
      <point x="109.05" y="677.3" type="line"/>
      <point x="126.2" y="691.6"/>
      <point x="137.4" y="697.15"/>
      <point x="152.95" y="697.15" type="curve" smooth="yes"/>
      <point x="169.3" y="697.15"/>
      <point x="176.1" y="683.0"/>
      <point x="176.1" y="662.8" type="curve" smooth="yes"/>
      <point x="175.65" y="598.65"/>
      <point x="96.4" y="476.75"/>
      <point x="51.8" y="415.65" type="curve"/>
    </contour>
  </outline>
</glyph>
<glyph name="uni00B3" format="2">
  <advance width="235.7"/>
  <unicode hex="00B3"/>
  <outline>
    <contour>
      <point x="43.2" y="392.55" type="line"/>
      <point x="60.9" y="375.2"/>
      <point x="81.2" y="365.1"/>
      <point x="114.3" y="365.1" type="curve" smooth="yes"/>
      <point x="177.5" y="365.1"/>
      <point x="231.0" y="425.85"/>
      <point x="231.0" y="513.45" type="curve" smooth="yes"/>
      <point x="231.0" y="550.45"/>
      <point x="216.2" y="570.35"/>
      <point x="199.45" y="580.65" type="curve"/>
      <point x="232.9" y="602.8"/>
      <point x="257.3" y="644.95"/>
      <point x="257.3" y="699.05" type="curve" smooth="yes"/>
      <point x="257.3" y="749.7"/>
      <point x="226.4" y="775.1"/>
      <point x="184.1" y="775.1" type="curve" smooth="yes"/>
      <point x="156.7" y="775.1"/>
      <point x="128.25" y="766.15"/>
      <point x="104.2" y="747.5" type="curve"/>
      <point x="117.95" y="697.55" type="line"/>
      <point x="129.2" y="705.7"/>
      <point x="145.4" y="710.25"/>
      <point x="158.25" y="710.25" type="curve" smooth="yes"/>
      <point x="179.1" y="710.25"/>
      <point x="190.25" y="695.9"/>
      <point x="190.25" y="670.55" type="curve" smooth="yes"/>
      <point x="190.25" y="634.55"/>
      <point x="170.35" y="599.75"/>
      <point x="147.2" y="599.75" type="curve" smooth="yes"/>
      <point x="124.2" y="599.75" type="line"/>
      <point x="115.6" y="551.2" type="line"/>
      <point x="143.15" y="551.2" type="line" smooth="yes"/>
      <point x="160.9" y="551.2"/>
      <point x="171.0" y="535.85"/>
      <point x="171.0" y="512.2" type="curve" smooth="yes"/>
      <point x="171.0" y="472.1"/>
      <point x="153.65" y="427.2"/>
      <point x="114.75" y="427.2" type="curve" smooth="yes"/>
      <point x="99.3" y="427.2"/>
      <point x="88.4" y="432.0"/>
      <point x="76.0" y="444.25" type="curve"/>
    </contour>
  </outline>
</glyph>
<glyph name="uni00B5" format="2">
  <advance width="333.6"/>
  <unicode hex="00B5"/>
  <outline>
    <contour>
      <point x="-44.5" y="-210.0" type="line"/>
      <point x="51.60000000000001" y="-210.0" type="line"/>
      <point x="85.4" y="2.1499999999999986" type="line"/>
      <point x="90.0" y="-6.4"/>
      <point x="98.1" y="-10.0"/>
      <point x="108.55000000000001" y="-10.0" type="curve" smooth="yes"/>
      <point x="130.05" y="-10.0"/>
      <point x="153.85" y="0.0"/>
      <point x="178.45" y="27.700000000000003" type="curve"/>
      <point x="185.85" y="6.700000000000001"/>
      <point x="207.55" y="-10.0"/>
      <point x="236.45" y="-10.0" type="curve" smooth="yes"/>
      <point x="255.45" y="-10.0"/>
      <point x="281.15" y="-2.6999999999999997"/>
      <point x="296.45" y="8.25" type="curve"/>
      <point x="306.3" y="93.2" type="line"/>
      <point x="299.25" y="90.4"/>
      <point x="291.65" y="89.05000000000001"/>
      <point x="287.4" y="89.05000000000001" type="curve" smooth="yes"/>
      <point x="275.9" y="89.05000000000001"/>
      <point x="272.45" y="96.30000000000001"/>
      <point x="272.45" y="107.30000000000001" type="curve" smooth="yes"/>
      <point x="272.45" y="115.0"/>
      <point x="274.35" y="128.85000000000002"/>
      <point x="340.55" y="541.0" type="curve"/>
      <point x="244.55" y="541.0" type="line"/>
      <point x="174.7" y="105.10000000000001" type="line"/>
      <point x="159.25" y="92.9"/>
      <point x="141.85" y="87.30000000000001"/>
      <point x="130.35" y="87.30000000000001" type="curve" smooth="yes"/>
      <point x="112.9" y="87.30000000000001"/>
      <point x="103.95" y="98.80000000000001"/>
      <point x="105.05000000000001" y="116.45" type="curve" smooth="yes"/>
      <point x="117.7" y="188.35000000000002"/>
      <point x="137.95" y="331.9"/>
      <point x="170.9" y="541.0" type="curve"/>
      <point x="74.35" y="541.0" type="line"/>
    </contour>
  </outline>
</glyph>
<glyph name="paragraph" format="2">
  <advance width="441.75"/>
  <unicode hex="00B6"/>
  <outline>
    <contour>
      <point x="254.9" y="-210.0" type="line"/>
      <point x="331.2" y="-210.0" type="line"/>
      <point x="482.85" y="740.0" type="line"/>
      <point x="406.55" y="740.0" type="line"/>
    </contour>
    <contour>
      <point x="186.45" y="295.1" type="line"/>
      <point x="155.45" y="303.6"/>
      <point x="136.3" y="344.2"/>
      <point x="136.3" y="406.85" type="curve" smooth="yes"/>
      <point x="136.3" y="517.2"/>
      <point x="178.3" y="639.0"/>
      <point x="262.8" y="642.8" type="curve"/>
      <point x="127.35" y="-210.0" type="line"/>
      <point x="203.65" y="-210.0" type="line"/>
      <point x="355.3" y="740.0" type="line"/>
      <point x="307.2" y="740.0" type="line" smooth="yes"/>
      <point x="141.45" y="740.0"/>
      <point x="49.0" y="576.55"/>
      <point x="49.0" y="399.15" type="curve" smooth="yes"/>
      <point x="49.0" y="308.25"/>
      <point x="84.25" y="241.5"/>
      <point x="163.3" y="220.65" type="curve"/>
    </contour>
  </outline>
</glyph>
<glyph name="periodcentered" format="2">
  <advance width="145.0"/>
  <unicode hex="00B7"/>
  <outline>
    <contour>
      <point x="21.45" y="287.55" type="curve" smooth="yes"/>
      <point x="20.549999999999997" y="252.65"/>
      <point x="33.1" y="237.55"/>
      <point x="66.55" y="237.55" type="curve" smooth="yes"/>
      <point x="118.7" y="237.55"/>
      <point x="132.35000000000002" y="290.25"/>
      <point x="133.25" y="333.2" type="curve" smooth="yes"/>
      <point x="134.15" y="366.55"/>
      <point x="122.05000000000001" y="382.1"/>
      <point x="89.15" y="382.1" type="curve" smooth="yes"/>
      <point x="37.55" y="382.1"/>
      <point x="22.35" y="330.5"/>
    </contour>
  </outline>
</glyph>
<glyph name="uni00B9" format="2">
  <advance width="213.25"/>
  <unicode hex="00B9"/>
  <outline>
    <contour>
      <point x="38.85" y="370.0" type="line"/>
      <point x="207.5" y="370.0" type="line"/>
      <point x="217.75" y="427.7" type="line"/>
      <point x="167.75" y="427.7" type="line"/>
      <point x="225.45" y="768.9" type="line"/>
      <point x="192.45" y="768.9" type="line"/>
      <point x="92.95" y="722.45" type="line"/>
      <point x="96.55" y="658.4" type="line"/>
      <point x="147.9" y="687.1" type="line"/>
      <point x="104.55" y="427.7" type="line"/>
      <point x="48.45" y="427.7" type="line"/>
    </contour>
  </outline>
</glyph>
<glyph name="ordmasculine" format="2">
  <advance width="221.35"/>
  <unicode hex="00BA"/>
  <outline>
    <contour>
      <point x="28.35" y="268.45" type="line"/>
      <point x="191.05" y="268.45" type="line"/>
      <point x="199.1" y="322.95" type="line"/>
      <point x="36.4" y="322.95" type="line"/>
    </contour>
    <component base="o.superior" xOffset="12.5"/>
  </outline>
</glyph>
<glyph name="AE" format="2">
  <advance width="470.25"/>
  <unicode hex="00C6"/>
  <anchor x="199.3442" y="0.0" name="bottom"/>
  <anchor x="314.25" y="700.0" name="top"/>
  <outline>
    <contour>
      <point x="172.05" y="0.0" type="line"/>
      <point x="415.8" y="0.0" type="line"/>
      <point x="430.9" y="95.45" type="line"/>
      <point x="284.8" y="95.45" type="line"/>
      <point x="316.75" y="301.0" type="line"/>
      <point x="435.9" y="301.0" type="line"/>
      <point x="451.0" y="390.95" type="line"/>
      <point x="331.3" y="390.95" type="line"/>
      <point x="364.6" y="601.8" type="line"/>
      <point x="501.7" y="601.8" type="line"/>
      <point x="518.35" y="700.0" type="line"/>
      <point x="210.65" y="700.0" type="line"/>
      <point x="-40.4" y="0.0" type="line"/>
      <point x="59.25" y="0.0" type="line"/>
      <point x="134.75" y="203.1" type="line"/>
      <point x="203.7" y="203.1" type="line"/>
    </contour>
    <contour>
      <point x="162.0" y="299.65" type="line"/>
      <point x="269.25" y="619.7" type="line"/>
      <point x="218.8" y="299.65" type="line"/>
    </contour>
  </outline>
</glyph>
<glyph name="multiply" format="2">
  <advance width="355.2"/>
  <unicode hex="00D7"/>
  <outline>
    <contour>
      <point x="80.0" y="123.75" type="line"/>
      <point x="172.85" y="245.1" type="line"/>
      <point x="227.7" y="123.75" type="line"/>
      <point x="301.25" y="189.95" type="line"/>
      <point x="244.7" y="317.15" type="line"/>
      <point x="342.5" y="445.25" type="line"/>
      <point x="289.1" y="511.45" type="line"/>
      <point x="195.35" y="389.2" type="line"/>
      <point x="140.5" y="511.45" type="line"/>
      <point x="66.4" y="445.25" type="line"/>
      <point x="123.05" y="317.6" type="line"/>
      <point x="26.05" y="189.95" type="line"/>
    </contour>
  </outline>
</glyph>
<glyph name="Oslash" format="2">
  <advance width="363.90000000000003"/>
  <unicode hex="00D8"/>
  <anchor x="244.20000000000002" y="700.0" name="top"/>
  <outline>
    <contour>
      <point x="395.9" y="710.0" type="line"/>
      <point x="332.4" y="710.0" type="line"/>
      <point x="295.20000000000005" y="635.0" type="line"/>
      <point x="291.0" y="636.1" type="line"/>
      <point x="61.1" y="141.70000000000002" type="line"/>
      <point x="58.00000000000001" y="143.7" type="line"/>
      <point x="-13.7" y="-4.499999999999999" type="line"/>
      <point x="49.7" y="-4.499999999999999" type="line"/>
      <point x="84.5" y="66.5" type="line"/>
      <point x="88.7" y="65.4" type="line"/>
      <point x="320.8" y="564.0999999999999" type="line"/>
      <point x="323.9" y="562.1" type="line"/>
    </contour>
    <contour>
      <point x="146.6" y="-10.0" type="curve" smooth="yes"/>
      <point x="313.0" y="-10.0"/>
      <point x="368.40000000000003" y="334.8"/>
      <point x="368.40000000000003" y="532.1999999999999" type="curve" smooth="yes"/>
      <point x="368.40000000000003" y="658.4"/>
      <point x="328.7" y="710.0"/>
      <point x="235.50000000000003" y="710.0" type="curve" smooth="yes"/>
      <point x="74.3" y="710.0"/>
      <point x="13.700000000000001" y="365.2"/>
      <point x="13.700000000000001" y="168.7" type="curve" smooth="yes"/>
      <point x="13.700000000000001" y="41.599999999999994"/>
      <point x="53.400000000000006" y="-10.0"/>
    </contour>
    <contour>
      <point x="153.2" y="87.20000000000002" type="curve" smooth="yes"/>
      <point x="122.60000000000001" y="87.20000000000002"/>
      <point x="107.50000000000001" y="107.20000000000002"/>
      <point x="107.50000000000001" y="164.5" type="curve" smooth="yes"/>
      <point x="107.50000000000001" y="277.79999999999995"/>
      <point x="154.00000000000003" y="612.8000000000001"/>
      <point x="231.2" y="612.8000000000001" type="curve" smooth="yes"/>
      <point x="260.7" y="612.8000000000001"/>
      <point x="275.7" y="593.6999999999999"/>
      <point x="275.7" y="537.5999999999999" type="curve" smooth="yes"/>
      <point x="275.7" y="428.7"/>
      <point x="228.0" y="87.20000000000002"/>
    </contour>
  </outline>
</glyph>
<glyph name="Thorn" format="2">
  <advance width="333.65"/>
  <unicode hex="00DE"/>
  <outline>
    <contour>
      <point x="-12.55" y="0.0" type="line"/>
      <point x="85.10000000000001" y="0.0" type="line"/>
      <point x="105.2" y="126.5" type="line"/>
      <point x="123.55000000000001" y="123.85"/>
      <point x="135.1" y="123.85"/>
      <point x="153.3" y="123.85" type="curve" smooth="yes"/>
      <point x="262.25" y="123.85"/>
      <point x="342.3" y="266.05"/>
      <point x="342.3" y="455.8" type="curve" smooth="yes"/>
      <point x="342.3" y="562.6"/>
      <point x="304.4" y="617.4"/>
      <point x="209.9" y="617.4" type="curve" smooth="yes"/>
      <point x="201.4" y="617.4"/>
      <point x="191.9" y="616.95"/>
      <point x="182.95" y="616.05" type="curve"/>
      <point x="196.2" y="700.0" type="line"/>
      <point x="98.55" y="700.0" type="line"/>
    </contour>
    <contour>
      <point x="148.55" y="217.65" type="curve" smooth="yes"/>
      <point x="135.55" y="217.65"/>
      <point x="128.85000000000002" y="218.1"/>
      <point x="121.95" y="219.65" type="curve"/>
      <point x="167.75" y="520.15" type="line"/>
      <point x="178.25" y="522.6"/>
      <point x="187.85" y="523.6"/>
      <point x="196.45" y="523.6" type="curve" smooth="yes"/>
      <point x="229.55" y="523.6"/>
      <point x="246.85" y="506.3"/>
      <point x="246.85" y="449.15" type="curve" smooth="yes"/>
      <point x="246.85" y="318.9"/>
      <point x="206.15" y="217.65"/>
    </contour>
  </outline>
</glyph>
<glyph name="germandbls" format="2">
  <advance width="435.25"/>
  <unicode hex="00DF"/>
  <outline>
    <contour>
      <point x="4.5" y="-28.599999999999994" type="line" smooth="yes"/>
      <point x="-5.2" y="-88.6"/>
      <point x="-22.45" y="-120.85"/>
      <point x="-59.0" y="-120.85" type="curve" smooth="yes"/>
      <point x="-70.15" y="-120.85"/>
      <point x="-79.5" y="-119.94999999999999"/>
      <point x="-94.95" y="-114.94999999999999" type="curve"/>
      <point x="-122.6" y="-206.95" type="line"/>
      <point x="-99.25" y="-215.8"/>
      <point x="-76.55" y="-220.0"/>
      <point x="-52.599999999999994" y="-220.0" type="curve" smooth="yes"/>
      <point x="38.45" y="-220.0"/>
      <point x="81.2" y="-158.2"/>
      <point x="101.15" y="-31.949999999999996" type="curve" smooth="yes"/>
      <point x="188.15" y="523.05" type="line" smooth="yes"/>
      <point x="200.65" y="601.95"/>
      <point x="232.65" y="651.25"/>
      <point x="288.45" y="651.25" type="curve" smooth="yes"/>
      <point x="322.5" y="651.25"/>
      <point x="339.85" y="638.9"/>
      <point x="339.85" y="609.85" type="curve" smooth="yes"/>
      <point x="339.85" y="579.7"/>
      <point x="329.15" y="560.25"/>
      <point x="283.85" y="525.55" type="curve" smooth="yes"/>
      <point x="232.0" y="485.5"/>
      <point x="201.55" y="441.55"/>
      <point x="201.55" y="367.8" type="curve" smooth="yes"/>
      <point x="201.55" y="303.9"/>
      <point x="234.1" y="265.95"/>
      <point x="275.0" y="229.1" type="curve" smooth="yes"/>
      <point x="307.7" y="199.4"/>
      <point x="315.05" y="183.05"/>
      <point x="315.05" y="158.9" type="curve" smooth="yes"/>
      <point x="315.05" y="118.80000000000001"/>
      <point x="285.7" y="87.55000000000001"/>
      <point x="242.15" y="87.55000000000001" type="curve" smooth="yes"/>
      <point x="214.2" y="87.55000000000001"/>
      <point x="187.05" y="93.55000000000001"/>
      <point x="163.0" y="103.0" type="curve"/>
      <point x="138.05" y="13.95" type="line"/>
      <point x="162.65" y="0.30000000000000027"/>
      <point x="198.0" y="-10.0"/>
      <point x="243.9" y="-10.0" type="curve" smooth="yes"/>
      <point x="353.70000000000005" y="-10.0"/>
      <point x="416.55" y="59.95"/>
      <point x="416.55" y="170.05" type="curve" smooth="yes"/>
      <point x="416.55" y="232.6"/>
      <point x="390.70000000000005" y="266.9"/>
      <point x="349.25" y="304.1" type="curve" smooth="yes"/>
      <point x="308.8" y="341.3"/>
      <point x="297.1" y="356.65"/>
      <point x="297.1" y="382.9" type="curve" smooth="yes"/>
      <point x="297.1" y="411.65"/>
      <point x="309.6" y="432.9"/>
      <point x="359.65" y="468.1" type="curve" smooth="yes"/>
      <point x="413.25" y="506.2"/>
      <point x="445.3" y="545.25"/>
      <point x="445.3" y="621.0" type="curve" smooth="yes"/>
      <point x="445.3" y="704.7"/>
      <point x="389.5" y="750.0"/>
      <point x="296.6" y="750.0" type="curve" smooth="yes"/>
      <point x="175.45" y="750.0"/>
      <point x="114.35" y="673.65"/>
      <point x="93.8" y="538.45" type="curve" smooth="yes"/>
      <point x="89.3" y="508.75" type="line"/>
      <point x="43.55" y="502.2" type="line"/>
      <point x="29.45" y="417.7" type="line"/>
      <point x="74.3" y="417.7" type="line"/>
    </contour>
  </outline>
</glyph>
<glyph name="ae" format="2">
  <advance width="499.50000000000006"/>
  <unicode hex="00E6"/>
  <anchor x="218.0" y="0.0" name="bottom"/>
  <anchor x="297.70000000000005" y="541.0" name="top"/>
  <outline>
    <contour>
      <point x="101.80000000000001" y="-10.0" type="curve" smooth="yes"/>
      <point x="127.0" y="-10.0"/>
      <point x="146.20000000000002" y="-3.0"/>
      <point x="167.1" y="24.3" type="curve"/>
      <point x="162.0" y="-4.5" type="line"/>
      <point x="251.90000000000003" y="-4.5" type="line"/>
      <point x="261.40000000000003" y="57.2" type="line"/>
      <point x="279.20000000000005" y="16.999999999999996"/>
      <point x="316.6" y="-8.899999999999999"/>
      <point x="359.00000000000006" y="-8.899999999999999" type="curve" smooth="yes"/>
      <point x="392.3" y="-8.899999999999999"/>
      <point x="426.90000000000003" y="-0.6999999999999997"/>
      <point x="454.70000000000005" y="19.900000000000002" type="curve"/>
      <point x="441.09999999999997" y="110.8" type="line"/>
      <point x="410.5" y="95.50000000000001"/>
      <point x="383.90000000000003" y="89.4"/>
      <point x="359.8" y="89.4" type="curve" smooth="yes"/>
      <point x="322.3" y="89.4"/>
      <point x="293.3" y="129.5"/>
      <point x="293.3" y="199.8" type="curve" smooth="yes"/>
      <point x="293.3" y="332.6"/>
      <point x="331.09999999999997" y="459.6"/>
      <point x="390.1" y="459.6" type="curve" smooth="yes"/>
      <point x="408.59999999999997" y="459.6"/>
      <point x="417.3" y="449.2"/>
      <point x="417.3" y="421.59999999999997" type="curve" smooth="yes"/>
      <point x="417.3" y="374.7"/>
      <point x="387.8" y="327.5"/>
      <point x="341.0" y="301.4" type="curve" smooth="yes"/>
      <point x="320.7" y="289.9"/>
      <point x="297.5" y="282.4"/>
      <point x="270.20000000000005" y="280.8" type="curve"/>
      <point x="253.8" y="206.8" type="line"/>
      <point x="290.3" y="208.39999999999998"/>
      <point x="327.5" y="216.3"/>
      <point x="359.8" y="231.1" type="curve" smooth="yes"/>
      <point x="446.90000000000003" y="269.8"/>
      <point x="507.5" y="349.5"/>
      <point x="507.5" y="444.1" type="curve" smooth="yes"/>
      <point x="507.5" y="508.59999999999997"/>
      <point x="480.09999999999997" y="551.0"/>
      <point x="424.9" y="551.0" type="curve" smooth="yes"/>
      <point x="387.59999999999997" y="551.0"/>
      <point x="355.40000000000003" y="529.1"/>
      <point x="326.8" y="489.6" type="curve"/>
      <point x="337.2" y="551.0" type="line"/>
      <point x="250.00000000000003" y="551.0" type="line"/>
      <point x="247.0" y="533.9" type="line"/>
      <point x="234.5" y="546.8000000000001"/>
      <point x="217.20000000000002" y="551.0"/>
      <point x="199.6" y="551.0" type="curve" smooth="yes"/>
      <point x="88.8" y="551.0"/>
      <point x="10.4" y="383.2"/>
      <point x="10.4" y="144.79999999999998" type="curve" smooth="yes"/>
      <point x="10.4" y="46.6"/>
      <point x="44.1" y="-10.0"/>
    </contour>
    <contour>
      <point x="143.8" y="75.0" type="curve" smooth="yes"/>
      <point x="124.1" y="75.0"/>
      <point x="111.80000000000001" y="100.0"/>
      <point x="111.80000000000001" y="146.60000000000002" type="curve" smooth="yes"/>
      <point x="111.80000000000001" y="294.79999999999995"/>
      <point x="154.2" y="458.09999999999997"/>
      <point x="210.9" y="458.09999999999997" type="curve" smooth="yes"/>
      <point x="219.5" y="458.09999999999997"/>
      <point x="228.0" y="456.2"/>
      <point x="233.70000000000002" y="450.6" type="curve"/>
      <point x="177.5" y="87.2" type="line"/>
      <point x="168.0" y="79.60000000000001"/>
      <point x="155.9" y="75.0"/>
    </contour>
  </outline>
</glyph>
<glyph name="eth" format="2">
  <advance width="323.40000000000003"/>
  <unicode hex="00F0"/>
  <outline>
    <contour>
      <point x="246.20000000000002" y="437.2" type="curve"/>
      <point x="264.40000000000003" y="515.4" type="line"/>
      <point x="246.0" y="529.2"/>
      <point x="218.6" y="536.1999999999999"/>
      <point x="192.70000000000002" y="536.1999999999999" type="curve" smooth="yes"/>
      <point x="59.9" y="536.1999999999999"/>
      <point x="6.5" y="315.0"/>
      <point x="6.5" y="145.3" type="curve" smooth="yes"/>
      <point x="6.5" y="38.4"/>
      <point x="48.7" y="-9.9"/>
      <point x="126.8" y="-9.9" type="curve" smooth="yes"/>
      <point x="237.8" y="-9.9"/>
      <point x="277.6" y="67.3"/>
      <point x="316.9" y="322.3" type="curve" smooth="yes"/>
      <point x="328.5" y="397.5"/>
      <point x="336.1" y="459.7"/>
      <point x="336.1" y="509.70000000000005" type="curve" smooth="yes"/>
      <point x="336.1" y="652.0"/>
      <point x="285.40000000000003" y="734.0999999999999"/>
      <point x="165.9" y="734.0999999999999" type="curve" smooth="yes"/>
      <point x="133.8" y="734.0999999999999"/>
      <point x="103.8" y="725.8"/>
      <point x="78.39999999999999" y="718.4" type="curve"/>
      <point x="84.69999999999999" y="641.3000000000001" type="line"/>
      <point x="101.8" y="645.3000000000001"/>
      <point x="122.10000000000001" y="649.4"/>
      <point x="143.29999999999998" y="649.4" type="curve" smooth="yes"/>
      <point x="211.1" y="649.4"/>
      <point x="240.0" y="619.0"/>
      <point x="240.0" y="529.1" type="curve" smooth="yes"/>
      <point x="240.0" y="485.2"/>
      <point x="235.9" y="425.0"/>
      <point x="223.29999999999998" y="346.5" type="curve" smooth="yes"/>
      <point x="187.29999999999998" y="115.10000000000001"/>
      <point x="166.5" y="68.6"/>
      <point x="134.60000000000002" y="68.6" type="curve" smooth="yes"/>
      <point x="113.30000000000001" y="68.6"/>
      <point x="99.60000000000001" y="84.3"/>
      <point x="99.60000000000001" y="123.50000000000001" type="curve" smooth="yes"/>
      <point x="99.60000000000001" y="224.6"/>
      <point x="132.8" y="454.2"/>
      <point x="205.79999999999998" y="454.2" type="curve" smooth="yes"/>
      <point x="218.1" y="454.2"/>
      <point x="233.4" y="450.29999999999995"/>
    </contour>
    <contour>
      <point x="145.60000000000002" y="559.3000000000001" type="line"/>
      <point x="259.4" y="637.6" type="line"/>
      <point x="258.0" y="642.4000000000001" type="line"/>
      <point x="392.90000000000003" y="734.5999999999999" type="line"/>
      <point x="315.3" y="734.6999999999999" type="line"/>
      <point x="228.79999999999998" y="676.1" type="line"/>
      <point x="231.6" y="671.9" type="line"/>
      <point x="67.1" y="559.4" type="line"/>
    </contour>
  </outline>
</glyph>
<glyph name="divide" format="2">
  <advance width="366.3"/>
  <unicode hex="00F7"/>
  <outline>
    <contour>
      <point x="107.7" y="121.10000000000001" type="curve" smooth="yes"/>
      <point x="106.8" y="94.39999999999999"/>
      <point x="119.80000000000001" y="81.39999999999999"/>
      <point x="151.6" y="81.39999999999999" type="curve" smooth="yes"/>
      <point x="191.8" y="81.39999999999999"/>
      <point x="210.7" y="103.29999999999998"/>
      <point x="212.5" y="154.9" type="curve" smooth="yes"/>
      <point x="213.4" y="182.5"/>
      <point x="199.5" y="194.5"/>
      <point x="169.70000000000002" y="194.5" type="curve" smooth="yes"/>
      <point x="127.0" y="194.5"/>
      <point x="109.49999999999999" y="163.8"/>
    </contour>
    <contour>
      <point x="163.6" y="468.2" type="curve" smooth="yes"/>
      <point x="162.7" y="441.5"/>
      <point x="175.60000000000002" y="429.5"/>
      <point x="206.5" y="429.5" type="curve" smooth="yes"/>
      <point x="246.70000000000002" y="429.5"/>
      <point x="266.6" y="451.4"/>
      <point x="268.40000000000003" y="502.0" type="curve" smooth="yes"/>
      <point x="269.3" y="529.6999999999999"/>
      <point x="255.3" y="541.6999999999999"/>
      <point x="225.5" y="541.6999999999999" type="curve" smooth="yes"/>
      <point x="180.7" y="541.6999999999999"/>
      <point x="165.4" y="508.7"/>
    </contour>
    <contour>
      <point x="39.9" y="263.59999999999997" type="line"/>
      <point x="323.9" y="263.59999999999997" type="line"/>
      <point x="339.0" y="360.59999999999997" type="line"/>
      <point x="55.0" y="360.59999999999997" type="line"/>
    </contour>
  </outline>
</glyph>
<glyph name="oslash" format="2">
  <advance width="327.0"/>
  <unicode hex="00F8"/>
  <anchor x="201.6" y="541.0" name="top"/>
  <outline>
    <contour>
      <point x="298.0" y="551.1" type="line"/>
      <point x="252.3" y="474.79999999999995" type="line"/>
      <point x="248.20000000000002" y="475.90000000000003" type="line"/>
      <point x="58.5" y="138.3" type="line"/>
      <point x="56.300000000000004" y="140.3" type="line"/>
      <point x="-33.0" y="-10.0" type="line"/>
      <point x="28.499999999999996" y="-10.0" type="line"/>
      <point x="76.0" y="70.00000000000001" type="line"/>
      <point x="80.10000000000001" y="68.9" type="line"/>
      <point x="270.6" y="405.6" type="line"/>
      <point x="272.8" y="403.6" type="line"/>
      <point x="359.6" y="551.1" type="line"/>
    </contour>
    <contour>
      <point x="131.9" y="-10.0" type="curve" smooth="yes"/>
      <point x="270.3" y="-10.0"/>
      <point x="316.2" y="241.1"/>
      <point x="316.2" y="409.8" type="curve" smooth="yes"/>
      <point x="316.2" y="511.9"/>
      <point x="282.3" y="551.1"/>
      <point x="194.70000000000002" y="551.1" type="curve" smooth="yes"/>
      <point x="56.3" y="551.1"/>
      <point x="10.399999999999999" y="300.0"/>
      <point x="10.399999999999999" y="132.2" type="curve" smooth="yes"/>
      <point x="10.399999999999999" y="30.1"/>
      <point x="45.199999999999996" y="-10.0"/>
    </contour>
    <contour>
      <point x="134.10000000000002" y="80.70000000000002" type="curve" smooth="yes"/>
      <point x="107.80000000000001" y="80.70000000000002"/>
      <point x="98.1" y="95.9"/>
      <point x="98.1" y="135.1" type="curve" smooth="yes"/>
      <point x="98.1" y="195.20000000000002"/>
      <point x="130.5" y="460.40000000000003"/>
      <point x="193.4" y="460.40000000000003" type="curve" smooth="yes"/>
      <point x="219.7" y="460.40000000000003"/>
      <point x="229.4" y="445.2"/>
      <point x="229.4" y="406.90000000000003" type="curve" smooth="yes"/>
      <point x="229.4" y="345.90000000000003"/>
      <point x="197.0" y="80.70000000000002"/>
    </contour>
  </outline>
</glyph>
<glyph name="Dcroat" format="2">
  <advance width="363.6"/>
  <unicode hex="0110"/>
  <outline>
    <contour>
      <point x="12.1" y="306.25" type="line"/>
      <point x="199.4" y="306.25" type="line"/>
      <point x="215.6" y="403.55" type="line"/>
      <point x="28.3" y="403.55" type="line"/>
    </contour>
    <component base="D" xOffset="9.75"/>
  </outline>
</glyph>
<glyph name="dcroat" format="2">
  <advance width="338.55"/>
  <unicode hex="0111"/>
  <outline>
    <contour>
      <point x="165.7" y="617.15" type="line"/>
      <point x="393.9" y="617.15" type="line"/>
      <point x="403.5" y="676.7" type="line"/>
      <point x="175.85" y="676.7" type="line"/>
    </contour>
    <component base="d"/>
  </outline>
</glyph>
<glyph name="Hbar" format="2">
  <advance width="363.7"/>
  <unicode hex="0126"/>
  <outline>
    <contour>
      <point x="34.85" y="502.0" type="line"/>
      <point x="400.85" y="502.0" type="line"/>
      <point x="414.95" y="589.6" type="line"/>
      <point x="48.95" y="589.6" type="line"/>
    </contour>
    <component base="H" xOffset="3.2"/>
  </outline>
</glyph>
<glyph name="hbar" format="2">
  <advance width="338.1"/>
  <unicode hex="0127"/>
  <outline>
    <contour>
      <point x="55.9" y="617.15" type="line"/>
      <point x="254.75" y="617.15" type="line"/>
      <point x="264.35" y="676.7" type="line"/>
      <point x="65.5" y="676.7" type="line"/>
    </contour>
    <component base="h" xOffset="4.4"/>
  </outline>
</glyph>
<glyph name="Idotaccent" format="2">
  <advance width="161.9"/>
  <unicode hex="0130"/>
  <outline>
    <contour>
      <point x="180.3" y="895.45" type="curve" smooth="yes"/>
      <point x="130.0" y="895.45"/>
      <point x="112.95" y="854.4"/>
      <point x="111.6" y="805.65" type="curve" smooth="yes"/>
      <point x="111.15" y="772.9"/>
      <point x="127.7" y="758.6"/>
      <point x="157.35" y="758.6" type="curve" smooth="yes"/>
      <point x="208.2" y="758.6"/>
      <point x="224.7" y="800.75"/>
      <point x="226.05" y="848.95" type="curve" smooth="yes"/>
      <point x="226.5" y="881.7"/>
      <point x="209.4" y="895.45"/>
    </contour>
    <component base="I"/>
  </outline>
</glyph>
<glyph name="dotlessi" format="2">
  <advance width="161.4"/>
  <unicode hex="0131"/>
  <anchor x="36.75" y="0.0" name="bottom"/>
  <anchor x="85.80000000000001" y="0.0" name="ogonek"/>
  <anchor x="122.4" y="541.0" name="top"/>
  <outline>
    <contour>
      <point x="85.80000000000001" y="0.0" type="line"/>
      <point x="171.45" y="541.0" type="line"/>
      <point x="73.8" y="541.0" type="line"/>
      <point x="-11.400000000000002" y="0.0" type="line"/>
    </contour>
  </outline>
</glyph>
<glyph name="kgreenlandic" format="2">
  <advance width="319.70000000000005"/>
  <unicode hex="0138"/>
  <anchor x="136.20000000000002" y="0.0" name="bottom"/>
  <anchor x="203.4" y="541.0" name="top"/>
  <outline>
    <contour>
      <point x="-11.400000000000002" y="0.0" type="line"/>
      <point x="86.70000000000002" y="0.0" type="line"/>
      <point x="171.89999999999998" y="541.0" type="line"/>
      <point x="73.8" y="541.0" type="line"/>
    </contour>
    <contour>
      <point x="247.5" y="-10.0" type="curve" smooth="yes"/>
      <point x="259.0" y="-10.0"/>
      <point x="270.5" y="-8.9"/>
      <point x="283.09999999999997" y="-3.6999999999999997" type="curve"/>
      <point x="296.7" y="101.80000000000001" type="line"/>
      <point x="289.7" y="100.9"/>
      <point x="284.6" y="101.00000000000001"/>
      <point x="279.6" y="102.0" type="curve" smooth="yes"/>
      <point x="255.79999999999998" y="106.9"/>
      <point x="236.20000000000002" y="128.9"/>
      <point x="194.2" y="226.3" type="curve" smooth="yes"/>
      <point x="132.5" y="370.70000000000005" type="line"/>
      <point x="108.50000000000001" y="220.5" type="line"/>
      <point x="154.5" y="104.89999999999999" type="line" smooth="yes"/>
      <point x="186.4" y="25.099999999999998"/>
      <point x="208.10000000000002" y="-10.0"/>
    </contour>
    <contour>
      <point x="181.3" y="235.1" type="line"/>
      <point x="255.60000000000002" y="310.5"/>
      <point x="321.70000000000005" y="427.5"/>
      <point x="352.8" y="539.5999999999999" type="curve"/>
      <point x="261.2" y="551.0" type="line"/>
      <point x="232.6" y="438.2"/>
      <point x="185.20000000000002" y="368.90000000000003"/>
      <point x="132.8" y="310.1" type="curve"/>
    </contour>
  </outline>
</glyph>
<glyph name="Ldot" format="2">
  <advance width="265.35"/>
  <unicode hex="013F"/>
  <outline>
    <contour>
      <point x="189.0489" y="363.5791" type="curve" smooth="yes"/>
      <point x="188.1489" y="338.2161"/>
      <point x="196.66410000000002" y="327.70145"/>
      <point x="220.76024999999998" y="327.70145" type="curve" smooth="yes"/>
      <point x="257.32105" y="327.70145"/>
      <point x="266.5694" y="362.97745"/>
      <point x="267.4694" y="394.0062" type="curve" smooth="yes"/>
      <point x="268.3694" y="418.18605"/>
      <point x="260.30420000000004" y="429.15070000000003"/>
      <point x="236.57435" y="429.15070000000003" type="curve" smooth="yes"/>
      <point x="200.3804" y="429.15070000000003"/>
      <point x="189.94889999999998" y="394.60785"/>
    </contour>
    <component base="L"/>
  </outline>
</glyph>
<glyph name="ldot" format="2">
  <advance width="247.7"/>
  <unicode hex="0140"/>
  <outline>
    <contour>
      <point x="182.15155" y="352.81395" type="curve" smooth="yes"/>
      <point x="181.25155" y="327.7067"/>
      <point x="189.58745" y="317.3147"/>
      <point x="213.26890000000003" y="317.3147" type="curve" smooth="yes"/>
      <point x="249.13725" y="317.3147"/>
      <point x="258.19035" y="352.1243"/>
      <point x="259.09035" y="382.8335" type="curve" smooth="yes"/>
      <point x="259.99035000000003" y="406.76750000000004"/>
      <point x="252.10444999999999" y="417.6095"/>
      <point x="228.78160000000003" y="417.6095" type="curve" smooth="yes"/>
      <point x="193.2713" y="417.6095"/>
      <point x="183.05155" y="383.52315"/>
    </contour>
    <component base="l"/>
  </outline>
</glyph>
<glyph name="Lslash" format="2">
  <advance width="282.35"/>
  <unicode hex="0141"/>
  <outline>
    <contour>
      <point x="4.0" y="0.0" type="line"/>
      <point x="230.15" y="0.0" type="line"/>
      <point x="245.25" y="95.45" type="line"/>
      <point x="116.2" y="95.45" type="line"/>
      <point x="149.5" y="305.25" type="line"/>
      <point x="248.9" y="375.4" type="line"/>
      <point x="266.65" y="480.6" type="line"/>
      <point x="166.15" y="409.9" type="line"/>
      <point x="212.65" y="700.0" type="line"/>
      <point x="115.55" y="700.0" type="line"/>
      <point x="60.55" y="355.8" type="line"/>
      <point x="16.0" y="325.7" type="line"/>
      <point x="-0.55" y="220.05" type="line"/>
      <point x="43.45" y="250.15" type="line"/>
    </contour>
  </outline>
</glyph>
<glyph name="lslash" format="2">
  <advance width="188.10000000000002"/>
  <unicode hex="0142"/>
  <outline>
    <contour>
      <point x="-3.55" y="210.5" type="line"/>
      <point x="205.10000000000002" y="374.5" type="line"/>
      <point x="220.10000000000002" y="469.6" type="line"/>
      <point x="10.9" y="305.6" type="line"/>
    </contour>
    <component base="l" xOffset="11.0"/>
  </outline>
</glyph>
<glyph name="Eng" format="2">
  <advance width="364.05"/>
  <unicode hex="014A"/>
  <outline>
    <contour>
      <point x="-12.55" y="0.0" type="line"/>
      <point x="75.75" y="0.0" type="line"/>
      <point x="147.5" y="451.7" type="line"/>
      <point x="190.3" y="-3.6000000000000005" type="line"/>
      <point x="184.05" y="-52.4"/>
      <point x="164.1" y="-68.3"/>
      <point x="135.5" y="-68.3" type="curve" smooth="yes"/>
      <point x="126.45" y="-68.3"/>
      <point x="117.5" y="-66.94999999999999"/>
      <point x="109.65" y="-64.69999999999999" type="curve"/>
      <point x="92.0" y="-173.8" type="line"/>
      <point x="105.05000000000001" y="-177.15"/>
      <point x="118.95" y="-178.05"/>
      <point x="134.05" y="-178.05" type="curve" smooth="yes"/>
      <point x="222.15" y="-174.75"/>
      <point x="271.0" y="-116.80000000000001"/>
      <point x="287.95" y="-8.8" type="curve" smooth="yes"/>
      <point x="400.05" y="700.0" type="line"/>
      <point x="311.75" y="700.0" type="line"/>
      <point x="237.05" y="233.55" type="line"/>
      <point x="198.45" y="700.0" type="line"/>
      <point x="98.0" y="700.0" type="line"/>
    </contour>
  </outline>
</glyph>
<glyph name="eng" format="2">
  <advance width="330.6"/>
  <unicode hex="014B"/>
  <outline>
    <contour>
      <point x="248.95" y="-21.499999999999993" type="curve" smooth="yes"/>
      <point x="287.75" y="228.59999999999997"/>
      <point x="328.45" y="458.55"/>
      <point x="328.45" y="475.75" type="curve" smooth="yes"/>
      <point x="328.45" y="522.6"/>
      <point x="303.05" y="551.0"/>
      <point x="255.8" y="551.0" type="curve" smooth="yes"/>
      <point x="225.85000000000002" y="551.0"/>
      <point x="191.10000000000002" y="540.65"/>
      <point x="158.0" y="514.45" type="curve"/>
      <point x="162.1" y="541.0" type="line"/>
      <point x="73.8" y="541.0" type="line"/>
      <point x="-11.850000000000001" y="0.0" type="line"/>
      <point x="85.35000000000001" y="0.0" type="line"/>
      <point x="155.55" y="436.6" type="line"/>
      <point x="167.85" y="446.1"/>
      <point x="185.35" y="452.6"/>
      <point x="197.2" y="452.6" type="curve" smooth="yes"/>
      <point x="216.35" y="452.6"/>
      <point x="224.75" y="443.65"/>
      <point x="224.75" y="427.3" type="curve" smooth="yes"/>
      <point x="224.75" y="423.3"/>
      <point x="223.65" y="414.9"/>
      <point x="153.95" y="-22.549999999999997" type="curve" smooth="yes"/>
      <point x="146.45" y="-69.89999999999999"/>
      <point x="133.25" y="-105.1"/>
      <point x="102.75" y="-105.1" type="curve" smooth="yes"/>
      <point x="97.7" y="-105.1"/>
      <point x="92.35000000000001" y="-104.64999999999999"/>
      <point x="86.2" y="-102.64999999999999" type="curve"/>
      <point x="61.95" y="-214.8" type="line"/>
      <point x="74.7" y="-217.9"/>
      <point x="89.0" y="-220.0"/>
      <point x="108.60000000000001" y="-220.0" type="curve" smooth="yes"/>
      <point x="171.05" y="-220.0"/>
      <point x="228.45" y="-173.5"/>
    </contour>
  </outline>
</glyph>
<glyph name="OE" format="2">
  <advance width="478.65"/>
  <unicode hex="0152"/>
  <outline>
    <contour>
      <point x="424.2" y="0.0" type="line"/>
      <point x="439.3" y="95.45" type="line"/>
      <point x="292.65" y="95.45" type="line"/>
      <point x="326.4" y="310.0" type="line"/>
      <point x="445.65" y="310.0" type="line"/>
      <point x="460.75" y="399.95" type="line"/>
      <point x="341.5" y="399.95" type="line"/>
      <point x="373.0" y="601.8" type="line"/>
      <point x="510.1" y="601.8" type="line"/>
      <point x="526.75" y="700.0" type="line"/>
      <point x="385.3" y="700.0" type="line"/>
      <point x="354.05" y="704.65"/>
      <point x="306.5" y="710.0"/>
      <point x="277.65" y="710.0" type="curve" smooth="yes"/>
      <point x="74.9" y="710.0"/>
      <point x="17.549999999999997" y="406.3"/>
      <point x="17.549999999999997" y="174.45" type="curve" smooth="yes"/>
      <point x="17.549999999999997" y="47.400000000000006"/>
      <point x="60.6" y="-10.0"/>
      <point x="170.55" y="-10.0" type="curve" smooth="yes"/>
      <point x="190.0" y="-10.0"/>
      <point x="223.75" y="-7.65"/>
      <point x="267.95" y="0.0" type="curve"/>
    </contour>
    <contour>
      <point x="194.0" y="89.9" type="line"/>
      <point x="184.5" y="86.55000000000001"/>
      <point x="175.8" y="85.55000000000001"/>
      <point x="168.45" y="85.55000000000001" type="curve" smooth="yes"/>
      <point x="126.4" y="85.55000000000001"/>
      <point x="114.65" y="120.5"/>
      <point x="114.65" y="183.1" type="curve" smooth="yes"/>
      <point x="114.65" y="379.1"/>
      <point x="176.65" y="611.05"/>
      <point x="253.35" y="611.05" type="curve" smooth="yes"/>
      <point x="264.3" y="611.05"/>
      <point x="271.55" y="608.25"/>
      <point x="276.35" y="607.35" type="curve"/>
    </contour>
  </outline>
</glyph>
<glyph name="oe" format="2">
  <advance width="508.0"/>
  <unicode hex="0153"/>
  <outline>
    <contour>
      <point x="131.20000000000002" y="-10.0" type="curve" smooth="yes"/>
      <point x="178.79999999999998" y="-10.0"/>
      <point x="215.7" y="26.6"/>
      <point x="236.70000000000002" y="70.19999999999999" type="curve"/>
      <point x="259.3" y="18.4"/>
      <point x="296.5" y="-10.0"/>
      <point x="350.8" y="-10.0" type="curve" smooth="yes"/>
      <point x="388.6" y="-10.0"/>
      <point x="430.90000000000003" y="-0.6999999999999997"/>
      <point x="463.20000000000005" y="19.900000000000002" type="curve"/>
      <point x="444.3" y="113.30000000000001" type="line"/>
      <point x="413.7" y="98.0"/>
      <point x="387.1" y="91.00000000000001"/>
      <point x="363.9" y="91.00000000000001" type="curve" smooth="yes"/>
      <point x="326.4" y="91.00000000000001"/>
      <point x="302.6" y="120.9"/>
      <point x="302.6" y="200.2" type="curve" smooth="yes"/>
      <point x="302.6" y="355.6"/>
      <point x="346.20000000000005" y="459.6"/>
      <point x="398.3" y="459.6" type="curve" smooth="yes"/>
      <point x="416.8" y="459.6"/>
      <point x="426.7" y="449.09999999999997"/>
      <point x="426.7" y="421.3" type="curve" smooth="yes"/>
      <point x="426.7" y="373.8"/>
      <point x="396.9" y="331.7"/>
      <point x="349.59999999999997" y="304.8" type="curve" smooth="yes"/>
      <point x="331.2" y="294.2"/>
      <point x="308.8" y="287.5"/>
      <point x="284.2" y="285.9" type="curve"/>
      <point x="265.90000000000003" y="206.6" type="line"/>
      <point x="301.5" y="208.20000000000002"/>
      <point x="336.90000000000003" y="217.0"/>
      <point x="368.3" y="230.9" type="curve" smooth="yes"/>
      <point x="455.40000000000003" y="268.59999999999997"/>
      <point x="516.0" y="348.4"/>
      <point x="516.0" y="442.0" type="curve" smooth="yes"/>
      <point x="516.0" y="507.5"/>
      <point x="482.0" y="551.0"/>
      <point x="413.40000000000003" y="551.0" type="curve" smooth="yes"/>
      <point x="364.90000000000003" y="551.0"/>
      <point x="326.90000000000003" y="524.5"/>
      <point x="297.6" y="487.50000000000006" type="curve"/>
      <point x="283.40000000000003" y="530.0"/>
      <point x="252.60000000000002" y="551.1"/>
      <point x="194.0" y="551.1" type="curve" smooth="yes"/>
      <point x="55.6" y="551.1"/>
      <point x="9.7" y="300.0"/>
      <point x="9.7" y="132.2" type="curve" smooth="yes"/>
      <point x="9.7" y="30.1"/>
      <point x="44.5" y="-10.0"/>
    </contour>
    <contour>
      <point x="133.3" y="84.9" type="curve" smooth="yes"/>
      <point x="115.6" y="84.9"/>
      <point x="104.4" y="92.4"/>
      <point x="104.4" y="131.9" type="curve" smooth="yes"/>
      <point x="104.4" y="192.9"/>
      <point x="136.9" y="456.2"/>
      <point x="192.8" y="456.2" type="curve" smooth="yes"/>
      <point x="210.5" y="456.2"/>
      <point x="221.6" y="449.59999999999997"/>
      <point x="221.6" y="410.3" type="curve" smooth="yes"/>
      <point x="221.6" y="347.0"/>
      <point x="189.1" y="84.9"/>
    </contour>
  </outline>
</glyph>
<glyph name="uni0162" format="2">
  <advance width="296.1"/>
  <unicode hex="0162"/>
  <anchor x="104.31895" y="0.0" name="_bottom"/>
  <anchor x="53.6" y="-220.0" name="bottom"/>
  <outline>
    <contour>
      <point x="5.550000000000001" y="-209.45" type="line"/>
      <point x="19.950000000000003" y="-216.9"/>
      <point x="35.25" y="-220.0"/>
      <point x="53.6" y="-220.0" type="curve" smooth="yes"/>
      <point x="116.95" y="-220.0"/>
      <point x="154.3" y="-160.9"/>
      <point x="154.3" y="-87.55" type="curve" smooth="yes"/>
      <point x="154.3" y="-55.4"/>
      <point x="150.4" y="-23.0"/>
      <point x="142.3" y="4.4" type="curve"/>
      <point x="81.4" y="3.8500000000000005" type="line"/>
      <point x="87.85" y="-23.5"/>
      <point x="91.75" y="-46.199999999999996"/>
      <point x="91.75" y="-73.35" type="curve" smooth="yes"/>
      <point x="91.75" y="-120.25"/>
      <point x="72.0" y="-144.15"/>
      <point x="45.35" y="-144.15" type="curve" smooth="yes"/>
      <point x="35.7" y="-144.15"/>
      <point x="28.8" y="-142.25"/>
      <point x="20.150000000000002" y="-138.35" type="curve"/>
    </contour>
    <component base="T"/>
  </outline>
</glyph>
<glyph name="Tbar" format="2">
  <advance width="297.9"/>
  <unicode hex="0166"/>
  <outline>
    <contour>
      <point x="343.7" y="607.85" type="line"/>
      <point x="358.8" y="700.0" type="line"/>
      <point x="73.65" y="700.0" type="line"/>
      <point x="58.55" y="607.85" type="line"/>
      <point x="152.9" y="607.85" type="line"/>
      <point x="119.1" y="399.35" type="line"/>
      <point x="56.05" y="399.35" type="line"/>
      <point x="38.75" y="301.5" type="line"/>
      <point x="103.9" y="301.5" type="line"/>
      <point x="55.9" y="0.0" type="line"/>
      <point x="152.45" y="0.0" type="line"/>
      <point x="200.45" y="301.5" type="line"/>
      <point x="265.95" y="301.5" type="line"/>
      <point x="283.25" y="399.35" type="line"/>
      <point x="216.10000000000002" y="399.35" type="line"/>
      <point x="249.45" y="607.85" type="line"/>
    </contour>
  </outline>
</glyph>
<glyph name="tbar" format="2">
  <advance width="211.4"/>
  <unicode hex="0167"/>
  <outline>
    <contour>
      <point x="4.0" y="272.65" type="line"/>
      <point x="208.8" y="272.65" type="line"/>
      <point x="222.25" y="349.5" type="line"/>
      <point x="16.9" y="349.5" type="line"/>
    </contour>
    <contour>
      <point x="179.25" y="92.65" type="line"/>
      <point x="169.45" y="90.2"/>
      <point x="161.3" y="88.75"/>
      <point x="154.05" y="88.75" type="curve" smooth="yes"/>
      <point x="127.4" y="88.75"/>
      <point x="117.45" y="104.0"/>
      <point x="117.45" y="130.8" type="curve" smooth="yes"/>
      <point x="117.45" y="140.05"/>
      <point x="118.9" y="150.3"/>
      <point x="120.35000000000001" y="162.45" type="curve" smooth="yes"/>
      <point x="166.75" y="449.95" type="line"/>
      <point x="239.6" y="449.95" type="line"/>
      <point x="255.25" y="541.0" type="line"/>
      <point x="182.4" y="541.0" type="line"/>
      <point x="200.65" y="658.95" type="line"/>
      <point x="117.35" y="658.95" type="line"/>
      <point x="85.3" y="541.0" type="line"/>
      <point x="43.65" y="535.0" type="line"/>
      <point x="29.0" y="450.5" type="line"/>
      <point x="69.65" y="450.5" type="line"/>
      <point x="21.6" y="150.9" type="line" smooth="yes"/>
      <point x="17.5" y="126.2"/>
      <point x="14.299999999999999" y="94.8"/>
      <point x="14.299999999999999" y="75.85" type="curve" smooth="yes"/>
      <point x="14.299999999999999" y="11.85"/>
      <point x="51.3" y="-10.0"/>
      <point x="97.15" y="-10.0" type="curve" smooth="yes"/>
      <point x="124.0" y="-10.0"/>
      <point x="149.0" y="-4.699999999999999"/>
      <point x="170.5" y="6.9" type="curve"/>
    </contour>
  </outline>
</glyph>
<glyph name="uogonek" format="2">
  <advance width="335.3"/>
  <unicode hex="0173"/>
  <outline>
    <contour>
      <point x="229.3" y="-211.75" type="curve" smooth="yes"/>
      <point x="247.7" y="-211.75"/>
      <point x="264.1" y="-206.2"/>
      <point x="278.25" y="-198.65" type="curve"/>
      <point x="283.7" y="-118.55" type="line"/>
      <point x="281.0" y="-120.35"/>
      <point x="273.55" y="-123.25"/>
      <point x="265.2" y="-123.25" type="curve" smooth="yes"/>
      <point x="254.3" y="-123.25"/>
      <point x="248.5" y="-114.44999999999999"/>
      <point x="248.5" y="-99.94999999999999" type="curve" smooth="yes"/>
      <point x="248.5" y="-68.94999999999999"/>
      <point x="269.8" y="-26.949999999999996"/>
      <point x="297.7" y="8.25" type="curve"/>
      <point x="307.55" y="93.2" type="line"/>
      <point x="300.5" y="90.4"/>
      <point x="292.9" y="89.05000000000001"/>
      <point x="288.65" y="89.05000000000001" type="curve" smooth="yes"/>
      <point x="277.15" y="89.05000000000001"/>
      <point x="273.7" y="96.30000000000001"/>
      <point x="273.7" y="107.30000000000001" type="curve" smooth="yes"/>
      <point x="273.7" y="115.0"/>
      <point x="275.6" y="128.85000000000002"/>
      <point x="341.8" y="541.0" type="curve"/>
      <point x="245.8" y="541.0" type="line"/>
      <point x="175.95" y="105.10000000000001" type="line"/>
      <point x="160.5" y="92.9"/>
      <point x="143.1" y="87.30000000000001"/>
      <point x="131.6" y="87.30000000000001" type="curve" smooth="yes"/>
      <point x="114.15" y="87.30000000000001"/>
      <point x="105.2" y="98.80000000000001"/>
      <point x="106.30000000000001" y="116.45" type="curve" smooth="yes"/>
      <point x="116.2" y="186.55"/>
      <point x="129.75" y="270.70000000000005"/>
      <point x="172.15" y="541.0" type="curve"/>
      <point x="75.6" y="541.0" type="line"/>
      <point x="27.9" y="245.9"/>
      <point x="4.149999999999999" y="121.9"/>
      <point x="4.149999999999999" y="67.8" type="curve" smooth="yes"/>
      <point x="4.149999999999999" y="22.0"/>
      <point x="31.45" y="-10.0"/>
      <point x="81.75" y="-10.0" type="curve" smooth="yes"/>
      <point x="115.9" y="-10.0"/>
      <point x="141.9" y="3.8500000000000005"/>
      <point x="174.75" y="34.3" type="curve"/>
      <point x="181.6" y="8.350000000000001"/>
      <point x="205.5" y="-10.0"/>
      <point x="236.6" y="-10.0" type="curve" smooth="yes"/>
      <point x="249.4" y="-10.0"/>
      <point x="258.25" y="4.750000000000002"/>
      <point x="253.8" y="18.950000000000003" type="curve"/>
      <point x="200.0" y="-31.949999999999996"/>
      <point x="160.1" y="-86.3"/>
      <point x="160.1" y="-142.9" type="curve" smooth="yes"/>
      <point x="160.1" y="-187.8"/>
      <point x="188.5" y="-211.75"/>
    </contour>
  </outline>
</glyph>
<glyph name="longs" format="2">
  <advance width="186.1"/>
  <unicode hex="017F"/>
  <outline>
    <contour>
      <point x="-52.599999999999994" y="-220.0" type="curve" smooth="yes"/>
      <point x="38.45" y="-220.0"/>
      <point x="81.2" y="-158.2"/>
      <point x="101.15" y="-31.949999999999996" type="curve" smooth="yes"/>
      <point x="186.95" y="508.75" type="line" smooth="yes"/>
      <point x="203.4" y="614.7"/>
      <point x="224.2" y="649.6"/>
      <point x="263.1" y="649.6" type="curve" smooth="yes"/>
      <point x="274.45" y="649.6"/>
      <point x="287.8" y="646.6"/>
      <point x="300.35" y="642.5" type="curve"/>
      <point x="329.9" y="730.9" type="line"/>
      <point x="306.75" y="741.95"/>
      <point x="283.95" y="750.0"/>
      <point x="251.05" y="750.0" type="curve" smooth="yes"/>
      <point x="169.1" y="750.0"/>
      <point x="114.35" y="676.45"/>
      <point x="89.3" y="508.75" type="curve"/>
      <point x="41.75" y="502.2" type="line"/>
      <point x="27.65" y="417.7" type="line"/>
      <point x="74.75" y="417.7" type="line"/>
      <point x="6.699999999999999" y="-14.849999999999994" type="line" smooth="yes"/>
      <point x="-3.0" y="-74.85"/>
      <point x="-20.25" y="-107.1"/>
      <point x="-56.8" y="-107.1" type="curve" smooth="yes"/>
      <point x="-67.4" y="-107.1"/>
      <point x="-76.19999999999999" y="-106.19999999999999"/>
      <point x="-91.1" y="-101.19999999999999" type="curve"/>
      <point x="-122.6" y="-206.95" type="line"/>
      <point x="-99.25" y="-215.8"/>
      <point x="-76.55" y="-220.0"/>
    </contour>
  </outline>
</glyph>
<glyph name="uni018F" format="2">
  <advance width="348.9"/>
  <unicode hex="018F"/>
  <outline>
    <contour>
      <point x="116.3" y="-10.0" type="curve" smooth="yes"/>
      <point x="257.3" y="-10.0"/>
      <point x="350.3" y="193.6"/>
      <point x="350.3" y="496.4" type="curve" smooth="yes"/>
      <point x="350.3" y="644.6"/>
      <point x="299.0" y="710.0"/>
      <point x="206.5" y="710.0" type="curve" smooth="yes"/>
      <point x="151.79999999999998" y="710.0"/>
      <point x="103.2" y="697.8000000000001"/>
      <point x="55.0" y="670.1999999999999" type="curve"/>
      <point x="78.3" y="573.9" type="line"/>
      <point x="111.3" y="594.0999999999999"/>
      <point x="144.60000000000002" y="605.0999999999999"/>
      <point x="180.5" y="605.0999999999999" type="curve" smooth="yes"/>
      <point x="234.7" y="605.0999999999999"/>
      <point x="253.20000000000002" y="569.0"/>
      <point x="253.20000000000002" y="465.7" type="curve" smooth="yes"/>
      <point x="253.20000000000002" y="288.40000000000003"/>
      <point x="196.8" y="93.8"/>
      <point x="133.9" y="93.8" type="curve" smooth="yes"/>
      <point x="105.0" y="93.8"/>
      <point x="90.9" y="118.9"/>
      <point x="90.9" y="160.3" type="curve" smooth="yes"/>
      <point x="90.9" y="260.4"/>
      <point x="147.10000000000002" y="327.7"/>
      <point x="222.6" y="327.7" type="curve" smooth="yes"/>
      <point x="232.4" y="327.7"/>
      <point x="242.10000000000002" y="327.7"/>
      <point x="252.79999999999998" y="326.8" type="curve"/>
      <point x="257.09999999999997" y="418.90000000000003" type="line"/>
      <point x="248.2" y="419.8"/>
      <point x="239.29999999999998" y="419.8"/>
      <point x="229.5" y="419.8" type="curve" smooth="yes"/>
      <point x="82.2" y="419.8"/>
      <point x="-5.0" y="314.2"/>
      <point x="-5.0" y="139.60000000000002" type="curve" smooth="yes"/>
      <point x="-5.0" y="50.7"/>
      <point x="40.1" y="-10.0"/>
    </contour>
  </outline>
</glyph>
<glyph name="florin" format="2">
  <advance width="343.5"/>
  <unicode hex="0192"/>
  <outline>
    <contour>
      <point x="216.3" y="307.7" type="line"/>
      <point x="269.0" y="307.7" type="line"/>
      <point x="283.55" y="398.3" type="line"/>
      <point x="230.85000000000002" y="398.3" type="line"/>
      <point x="241.4" y="463.8" type="line" smooth="yes"/>
      <point x="257.3" y="563.7"/>
      <point x="273.5" y="601.8"/>
      <point x="307.0" y="601.8" type="curve" smooth="yes"/>
      <point x="317.0" y="601.8"/>
      <point x="324.45" y="599.8"/>
      <point x="336.1" y="595.25" type="curve"/>
      <point x="370.5" y="690.9" type="line"/>
      <point x="349.15" y="701.95"/>
      <point x="327.7" y="710.0"/>
      <point x="295.7" y="710.0" type="curve" smooth="yes"/>
      <point x="220.05" y="710.0"/>
      <point x="172.8" y="642.3"/>
      <point x="145.85" y="477.0" type="curve" smooth="yes"/>
      <point x="133.1" y="398.3" type="line"/>
      <point x="85.1" y="394.45" type="line"/>
      <point x="70.55" y="307.7" type="line"/>
      <point x="118.55" y="307.7" type="line"/>
      <point x="36.8" y="-210.0" type="line"/>
      <point x="134.55" y="-210.0" type="line"/>
    </contour>
  </outline>
</glyph>
<glyph name="uni0237" format="2">
  <advance width="166.45"/>
  <unicode hex="0237"/>
  <anchor x="-53.0" y="-210.0" name="bottom"/>
  <anchor x="126.9" y="541.0" name="top"/>
  <outline>
    <contour>
      <point x="177.05" y="541.0" type="line"/>
      <point x="78.85" y="541.0" type="line"/>
      <point x="-9.100000000000001" y="-12.649999999999999" type="line" smooth="yes"/>
      <point x="-18.8" y="-72.64999999999999"/>
      <point x="-36.4" y="-107.3"/>
      <point x="-72.95" y="-107.3" type="curve" smooth="yes"/>
      <point x="-84.1" y="-107.3"/>
      <point x="-92.9" y="-106.39999999999999"/>
      <point x="-107.25" y="-101.39999999999999" type="curve"/>
      <point x="-136.0" y="-208.05" type="line"/>
      <point x="-112.65" y="-216.9"/>
      <point x="-86.1" y="-220.0"/>
      <point x="-64.9" y="-220.0" type="curve" smooth="yes"/>
      <point x="26.150000000000006" y="-220.0"/>
      <point x="65.4" y="-159.2"/>
      <point x="85.9" y="-29.199999999999996" type="curve" smooth="yes"/>
    </contour>
  </outline>
</glyph>
<glyph name="uni0259" format="2">
  <advance width="315.8"/>
  <unicode hex="0259"/>
  <outline>
    <contour>
      <point x="229.1" y="263.6" type="curve"/>
      <point x="245.60000000000002" y="338.0" type="line"/>
      <point x="209.10000000000002" y="336.40000000000003"/>
      <point x="171.0" y="327.59999999999997"/>
      <point x="137.79999999999998" y="312.8" type="curve" smooth="yes"/>
      <point x="50.699999999999996" y="274.20000000000005"/>
      <point x="-9.899999999999999" y="195.3"/>
      <point x="-9.899999999999999" y="99.9" type="curve" smooth="yes"/>
      <point x="-9.899999999999999" y="35.3"/>
      <point x="24.1" y="-10.0"/>
      <point x="95.4" y="-10.0" type="curve" smooth="yes"/>
      <point x="232.9" y="-10.0"/>
      <point x="300.5" y="169.4"/>
      <point x="300.5" y="368.2" type="curve" smooth="yes"/>
      <point x="300.5" y="496.8"/>
      <point x="250.9" y="551.0"/>
      <point x="166.8" y="551.0" type="curve" smooth="yes"/>
      <point x="120.8" y="551.0"/>
      <point x="80.5" y="539.7"/>
      <point x="49.199999999999996" y="522.0" type="curve"/>
      <point x="68.2" y="430.1" type="line"/>
      <point x="97.00000000000001" y="444.49999999999994"/>
      <point x="122.7" y="451.5"/>
      <point x="148.60000000000002" y="451.5" type="curve" smooth="yes"/>
      <point x="180.7" y="451.5"/>
      <point x="207.5" y="435.40000000000003"/>
      <point x="207.5" y="351.6" type="curve" smooth="yes"/>
      <point x="207.5" y="196.2"/>
      <point x="163.8" y="79.60000000000001"/>
      <point x="111.7" y="79.60000000000001" type="curve" smooth="yes"/>
      <point x="89.2" y="79.60000000000001"/>
      <point x="80.60000000000001" y="96.7"/>
      <point x="80.60000000000001" y="120.60000000000001" type="curve" smooth="yes"/>
      <point x="80.60000000000001" y="169.9"/>
      <point x="110.10000000000001" y="215.9"/>
      <point x="156.5" y="242.9" type="curve" smooth="yes"/>
      <point x="176.70000000000002" y="254.4"/>
      <point x="201.8" y="262.0"/>
    </contour>
  </outline>
</glyph>
<glyph name="gravecomb" format="2">
  <unicode hex="0300"/>
  <anchor x="-125.65" y="541.0" name="_top"/>
  <anchor x="-122.2" y="753.45" name="top"/>
  <outline>
    <contour>
      <point x="-144.3" y="595.45" type="line"/>
      <point x="-69.45" y="595.45" type="line"/>
      <point x="-96.15" y="789.45" type="line"/>
      <point x="-193.7" y="789.45" type="line"/>
    </contour>
  </outline>
</glyph>
<glyph name="acutecomb" format="2">
  <unicode hex="0301"/>
  <anchor x="-125.65" y="541.0" name="_top"/>
  <anchor x="-62.1" y="753.45" name="top"/>
  <outline>
    <contour>
      <point x="-164.95" y="595.45" type="line"/>
      <point x="-88.45" y="595.45" type="line"/>
      <point x="20.0" y="789.45" type="line"/>
      <point x="-81.30000000000001" y="789.45" type="line"/>
    </contour>
  </outline>
</glyph>
<glyph name="uni0302" format="2">
  <unicode hex="0302"/>
  <anchor x="-125.65" y="541.0" name="_top"/>
  <anchor x="-89.55000000000001" y="763.9" name="top"/>
  <anchor x="36.85" y="660.45" name="top_viet"/>
  <outline>
    <contour>
      <point x="-226.55" y="595.45" type="line"/>
      <point x="-146.2" y="595.45" type="line"/>
      <point x="-94.35" y="735.1" type="line"/>
      <point x="-87.05000000000001" y="595.45" type="line"/>
      <point x="-7.15" y="595.45" type="line"/>
      <point x="-32.3" y="789.45" type="line"/>
      <point x="-138.75" y="789.45" type="line"/>
    </contour>
  </outline>
</glyph>
<glyph name="tildecomb" format="2">
  <unicode hex="0303"/>
  <anchor x="-126.10000000000001" y="541.0" name="_top"/>
  <anchor x="-100.00000000000001" y="700.8000000000001" name="top"/>
  <outline>
    <contour>
      <point x="-229.9" y="599.5" type="curve"/>
      <point x="-170.6" y="599.5" type="line"/>
      <point x="-170.6" y="600.4"/>
      <point x="-170.5" y="605.4"/>
      <point x="-170.5" y="606.3000000000001" type="curve" smooth="yes"/>
      <point x="-170.3" y="632.0"/>
      <point x="-159.5" y="661.8000000000001"/>
      <point x="-142.0" y="661.8000000000001" type="curve" smooth="yes"/>
      <point x="-123.9" y="661.8000000000001"/>
      <point x="-119.4" y="602.9"/>
      <point x="-71.20000000000002" y="602.9" type="curve" smooth="yes"/>
      <point x="-24.0" y="602.9"/>
      <point x="7.699999999999999" y="644.2"/>
      <point x="16.5" y="723.8000000000001" type="curve" smooth="yes"/>
      <point x="17.599999999999998" y="733.4"/>
      <point x="18.7" y="743.2"/>
      <point x="19.8" y="754.0" type="curve"/>
      <point x="-39.5" y="754.0" type="line"/>
      <point x="-39.5" y="752.1999999999999"/>
      <point x="-40.5" y="745.4"/>
      <point x="-40.5" y="745.4" type="curve" smooth="yes"/>
      <point x="-43.400000000000006" y="726.0"/>
      <point x="-47.900000000000006" y="689.0"/>
      <point x="-64.5" y="689.0" type="curve" smooth="yes"/>
      <point x="-84.4" y="689.0"/>
      <point x="-89.80000000000001" y="747.0"/>
      <point x="-139.8" y="747.0" type="curve" smooth="yes"/>
      <point x="-187.89999999999998" y="747.0"/>
      <point x="-217.8" y="704.8000000000001"/>
      <point x="-226.60000000000002" y="632.4" type="curve" smooth="yes"/>
      <point x="-227.7" y="622.8000000000001"/>
      <point x="-228.8" y="611.2"/>
    </contour>
  </outline>
</glyph>
<glyph name="uni0304" format="2">
  <unicode hex="0304"/>
  <anchor x="-126.10000000000001" y="541.0" name="_top"/>
  <anchor x="-95.9" y="732.4" name="top"/>
  <outline>
    <contour>
      <point x="-204.6" y="638.7" type="line"/>
      <point x="-16.4" y="638.7" type="line"/>
      <point x="-3.6000000000000014" y="721.4" type="line"/>
      <point x="-191.70000000000002" y="721.4" type="line"/>
    </contour>
  </outline>
</glyph>
<glyph name="uni0306" format="2">
  <unicode hex="0306"/>
  <anchor x="-125.65" y="541.0" name="_top"/>
  <anchor x="-96.35" y="732.3" name="top"/>
  <outline>
    <contour>
      <point x="-116.95" y="601.8" type="curve" smooth="yes"/>
      <point x="-31.05" y="601.8"/>
      <point x="6.85" y="641.0"/>
      <point x="18.95" y="751.95" type="curve"/>
      <point x="-39.400000000000006" y="751.95" type="line"/>
      <point x="-45.2" y="709.05"/>
      <point x="-60.650000000000006" y="678.2"/>
      <point x="-104.6" y="678.2" type="curve" smooth="yes"/>
      <point x="-141.0" y="678.2"/>
      <point x="-152.15" y="696.45"/>
      <point x="-152.15" y="725.15" type="curve" smooth="yes"/>
      <point x="-152.15" y="734.55"/>
      <point x="-151.7" y="741.6"/>
      <point x="-149.25" y="751.95" type="curve"/>
      <point x="-207.15" y="751.95" type="line"/>
      <point x="-211.8" y="731.05"/>
      <point x="-214.35000000000002" y="708.2"/>
      <point x="-214.35000000000002" y="689.55" type="curve" smooth="yes"/>
      <point x="-214.35000000000002" y="619.3"/>
      <point x="-176.10000000000002" y="601.8"/>
    </contour>
  </outline>
</glyph>
<glyph name="uni0307" format="2">
  <unicode hex="0307"/>
  <anchor x="-125.65" y="541.0" name="_top"/>
  <anchor x="-98.65" y="696.35" name="top"/>
  <outline>
    <contour>
      <point x="-112.0" y="628.15" type="curve" smooth="yes"/>
      <point x="-70.4" y="628.15"/>
      <point x="-58.150000000000006" y="669.4"/>
      <point x="-58.150000000000006" y="703.4" type="curve" smooth="yes"/>
      <point x="-58.150000000000006" y="731.2"/>
      <point x="-72.25" y="740.05"/>
      <point x="-94.9" y="740.05" type="curve" smooth="yes"/>
      <point x="-135.5" y="740.05"/>
      <point x="-148.3" y="697.25"/>
      <point x="-148.3" y="663.35" type="curve" smooth="yes"/>
      <point x="-148.3" y="636.0"/>
      <point x="-133.75" y="628.15"/>
    </contour>
  </outline>
</glyph>
<glyph name="uni0308" format="2">
  <unicode hex="0308"/>
  <anchor x="-125.65" y="541.0" name="_top"/>
  <anchor x="-101.95" y="696.35" name="top"/>
  <outline>
    <contour>
      <point x="-47.300000000000004" y="631.45" type="curve" smooth="yes"/>
      <point x="-20.35" y="631.45"/>
      <point x="-2.0500000000000007" y="645.2"/>
      <point x="4.0" y="689.55" type="curve" smooth="yes"/>
      <point x="10.600000000000001" y="731.75"/>
      <point x="-3.5" y="743.35"/>
      <point x="-29.1" y="743.35" type="curve" smooth="yes"/>
      <point x="-55.5" y="743.35"/>
      <point x="-74.35" y="728.15"/>
      <point x="-80.95" y="683.25" type="curve" smooth="yes"/>
      <point x="-87.0" y="642.05"/>
      <point x="-71.25" y="631.45"/>
    </contour>
    <contour>
      <point x="-177.05" y="631.45" type="curve" smooth="yes"/>
      <point x="-150.1" y="631.45"/>
      <point x="-131.25" y="645.2"/>
      <point x="-125.2" y="689.55" type="curve" smooth="yes"/>
      <point x="-118.6" y="731.75"/>
      <point x="-134.35" y="743.35"/>
      <point x="-158.85" y="743.35" type="curve" smooth="yes"/>
      <point x="-185.7" y="743.35"/>
      <point x="-203.55" y="726.8"/>
      <point x="-210.15" y="683.25" type="curve" smooth="yes"/>
      <point x="-216.2" y="642.05"/>
      <point x="-202.10000000000002" y="631.45"/>
    </contour>
  </outline>
</glyph>
